<?xml version="1.0" standalone="no"?>
<!DOCTYPE svg PUBLIC "-//W3C//DTD SVG 1.1//EN" "http://www.w3.org/Graphics/SVG/1.1/DTD/svg11.dtd" >
<svg>
<metadata>
Created by FontForge 20120731 at Tue Sep 30 17:33:29 2014
 By World Wide Web Server
Generated by Fontographer 4.1.4
</metadata>
<defs>
<font id="CorporateSBold" horiz-adv-x="500" >
  <font-face 
    font-family="CorporateSBold"
    font-weight="400"
    font-stretch="normal"
    units-per-em="1000"
    panose-1="0 0 4 0 0 0 0 0 0 0"
    ascent="800"
    descent="-200"
    x-height="475"
    cap-height="667"
    bbox="-169 -278 1014 905"
    underline-thickness="20"
    underline-position="-156"
    unicode-range="U+0020-F002"
  />
<missing-glyph 
d="M63 0v751h375v-751h-375zM125 63h250v626h-250v-626z" />
    <glyph glyph-name=".notdef" 
d="M63 0v751h375v-751h-375zM125 63h250v626h-250v-626z" />
    <glyph glyph-name=".null" horiz-adv-x="0" 
 />
    <glyph glyph-name="nonmarkingreturn" horiz-adv-x="250" 
 />
    <glyph glyph-name="space" unicode=" " horiz-adv-x="250" 
 />
    <glyph glyph-name="exclam" unicode="!" horiz-adv-x="252" 
d="M72 221l-12 429h132l-14 -429h-106zM49 69q0 31 22.5 53t54.5 22t54.5 -22t22.5 -53t-22.5 -53.5t-54.5 -22.5t-54.5 22t-22.5 54z" />
    <glyph glyph-name="quotedbl" unicode="&#x22;" 
d="M228 667l-23 -268h-75l-23 268h121zM393 667l-23 -268h-75l-22 268h120z" />
    <glyph glyph-name="numbersign" unicode="#" horiz-adv-x="600" 
d="M448 282h118l-14 -83h-117l-31 -199h-97l32 199h-122l-32 -199h-96l31 199h-114l13 83h114l19 116h-114l13 83h114l29 186h97l-29 -186h121l29 186h97l-29 -186h117l-13 -83h-117zM351 282l19 116h-122l-18 -116h121z" />
    <glyph glyph-name="dollar" unicode="$" horiz-adv-x="570" 
d="M394 475q-11 76 -78 94v-169l10 -3q88 -26 133 -57q76 -52 76 -149q0 -86 -59.5 -141t-159.5 -62v-89h-62v90q-106 10 -162.5 67.5t-56.5 153.5v12h120q4 -59 26.5 -87t72.5 -39v194l-14 5q-63 22 -82 31q-29 12 -48 26q-60 45 -60 134q0 83 53.5 133.5t150.5 59.5v75h62
v-77q93 -12 144.5 -65t51.5 -137h-118zM254 420v151q-82 -18 -82 -75q0 -28 18 -45t64 -31zM316 270v-177q94 11 94 87q0 54 -81 85z" />
    <glyph glyph-name="percent" unicode="%" horiz-adv-x="713" 
d="M113 0l387 667h98l-386 -667h-99zM681 156q0 -67 -41 -114t-100 -47t-100 46.5t-41 114.5t41 114.5t100 46.5t100 -47t41 -114zM314 511q0 -68 -41 -115t-100 -47t-100 47t-41 115q0 67 41.5 114t99.5 47q59 0 100 -47t41 -114zM603 156q0 42 -17.5 67.5t-45.5 25.5
t-45.5 -25.5t-17.5 -67.5t17.5 -67.5t45.5 -25.5t45.5 26t17.5 67zM236 511q0 41 -17.5 66.5t-45.5 25.5t-45.5 -25.5t-17.5 -67.5q0 -41 17.5 -66.5t45.5 -25.5t45.5 25.5t17.5 67.5z" />
    <glyph glyph-name="ampersand" unicode="&#x26;" horiz-adv-x="580" 
d="M428 297q0 15 -1 36h96q1 -16 1 -36q0 -113 -53 -183l85 -114h-127l-27 44q-60 -55 -156 -55q-97 0 -158 53.5t-61 139.5q0 78 70 146q13 11 41 38l9 9l-11 15q-33 45 -45 70t-12 55q0 61 45.5 101t116.5 40q69 0 112 -39.5t43 -101.5q0 -76 -88 -154l-9 -8l110 -149
q19 37 19 93zM225 439l10 -13q61 51 61 92q0 47 -52 47q-24 0 -39 -13.5t-15 -35.5q0 -32 35 -77zM340 121l-126 165q-76 -63 -76 -112q0 -39 30 -63t79 -24q58 0 93 34z" />
    <glyph glyph-name="quotesingle" unicode="'" horiz-adv-x="250" 
d="M185 667l-23 -268h-74l-23 268h120z" />
    <glyph glyph-name="parenleft" unicode="(" horiz-adv-x="306" 
d="M111 540q26 70 70 132h92q-105 -163 -105 -431q0 -275 105 -441h-92q-41 58 -67 123q-56 142 -55 313q1 165 52 304z" />
    <glyph glyph-name="parenright" unicode=")" horiz-adv-x="306" 
d="M195 -68q-24 -66 -70 -132h-93q105 162 105 431q0 279 -105 441h93q41 -58 66 -122q55 -143 55 -314q0 -166 -51 -304z" />
    <glyph glyph-name="asterisk" unicode="*" 
d="M110 568l113 -36v118h54v-118l113 36l17 -51l-113 -37l70 -96l-44 -32l-70 96l-70 -96l-43 32l69 96l-112 37z" />
    <glyph glyph-name="plus" unicode="+" horiz-adv-x="570" 
d="M334 576v-196h189v-94h-189v-196h-98v196h-188v94h188v196h98z" />
    <glyph glyph-name="comma" unicode="," horiz-adv-x="251" 
d="M139 -146q-18 -31 -53 -81h-63q38 53 63 117q21 55 25 113q-74 9 -74 68q0 31 23 53t56 22q37 0 59.5 -29t22.5 -78q0 -83 -59 -185z" />
    <glyph glyph-name="hyphen" unicode="-" horiz-adv-x="261" 
d="M0 208v89h261v-89h-261z" />
    <glyph glyph-name="hyphen" unicode="&#x2010;" horiz-adv-x="261" 
d="M0 208v89h261v-89h-261z" />
    <glyph glyph-name="period" unicode="." horiz-adv-x="251" 
d="M49 69q0 31 22.5 53t54.5 22q31 0 53.5 -22t22.5 -53t-22 -53.5t-54 -22.5t-54.5 22t-22.5 54z" />
    <glyph glyph-name="slash" unicode="/" horiz-adv-x="557" 
d="M114 -194h-93l423 861h92z" />
    <glyph glyph-name="zero" unicode="0" horiz-adv-x="570" 
d="M285 -10q-112 0 -174.5 89.5t-62.5 248.5t62.5 248.5t174.5 89.5q111 0 174 -90t63 -248q0 -159 -62.5 -248.5t-174.5 -89.5zM285 563q-53 0 -82.5 -61.5t-29.5 -173.5t29.5 -173.5t82.5 -61.5t82.5 61.5t29.5 173.5t-29.5 173.5t-82.5 61.5z" />
    <glyph glyph-name="one" unicode="1" horiz-adv-x="570" 
d="M279 467h-114v68q67 1 103.5 28.5t50.5 89.5h86v-653h-126v467z" />
    <glyph glyph-name="two" unicode="2" horiz-adv-x="570" 
d="M285 557q-85 0 -96 -90h-104v8q0 86 56.5 138.5t149.5 52.5q91 0 145.5 -47.5t54.5 -127.5q0 -58 -40 -121q-18 -29 -80 -103q-67 -80 -120 -136q-4 -4 -16 -17h261v-114h-421l-1 101l12 13q40 43 146 167q64 75 82 99q51 69 51 107q0 31 -22.5 50.5t-57.5 19.5z" />
    <glyph glyph-name="three" unicode="3" horiz-adv-x="570" 
d="M281 559q-80 0 -92 -82h-105q3 89 58.5 139t152.5 50q89 0 141.5 -47t52.5 -127q0 -105 -105 -146q115 -31 115 -152q0 -91 -61.5 -147.5t-161.5 -56.5q-106 0 -165.5 54t-59.5 151h112q2 -98 110 -98q48 0 75 25.5t27 70.5q0 52 -38 73t-134 21h-8v101h24q146 0 146 94
q0 34 -23.5 55.5t-60.5 21.5z" />
    <glyph glyph-name="four" unicode="4" horiz-adv-x="570" 
d="M420 653v-419h117v-99h-114v-143h-126v143h-269v99l249 419h143zM144 234h160v283z" />
    <glyph glyph-name="five" unicode="5" horiz-adv-x="570" 
d="M75 303l64 347h327l-7 -111h-230l-25 -127q47 29 101 29q91 0 147.5 -59t56.5 -154q0 -104 -64.5 -171t-165.5 -67q-95 0 -153.5 52.5t-64.5 142.5h118q12 -87 95 -87q47 0 75.5 34t28.5 90q0 53 -27 86t-70 33q-56 -1 -100 -53z" />
    <glyph glyph-name="six" unicode="6" horiz-adv-x="570" 
d="M282 648l10 12h136l-8 -10q-112 -140 -152 -204q21 3 43 3q91 0 146 -60.5t55 -159.5q0 -105 -62.5 -172t-160.5 -67q-102 0 -166.5 67.5t-64.5 174.5q0 116 84 243q28 43 79 104q13 14 61 69zM183 225q0 -58 28 -94t74 -36t74 36t28 94t-28 93.5t-74 35.5t-74 -35.5
t-28 -93.5z" />
    <glyph glyph-name="seven" unicode="7" horiz-adv-x="570" 
d="M92 531v119h442v-94l-308 -556h-137l295 531h-292z" />
    <glyph glyph-name="eight" unicode="8" horiz-adv-x="570" 
d="M57 196q0 97 85 147q-73 45 -73 131q0 82 62 137t154 55t153.5 -55.5t61.5 -137.5q0 -85 -72 -130q85 -48 85 -147q0 -89 -65 -147.5t-163 -58.5t-163 58.5t-65 147.5zM376 478q0 39 -25.5 63.5t-65.5 24.5t-65.5 -24.5t-25.5 -63.5t25.5 -63.5t65.5 -24.5t65.5 24.5
t25.5 63.5zM388 190q0 44 -28.5 72.5t-74.5 28.5t-74.5 -28.5t-28.5 -72.5t28.5 -72t74.5 -28t74.5 28t28.5 72z" />
    <glyph glyph-name="nine" unicode="9" horiz-adv-x="570" 
d="M287 2l-11 -12h-135l8 10q105 131 153 207q-23 -4 -43 -4q-89 0 -145 61t-56 159q0 107 63.5 175t163.5 68t163.5 -68.5t63.5 -176.5q0 -115 -85 -245q-32 -49 -79 -104q-12 -15 -61 -70zM387 429q0 59 -28 95t-74 36t-74 -36t-28 -95t28 -94.5t74 -35.5t74 35.5t28 94.5
z" />
    <glyph glyph-name="colon" unicode=":" horiz-adv-x="251" 
d="M49 69q0 31 22.5 53t54.5 22q31 0 53.5 -22t22.5 -53t-22 -53.5t-54 -22.5t-54.5 22t-22.5 54zM49 400q0 32 22.5 54t54.5 22t54 -22.5t22 -53.5t-22 -53.5t-54 -22.5t-54.5 22t-22.5 54z" />
    <glyph glyph-name="semicolon" unicode=";" horiz-adv-x="251" 
d="M40 400q0 31 22.5 53.5t54.5 22.5t54.5 -22.5t22.5 -53.5q0 -32 -22.5 -54t-54.5 -22t-54.5 22.5t-22.5 53.5zM139 -146q-18 -31 -53 -81h-63q38 53 63 117q21 55 25 113q-74 9 -74 68q0 31 23 53t56 22q37 0 59.5 -29t22.5 -78q0 -83 -59 -185z" />
    <glyph glyph-name="less" unicode="&#x3c;" 
d="M33 392l434 219v-123l-303 -148l303 -149v-122l-434 219v104z" />
    <glyph glyph-name="equal" unicode="=" horiz-adv-x="570" 
d="M48 370v94h475v-94h-475zM48 203v94h475v-94h-475z" />
    <glyph glyph-name="greater" unicode="&#x3e;" 
d="M467 287l-434 -218v122l303 149l-303 149v121l434 -219v-104z" />
    <glyph glyph-name="question" unicode="?" horiz-adv-x="417" 
d="M137 69q0 31 22.5 53t54.5 22t54.5 -22t22.5 -53t-22.5 -53.5t-54.5 -22.5t-54.5 22.5t-22.5 53.5zM269 225l1 -8h-114v11l1 31q2 53 13 80t51 70q31 34 37 42q18 25 18 51q0 54 -58 54q-67 0 -70 -81l-97 1q2 59 15 92t44 57q51 38 125 38q80 0 125 -40.5t45 -111.5
q0 -41 -15 -69.5t-65 -83.5q-41 -45 -48 -62q-8 -20 -8 -56v-15z" />
    <glyph glyph-name="at" unicode="@" horiz-adv-x="733" 
d="M468 452l8 41h85l-39 -203q-5 -28 -5 -36q0 -40 25 -40q24 0 47 35q38 57 38 134q0 100 -66.5 160.5t-176.5 60.5q-117 0 -193.5 -78.5t-76.5 -199.5q0 -88 44.5 -156t117.5 -91q53 -17 121 -17q86 0 178 32l19 -76q-90 -31 -198 -31q-165 0 -265 93t-100 247
q0 151 100.5 251.5t251.5 100.5q139 0 229.5 -83.5t90.5 -212.5q0 -94 -50.5 -166.5t-115.5 -72.5q-58 0 -78 64q-45 -65 -118 -65q-65 0 -107 45t-42 115q0 81 52.5 141t123.5 60q66 0 100 -52zM360 225q37 0 61.5 33t24.5 84q0 76 -63 76q-38 0 -65.5 -33.5t-27.5 -81.5
q0 -36 19 -57t51 -21z" />
    <glyph glyph-name="A" unicode="A" horiz-adv-x="602" 
d="M10 0l225 667h130l227 -667h-133l-41 139h-235l-42 -139h-131zM215 248h171l-86 272z" />
    <glyph glyph-name="B" unicode="B" horiz-adv-x="588" 
d="M80 0v667h179q105 0 154.5 -17t77 -57t27.5 -94q0 -107 -109 -141q145 -33 145 -166q0 -62 -33.5 -110t-88.5 -65t-194 -17h-158zM206 563v-165h55q74 0 103 18.5t29 64.5q0 47 -30 64.5t-110 17.5h-47zM206 297v-193h57q97 0 129 19t32 76q0 56 -33.5 77t-124.5 21h-60z
" />
    <glyph glyph-name="C" unicode="C" horiz-adv-x="599" 
d="M329 679q106 0 167 -59.5t68 -169.5h-110q-20 119 -124 119q-74 0 -117.5 -64t-43.5 -173t43.5 -171.5t118.5 -62.5q115 0 127 149h115q-12 -260 -238 -260q-137 0 -218.5 94t-81.5 251t80.5 252t213.5 95z" />
    <glyph glyph-name="D" unicode="D" horiz-adv-x="646" 
d="M80 0v667h163q139 0 208 -35q74 -38 116.5 -117.5t42.5 -180.5q0 -97 -39 -176.5t-104 -116.5q-72 -41 -196 -41h-191zM208 557v-448h59q98 0 140 32q73 55 73 194q0 137 -77 190q-34 23 -81 29q-21 3 -86 3h-28z" />
    <glyph glyph-name="E" unicode="E" horiz-adv-x="537" 
d="M208 557v-157h265v-109h-265v-182h302v-109h-430v667h419v-110h-291z" />
    <glyph glyph-name="F" unicode="F" horiz-adv-x="518" 
d="M208 557v-157h265v-109h-262v-291h-131v667h419v-110h-291z" />
    <glyph glyph-name="G" unicode="G" horiz-adv-x="641" 
d="M348 249v95h240v-277q-115 -80 -245 -80q-142 0 -225 92.5t-83 251.5q0 158 81.5 253.5t216.5 95.5q109 0 174 -60.5t71 -167.5h-110q-18 117 -132 117q-79 0 -123 -62.5t-44 -174.5t45.5 -173t128.5 -61q78 0 139 43v108h-134z" />
    <glyph glyph-name="H" unicode="H" horiz-adv-x="681" 
d="M208 667v-266h265v266h128v-667h-128v294h-265v-294h-128v667h128z" />
    <glyph glyph-name="I" unicode="I" horiz-adv-x="288" 
d="M208 667v-667h-128v667h128z" />
    <glyph glyph-name="J" unicode="J" horiz-adv-x="335" 
d="M130 667h129v-532q0 -78 -1 -97q-5 -59 -24 -92q-47 -80 -200 -80h-38v107h15q78 0 98.5 20t20.5 95v579z" />
    <glyph glyph-name="K" unicode="K" horiz-adv-x="623" 
d="M210 353l244 314h148l-249 -309l265 -358h-163zM80 0v667h128v-667h-128z" />
    <glyph glyph-name="L" unicode="L" horiz-adv-x="515" 
d="M80 0v667h131v-558h289v-109h-420z" />
    <glyph glyph-name="M" unicode="M" horiz-adv-x="806" 
d="M80 0v667h179l144 -530l146 530h177v-667h-115v520l-143 -520h-132l-140 520v-520h-116z" />
    <glyph glyph-name="N" unicode="N" horiz-adv-x="689" 
d="M80 0v667h136l272 -470v470h121v-667h-128l-279 469v-469h-122z" />
    <glyph glyph-name="O" unicode="O" horiz-adv-x="673" 
d="M337 -13q-137 0 -219.5 94.5t-82.5 251.5t82.5 251.5t219.5 94.5q136 0 218.5 -94.5t82.5 -251.5q0 -156 -82.5 -251t-218.5 -95zM337 570q-79 0 -123.5 -63t-44.5 -174q0 -110 44.5 -173t123.5 -63q78 0 122.5 63t44.5 173q0 111 -44.5 174t-122.5 63z" />
    <glyph glyph-name="P" unicode="P" horiz-adv-x="565" 
d="M80 0v667h156q74 0 122 -5q88 -9 135 -56q57 -57 57 -151q0 -75 -38.5 -128t-110.5 -68q-45 -10 -152 -10h-39v-249h-130zM208 557v-199h76q71 0 103 23t32 75q0 58 -35.5 79.5t-128.5 21.5h-47z" />
    <glyph glyph-name="Q" unicode="Q" horiz-adv-x="693" 
d="M638 335q0 -92 -34 -178l138 -157h-149l-55 64q-83 -77 -202 -77q-136 0 -218.5 94.5t-82.5 251.5t82.5 251.5t219.5 94.5q136 0 218.5 -94.5t82.5 -249.5zM337 570q-79 0 -123.5 -63t-44.5 -174q0 -110 44.5 -173t123.5 -63q78 0 122.5 63t44.5 173q0 111 -44.5 174
t-122.5 63z" />
    <glyph glyph-name="R" unicode="R" horiz-adv-x="590" 
d="M80 0v667h166q78 0 107 -3q62 -6 102 -29q95 -53 95 -173q0 -132 -118 -185l154 -277h-149l-137 254h-92v-254h-128zM208 557v-193h47q93 0 129 21.5t36 76.5q0 54 -43 78q-20 11 -43 14t-89 3h-37z" />
    <glyph glyph-name="S" unicode="S" horiz-adv-x="565" 
d="M491 564q16 -34 20 -93h-123q-8 98 -109 98q-41 0 -69 -20.5t-28 -51.5q0 -41 79 -72l64 -25q35 -14 75 -31q70 -30 100 -72t30 -105q0 -94 -64.5 -149.5t-173.5 -55.5q-251 0 -260 240h124q12 -129 137 -129q47 0 76.5 19.5t29.5 51.5q0 47 -79 80l-82 34
q-115 48 -149.5 94.5t-34.5 106.5q0 86 63.5 140.5t163.5 54.5q73 0 128.5 -30.5t81.5 -84.5z" />
    <glyph glyph-name="T" unicode="T" horiz-adv-x="503" 
d="M12 557v110h480v-110h-176v-557h-129v557h-175z" />
    <glyph glyph-name="U" unicode="U" horiz-adv-x="675" 
d="M73 282v385h129v-383q0 -100 22 -134q33 -52 113 -52q122 0 133 114q3 31 3 72v383h128v-385q0 -118 -26 -171q-29 -59 -91.5 -91.5t-146.5 -32.5q-177 0 -238 124q-26 52 -26 171z" />
    <glyph glyph-name="V" unicode="V" horiz-adv-x="609" 
d="M235 0l-228 667h137l161 -521l160 521h135l-231 -667h-134z" />
    <glyph glyph-name="W" unicode="W" horiz-adv-x="868" 
d="M180 0l-171 667h120l127 -521l124 521h110l124 -521l129 521h116l-171 -667h-145l-110 434l-108 -434h-145z" />
    <glyph glyph-name="X" unicode="X" horiz-adv-x="584" 
d="M218 347l-191 320h146l120 -207l123 207h146l-195 -320l207 -347h-146l-135 231l-137 -231h-146z" />
    <glyph glyph-name="Y" unicode="Y" horiz-adv-x="562" 
d="M217 263l-217 404h143l140 -266l138 266h141l-216 -404v-263h-129v263z" />
    <glyph glyph-name="Z" unicode="Z" horiz-adv-x="501" 
d="M52 559v108h430v-90l-308 -468h298v-109h-449v100l304 459h-275z" />
    <glyph glyph-name="bracketleft" unicode="[" horiz-adv-x="306" 
d="M75 -194v861h200v-97h-95v-666h95v-98h-200z" />
    <glyph glyph-name="backslash" unicode="\" horiz-adv-x="557" 
d="M113 667l423 -861h-93l-422 861h92z" />
    <glyph glyph-name="bracketright" unicode="]" horiz-adv-x="306" 
d="M231 667v-861h-200v96h95v667h-95v98h200z" />
    <glyph glyph-name="asciicircum" unicode="^" 
d="M250 572l-114 -234h-129l162 332h162l162 -332h-129z" />
    <glyph glyph-name="underscore" unicode="_" 
d="M0 -159v111h500v-111h-500z" />
    <glyph glyph-name="grave" unicode="`" 
d="M214 694l127 -163h-93l-186 163h152z" />
    <glyph glyph-name="a" unicode="a" horiz-adv-x="512" 
d="M256 388q-71 0 -81 -55h-117q10 87 74 122q55 30 133 30q128 0 163 -70q19 -39 19 -118v-191q0 -75 16 -106h-112q-7 29 -7 44q0 1 1 5v5q-39 -64 -131 -64q-82 0 -127.5 35.5t-45.5 99.5q0 102 108 142q42 16 82 24q18 2 79 14l18 4v7q0 39 -16.5 55.5t-55.5 16.5z
M328 200v27q-92 -12 -126.5 -30.5t-34.5 -55.5q0 -25 20.5 -41t51.5 -16q48 0 68.5 26.5t20.5 89.5z" />
    <glyph glyph-name="b" unicode="b" horiz-adv-x="549" 
d="M69 671h123v-256q53 70 130 70q84 0 138.5 -69.5t54.5 -176.5q0 -110 -58 -179.5t-149 -69.5q-89 0 -127 74q-3 -40 -9 -64h-107q4 28 4 89v582zM390 240q0 67 -26 104.5t-72 37.5q-47 0 -73.5 -39t-26.5 -106t26 -105.5t71 -38.5q46 0 73.5 39.5t27.5 107.5z" />
    <glyph glyph-name="c" unicode="c" horiz-adv-x="497" 
d="M264 488q174 0 196 -170h-120q-12 72 -77 72q-47 0 -75.5 -41.5t-28.5 -111.5q0 -71 27 -111.5t75 -40.5q72 0 84 84h118q-4 -82 -60 -132t-142 -50q-101 0 -164.5 69t-63.5 181q0 113 63.5 182t167.5 69z" />
    <glyph glyph-name="d" unicode="d" horiz-adv-x="548" 
d="M356 671h123v-521q0 -106 9 -150h-115q-4 27 -4 42q0 12 1 24q-44 -76 -135 -76q-90 0 -146 67t-56 176q0 110 56.5 181t143.5 71q75 0 123 -62v248zM358 239q0 68 -26 105.5t-72 37.5q-47 0 -74 -39.5t-27 -108.5q0 -66 25.5 -103.5t71.5 -37.5q48 0 75 39t27 107z" />
    <glyph glyph-name="e" unicode="e" horiz-adv-x="515" 
d="M482 231v-10q-1 -7 -1 -13h-325q8 -123 116 -123q66 0 92 53l108 -4q-16 -68 -70.5 -107.5t-133.5 -39.5q-108 0 -171.5 66t-63.5 179q0 115 64 185.5t168 70.5q101 0 159 -69t58 -188zM160 297h198q-15 96 -95 96t-103 -96z" />
    <glyph glyph-name="f" unicode="f" horiz-adv-x="328" 
d="M202 487v-12h112v-96h-112v-379h-123v379h-63v96h63v30q0 67 13 103t47.5 57.5t86.5 21.5q53 0 109 -22v-99q-52 16 -81 16q-37 0 -47 -31q-5 -15 -5 -64z" />
    <glyph glyph-name="g" unicode="g" horiz-adv-x="530" 
d="M354 472l157 3v-88h-96q24 -38 24 -85q0 -122 -153 -137l-60 -6q-47 -5 -47 -28q0 -14 15.5 -18.5t88.5 -11.5q127 -13 164 -41q46 -36 46 -101q0 -76 -62 -118t-174 -42q-110 0 -174 37.5t-64 102.5q0 78 96 111q-53 21 -53 58q0 42 84 75q-81 41 -81 135q0 77 54 122
t145 45q41 0 90 -13zM336 319q0 33 -22.5 53t-60.5 20q-37 0 -59.5 -20t-22.5 -53q0 -32 22 -51t59 -19q38 0 61 19t23 51zM375 -53q0 57 -122 61h-11q-117 0 -117 -59q0 -61 132 -61q118 0 118 59z" />
    <glyph glyph-name="h" unicode="h" horiz-adv-x="555" 
d="M69 0v671h123v-248q56 62 136 62q52 0 93.5 -24.5t55.5 -64.5q13 -36 13 -122v-274h-124v247q0 70 -18.5 100t-61.5 30q-94 0 -94 -134v-243h-123z" />
    <glyph glyph-name="i" unicode="i" horiz-adv-x="261" 
d="M69 0v475h123v-475h-123zM59 607q0 32 20.5 52.5t52.5 20.5t51 -19.5t19 -52.5q0 -32 -19.5 -51.5t-52.5 -19.5q-32 0 -51.5 19t-19.5 51z" />
    <glyph glyph-name="j" unicode="j" horiz-adv-x="272" 
d="M83 475h123v-407q0 -64 -3 -88q-6 -47 -28 -82q-51 -81 -189 -81h-26v106q4 0 9 -1h6q60 0 84 21t24 74v458zM74 607q0 33 20 52.5t53 19.5q69 0 69 -71q0 -32 -19 -51.5t-52 -19.5q-71 0 -71 70z" />
    <glyph glyph-name="k" unicode="k" horiz-adv-x="536" 
d="M193 253l175 222h148l-179 -220l195 -255h-165zM69 0v671h123v-671h-123z" />
    <glyph glyph-name="l" unicode="l" horiz-adv-x="261" 
d="M69 0v671h123v-671h-123z" />
    <glyph glyph-name="m" unicode="m" horiz-adv-x="835" 
d="M69 384q0 57 -13 91h119q10 -22 10 -54v-9q53 73 144 73q95 0 137 -77q61 77 154 77q149 0 149 -159v-326h-123v274q0 58 -16.5 80.5t-60.5 22.5q-88 0 -88 -108v-269h-124v264q0 66 -15.5 89.5t-59.5 23.5q-48 0 -69 -26.5t-21 -86.5v-264h-123v384z" />
    <glyph glyph-name="n" unicode="n" horiz-adv-x="548" 
d="M69 343q0 84 -15 132h119q10 -22 10 -61q53 71 141 71q97 0 136 -69q14 -25 18 -50.5t4 -91.5v-274h-123v247q0 72 -17 101t-60 29q-90 0 -90 -134v-243h-123v343z" />
    <glyph glyph-name="o" unicode="o" horiz-adv-x="536" 
d="M268 -13q-103 0 -169 70.5t-66 179.5q0 110 66 180.5t169 70.5q102 0 168 -71t66 -180t-66 -179.5t-168 -70.5zM268 390q-49 0 -79 -42.5t-30 -110.5t30 -110t79 -42q48 0 78.5 42.5t30.5 109.5q0 68 -30.5 110.5t-78.5 42.5z" />
    <glyph glyph-name="p" unicode="p" horiz-adv-x="548" 
d="M192 -197h-123v521v16q-1 17 -1 35q-1 61 -8 100h115q8 -26 8 -50v-6q49 66 131 66q90 0 145.5 -67.5t55.5 -176.5q0 -110 -55.5 -180.5t-141.5 -70.5q-74 0 -126 61v-248zM190 235q0 -66 27.5 -104t74.5 -38q46 0 71.5 39t25.5 107q0 67 -25.5 105t-71.5 38
q-48 0 -75 -39t-27 -108z" />
    <glyph glyph-name="q" unicode="q" horiz-adv-x="548" 
d="M479 -197h-123v247q-46 -60 -118 -60q-91 0 -148 68t-57 177q0 112 56.5 181t147.5 69q88 0 128 -66v6q0 24 8 50h115q-9 -44 -9 -151v-521zM159 238q0 -67 27.5 -106t74.5 -39q46 0 71.5 38t25.5 105t-27 106.5t-74 39.5q-46 0 -72 -38.5t-26 -105.5z" />
    <glyph glyph-name="r" unicode="r" horiz-adv-x="377" 
d="M68 413q0 28 -6 62h118q7 -29 7 -74v-25q54 109 136 109q14 0 31 -4l6 -2v-125q-35 23 -74 23q-94 0 -94 -156v-221h-123z" />
    <glyph glyph-name="s" unicode="s" horiz-adv-x="485" 
d="M246 489q86 0 137 -41.5t55 -116.5h-118q-9 65 -77 65q-29 0 -47.5 -13.5t-18.5 -35.5t18 -32.5t98 -34.5q104 -31 130 -71q19 -29 19 -70q0 -72 -51 -112t-143 -40q-210 0 -210 168v4h116q6 -80 90 -80q75 0 75 52q0 17 -14.5 28t-55.5 23l-63 19q-73 22 -102 51.5
t-29 81.5q0 70 52.5 112.5t138.5 42.5z" />
    <glyph glyph-name="t" unicode="t" horiz-adv-x="357" 
d="M223 612l-2 -137h97v-96h-99l-3 -183v-30q0 -36 7 -49q10 -19 41 -19q30 0 71 16v-102q-57 -22 -109 -22q-65 0 -103 40q-34 36 -34 117q0 21 1 47l7 185h-74v96h78l3 137h119z" />
    <glyph glyph-name="u" unicode="u" horiz-adv-x="555" 
d="M65 198v277h124v-270q0 -107 80 -107q94 0 94 123v254h123v-361q0 -11 1 -24v-16q0 -26 6 -52q2 -8 6 -22h-117q-7 22 -10 55q-51 -65 -133 -65q-55 0 -98.5 26t-59.5 69.5t-16 112.5z" />
    <glyph glyph-name="v" unicode="v" horiz-adv-x="501" 
d="M180 -3l-169 478h129l110 -341l111 341h127l-172 -478h-136z" />
    <glyph glyph-name="w" unicode="w" horiz-adv-x="749" 
d="M153 -3l-140 478h124l88 -335l99 335h99l98 -335l91 335h123l-143 -478h-131l-90 285l-87 -285h-131z" />
    <glyph glyph-name="x" unicode="x" horiz-adv-x="501" 
d="M176 253l-151 222h147l78 -133l81 133h146l-151 -222l174 -253h-149l-101 157l-100 -157h-149z" />
    <glyph glyph-name="y" unicode="y" horiz-adv-x="499" 
d="M184 -22l-168 497h131l106 -362l109 362h128l-180 -517q-43 -124 -141 -149q-39 -10 -94 -10q-22 0 -47 1v107h23q63 0 90.5 15t42.5 56z" />
    <glyph glyph-name="z" unicode="z" horiz-adv-x="424" 
d="M48 373v102h348v-93l-228 -280h232v-102h-377v94l225 279h-200z" />
    <glyph glyph-name="braceleft" unicode="{" horiz-adv-x="306" 
d="M206 367q0 -56 -11.5 -81.5t-48.5 -49.5q37 -24 48.5 -49.5t11.5 -81.5v-126q0 -57 12 -70t65 -13q9 0 19 1v-95q-20 -2 -46 -2q-129 0 -150 84q-7 28 -7 71v155q0 41 -12 60.5t-42 26.5v78q30 7 42 26.5t12 60.5v155q0 90 37.5 122.5t118.5 32.5q27 0 47 -1v-95h-20
q-53 0 -64.5 -12.5t-11.5 -70.5v-126z" />
    <glyph glyph-name="bar" unicode="|" 
d="M188 -250v1000h124v-1000h-124z" />
    <glyph glyph-name="braceright" unicode="}" horiz-adv-x="306" 
d="M99 105q0 55 12 81t49 50q-37 24 -49 50t-12 81v126q0 58 -11.5 70.5t-64.5 12.5h-20v95q20 1 46 1q69 0 104 -20q42 -25 51 -87q2 -16 2 -48v-155q0 -75 55 -87v-78q-55 -12 -55 -87v-155q0 -90 -36.5 -122.5t-118.5 -32.5q-27 0 -48 2v95q10 -1 20 -1q53 0 64.5 12.5
t11.5 70.5v126z" />
    <glyph glyph-name="asciitilde" unicode="~" horiz-adv-x="667" 
d="M233 625q-25 0 -40.5 -13t-34.5 -49l-68 44q4 8 8 17q30 67 61 93.5t81 26.5q34 0 105 -27q63 -24 88 -24q42 0 73 52l70 -40q-25 -53 -43.5 -76t-48 -39t-65.5 -16q-27 0 -98.5 25.5t-87.5 25.5z" />
    <glyph glyph-name="dagger" unicode="&#x2020;" 
d="M192 467v183h117v-183h140v-94h-140v-504h-117v504h-141v94h141z" />
    <glyph glyph-name="cent" unicode="&#xa2;" horiz-adv-x="570" 
d="M376 428q-7 51 -49 67v-293q47 19 54 79h119q-4 -72 -50.5 -120t-122.5 -59v-91h-61v92q-93 16 -144.5 79.5t-51.5 163.5q0 104 52 170t146 79v74h61v-74q143 -22 171 -167h-124zM268 203v290q-72 -34 -72 -149t72 -141z" />
    <glyph glyph-name="sterling" unicode="&#xa3;" horiz-adv-x="569" 
d="M277 401l-1 -8h154v-89h-171q-11 -86 -35 -142q-12 -28 -33 -62q60 17 107 17q16 0 49 -3t49 -3q44 0 44 83v1h99v-1q0 -3 1 -15v-11q0 -81 -35.5 -127.5t-97.5 -46.5q-30 0 -69 4q-98 10 -150 10q-81 0 -158 -17l-2 -1l1 2q30 36 47 78.5t36 128.5q13 61 18 104h-79v90
h97l1 6l11 57q25 131 80 180q46 41 125 41q162 0 174 -162l1 -14h-108v1q-9 69 -64 69q-70 0 -86 -135l-4 -33z" />
    <glyph glyph-name="section" unicode="&#xa7;" 
d="M419 568q15 -37 16 -89h-95q-13 89 -88 89q-31 0 -50.5 -15t-19.5 -39q0 -33 54 -61l71 -37q100 -52 123 -80q29 -35 29 -83q0 -86 -87 -136q67 -48 67 -125q0 -73 -50.5 -114.5t-139.5 -41.5q-97 0 -150.5 49t-53.5 136v7h99q8 -51 32 -72.5t71 -21.5q79 0 79 60
q0 23 -16.5 39.5t-65.5 40.5l-59 29q-65 32 -104.5 71.5t-39.5 95.5q0 70 85 134q-56 52 -56 111q0 65 51.5 108t127.5 43q61 0 106.5 -26.5t63.5 -71.5zM351 240q0 27 -31.5 53t-111.5 62q-57 -38 -57 -78q0 -30 24 -50.5t116 -65.5q60 41 60 79z" />
    <glyph glyph-name="bullet" unicode="&#x2022;" horiz-adv-x="667" 
d="M196 340q0 58 40.5 99t97.5 41q56 0 96.5 -41t40.5 -99t-40.5 -99t-96.5 -41q-57 0 -97.5 41t-40.5 99z" />
    <glyph glyph-name="paragraph" unicode="&#xb6;" horiz-adv-x="657" 
d="M322 -93h-105v413h-12q-79 0 -128.5 47.5t-49.5 123.5q0 59 29.5 101.5t81 58.5t118.5 16h328v-95h-72v-665h-105v665h-85v-665z" />
    <glyph glyph-name="germandbls" unicode="&#xdf;" horiz-adv-x="544" 
d="M181 0h-124v461q0 130 69 178q57 39 137 39q87 0 142.5 -47t55.5 -120q0 -97 -93 -132q74 -21 108.5 -68t34.5 -120q0 -86 -49.5 -142t-126.5 -56q-45 0 -80 21v107q33 -19 61 -19q69 0 69 82q0 62 -38 98t-103 36q-8 0 -14 -1v107h16q92 0 92 77q0 35 -21.5 56.5
t-56.5 21.5q-49 0 -64 -28.5t-15 -118.5v-432z" />
    <glyph glyph-name="acute" unicode="&#xb4;" 
d="M263 531h-93l128 163h151z" />
    <glyph glyph-name="dieresis" unicode="&#xa8;" 
d="M80 603q0 28 20 47.5t48 19.5t48 -19.5t20 -47.5t-20 -48t-48 -20t-48 20t-20 48zM284 603q0 28 20 47.5t48 19.5t48 -19.5t20 -47.5t-19.5 -48t-48.5 -20q-28 0 -48 20t-20 48z" />
    <glyph glyph-name="AE" unicode="&#xc6;" horiz-adv-x="916" 
d="M11 0l399 667h471v-110h-283v-159h257v-109h-257v-180h291v-109h-421v138h-238l-81 -138h-138zM294 247h174v302z" />
    <glyph glyph-name="Oslash" unicode="&#xd8;" horiz-adv-x="673" 
d="M336 679q113 0 193 -64l43 52h83l-81 -98q64 -88 64 -228q0 -164 -80.5 -259t-220.5 -95q-116 0 -195 65l-43 -52h-81l81 98q-64 87 -64 226q0 165 80.5 260t220.5 95zM188 202l257 328q-43 40 -106 40q-81 0 -125.5 -65t-44.5 -183q0 -66 19 -120zM482 473l-261 -330
q43 -46 114 -46q80 0 124.5 65t44.5 182q0 76 -22 129z" />
    <glyph glyph-name="yen" unicode="&#xa5;" horiz-adv-x="570" 
d="M556 667l-113 -220h86v-76h-125l-35 -68h160v-77h-180v-226h-129v226h-179v77h159l-35 68h-124v76h85l-112 220h143l128 -266l128 266h143z" />
    <glyph glyph-name="ordfeminine" unicode="&#xaa;" 
d="M249 613q-45 0 -51 -38h-75q6 99 132 99q114 0 114 -96v-130q0 -44 11 -64h-73q-4 11 -5 29q-25 -34 -81 -34q-107 0 -107 81q0 76 117 103l62 14v4q0 32 -44 32zM108 274v52h278v-52h-278zM293 504v20q-59 -13 -79 -24t-20 -30q0 -32 43 -32q56 0 56 66z" />
    <glyph glyph-name="ordmasculine" unicode="&#xba;" 
d="M395 526q0 -65 -41 -107t-104 -42t-104 42t-41 107t41 107t104 42t104 -42t41 -107zM111 274v52h278v-52h-278zM185 526q0 -39 18 -63t47 -24t47 24t18 63t-18 63.5t-47 24.5t-47 -24.5t-18 -63.5z" />
    <glyph glyph-name="ae" unicode="&#xe6;" horiz-adv-x="817" 
d="M784 222v-14h-336q1 -58 34 -91t90 -33q66 0 93 55l109 -5q-14 -68 -68 -107.5t-132 -39.5q-134 0 -193 99q-39 -99 -166 -99q-80 0 -127 37t-47 100q0 80 73.5 125t209.5 48v23q0 71 -67 71q-66 0 -81 -68h-119q15 165 206 165q97 0 152 -60q66 60 149 60
q102 0 161 -71.5t59 -194.5zM454 296h200q-17 98 -95 98q-85 0 -105 -98zM324 201v8h-11q-146 0 -146 -75q0 -54 65 -54q92 0 92 121z" />
    <glyph glyph-name="oslash" unicode="&#xf8;" horiz-adv-x="536" 
d="M-2 0l81 83q-46 65 -46 155q0 109 66.5 179.5t167.5 70.5q87 0 151 -55l42 44h78l-82 -84q46 -67 46 -156q0 -109 -66 -179.5t-168 -70.5q-87 0 -151 55l-41 -42h-78zM159 238q0 -32 8 -64l174 180q-30 36 -74 36q-48 0 -78 -42t-30 -110zM377 236q0 31 -9 65l-174 -179
q28 -37 74 -37q48 0 78.5 42t30.5 109z" />
    <glyph glyph-name="questiondown" unicode="&#xbf;" horiz-adv-x="417" 
d="M299 400q0 -32 -22.5 -54t-54.5 -22q-31 0 -53.5 22.5t-22.5 53.5t22.5 53.5t53.5 22.5q32 0 54.5 -22t22.5 -54zM167 252h113v-12q0 -77 -10 -104.5t-54 -75.5q-31 -33 -37 -42q-18 -26 -18 -52q0 -54 58 -54q65 0 70 81h97q-2 -54 -12 -83q-13 -40 -48 -67
q-49 -38 -124 -38q-79 0 -125 40.5t-46 111.5q0 41 15 69t66 84q40 44 47.5 62t7.5 58v22z" />
    <glyph glyph-name="exclamdown" unicode="&#xa1;" horiz-adv-x="252" 
d="M179 247l13 -429h-132l14 429h105zM203 400q0 -31 -22.5 -53.5t-54.5 -22.5t-54.5 22t-22.5 54q0 31 22.5 53.5t54.5 22.5t54.5 -22.5t22.5 -53.5z" />
    <glyph glyph-name="florin" unicode="&#x192;" horiz-adv-x="570" 
d="M405 504l-5 -28h112v-88h-128l-53 -302q-20 -109 -52 -156q-42 -61 -120 -61q-68 0 -143 46l17 95q71 -39 114 -39q30 0 43.5 30.5t33.5 144.5l43 242h-97v88h112l9 47q24 124 62 161t102 37q54 0 115 -34l-17 -92l-5 2q-53 23 -78 23q-27 0 -39.5 -23t-25.5 -93z" />
    <glyph glyph-name="guillemotleft" unicode="&#xab;" horiz-adv-x="489" 
d="M338 232l91 -232h-105l-108 232l108 246h105zM150 232l90 -232h-104l-109 232l109 246h104z" />
    <glyph glyph-name="guillemotright" unicode="&#xbb;" horiz-adv-x="489" 
d="M150 246l-90 232h104l109 -232l-109 -246h-104zM339 246l-90 232h104l109 -232l-109 -246h-104z" />
    <glyph glyph-name="ellipsis" unicode="&#x2026;" horiz-adv-x="714" 
d="M49 69q0 31 22.5 53t54.5 22q31 0 53.5 -22t22.5 -53t-22 -53.5t-54 -22.5t-54.5 22t-22.5 54zM280 69q0 31 22.5 53t54.5 22t54.5 -22t22.5 -53t-22.5 -53.5t-54.5 -22.5t-54.5 22.5t-22.5 53.5zM511 69q0 31 22.5 53t54.5 22t54.5 -22t22.5 -53q0 -32 -22.5 -54
t-54.5 -22t-54.5 22.5t-22.5 53.5z" />
    <glyph glyph-name="OE" unicode="&#x152;" horiz-adv-x="963" 
d="M338 679q107 0 168 -58v46h420v-110h-293v-157h266v-109h-266v-182h304v-109h-431v46q-63 -59 -169 -59q-141 0 -221.5 91.5t-80.5 252.5q0 163 80.5 255.5t222.5 92.5zM338 570q-81 0 -125 -62t-44 -175t43.5 -174.5t123.5 -61.5t125 62.5t45 173.5q0 110 -44.5 173.5
t-123.5 63.5z" />
    <glyph glyph-name="oe" unicode="&#x153;" horiz-adv-x="858" 
d="M825 230v-9q-1 -8 -1 -13h-334q3 -124 121 -124q75 0 95 55l109 -5q-15 -68 -69.5 -107.5t-132.5 -39.5q-109 0 -178 78q-68 -79 -163 -79q-106 0 -172.5 70.5t-66.5 182.5q0 110 66.5 179.5t171.5 69.5q109 0 165 -81q70 81 170 81q102 0 160.5 -68.5t58.5 -189.5z
M496 293h205q-15 101 -100 101q-87 0 -105 -101zM377 237q0 68 -30.5 111t-79.5 43q-47 0 -77.5 -43t-30.5 -110q0 -68 30 -111t79 -43t79 42.5t30 110.5z" />
    <glyph glyph-name="endash" unicode="&#x2013;" horiz-adv-x="570" 
d="M48 286v94h475v-94h-475z" />
    <glyph glyph-name="emdash" unicode="&#x2014;" horiz-adv-x="633" 
d="M0 208v89h633v-89h-633z" />
    <glyph glyph-name="quotedblleft" unicode="&#x201c;" horiz-adv-x="379" 
d="M210 527q0 68 69 152h57q-46 -56 -49 -115q65 -9 65 -61q0 -28 -20 -47t-49 -19q-33 0 -53 24.5t-20 65.5zM38 527q0 70 69 152h57q-46 -55 -49 -115q65 -9 65 -61q0 -28 -20 -47t-49 -19q-33 0 -53 24.5t-20 65.5z" />
    <glyph glyph-name="quotedblright" unicode="&#x201d;" horiz-adv-x="379" 
d="M169 589q0 -68 -69 -152h-57q46 56 49 115q-65 9 -65 61q0 28 20 47t49 19q33 0 53 -24.5t20 -65.5zM341 589q0 -68 -69 -152h-57q46 56 49 115q-65 9 -65 61q0 28 20 47t49 19q33 0 53 -24.5t20 -65.5z" />
    <glyph glyph-name="quoteleft" unicode="&#x2018;" horiz-adv-x="207" 
d="M38 527q0 70 69 152h57q-46 -55 -49 -115q65 -9 65 -61q0 -28 -20 -47t-49 -19q-33 0 -53 24.5t-20 65.5z" />
    <glyph glyph-name="quoteright" unicode="&#x2019;" horiz-adv-x="207" 
d="M169 589q0 -68 -69 -152h-57q46 56 49 115q-65 9 -65 61q0 28 20 47t49 19q33 0 53 -24.5t20 -65.5z" />
    <glyph glyph-name="fraction" unicode="&#x2044;" horiz-adv-x="136" 
d="M-169 0l376 650h98l-376 -650h-98z" />
    <glyph glyph-name="currency" unicode="&#xa4;" horiz-adv-x="667" 
d="M91 69l-67 67l102 102q-45 65 -45 138q0 71 46 137l-104 103l68 68l102 -103q68 44 141 44t138 -43l102 101l67 -67l-102 -101q47 -72 47 -140q0 -71 -45 -137l102 -102l-66 -67l-102 102q-66 -46 -142 -46q-69 0 -140 45zM473 375q0 58 -40.5 99t-98.5 41t-99 -41
t-41 -99t41 -98.5t99 -40.5t98.5 40.5t40.5 98.5z" />
    <glyph glyph-name="guilsinglleft" unicode="&#x2039;" horiz-adv-x="304" 
d="M153 232l91 -232h-108l-109 232l109 246h108z" />
    <glyph glyph-name="guilsinglright" unicode="&#x203a;" horiz-adv-x="304" 
d="M150 246l-90 232h108l109 -232l-109 -246h-108z" />
    <glyph glyph-name="fi" unicode="&#xf001;" horiz-adv-x="564" 
d="M202 487v-12h112v-96h-112v-379h-123v379h-63v96h63v30q0 67 13 103t47.5 57.5t86.5 21.5q53 0 109 -22v-99q-52 16 -81 16q-37 0 -47 -31q-5 -15 -5 -64zM373 0v475h123v-475h-123zM363 607q0 32 20 52.5t52 20.5t51.5 -19.5t19.5 -52.5q0 -32 -19.5 -51.5t-52.5 -19.5
q-71 0 -71 70z" />
    <glyph glyph-name="fl" unicode="&#xf002;" horiz-adv-x="564" 
d="M202 487v-12h112v-96h-112v-379h-123v379h-63v96h63v30q0 67 13 103t47.5 57.5t86.5 21.5q53 0 109 -22v-99q-52 16 -81 16q-37 0 -47 -31q-5 -15 -5 -64zM372 0v671h124v-671h-124z" />
    <glyph glyph-name="daggerdbl" unicode="&#x2021;" 
d="M191 558v92h116v-92h143v-95h-143v-379h143v-96h-143v-119h-116v119h-141v96h141v379h-141v95h141z" />
    <glyph glyph-name="periodcentered" unicode="&#xb7;" horiz-adv-x="173" 
d="M0 342q0 35 25.5 60t61.5 25t61 -25t25 -60q0 -36 -25.5 -61t-60.5 -25q-36 0 -61.5 25t-25.5 61z" />
    <glyph glyph-name="periodcentered" unicode="&#x2219;" horiz-adv-x="173" 
d="M0 342q0 35 25.5 60t61.5 25t61 -25t25 -60q0 -36 -25.5 -61t-60.5 -25q-36 0 -61.5 25t-25.5 61z" />
    <glyph glyph-name="quotesinglbase" unicode="&#x201a;" horiz-adv-x="207" 
d="M169 40q0 -69 -69 -153h-57q46 58 49 115q-65 9 -65 61q0 28 20 47.5t49 19.5q33 0 53 -24.5t20 -65.5z" />
    <glyph glyph-name="quotedblbase" unicode="&#x201e;" horiz-adv-x="379" 
d="M169 40q0 -69 -69 -153h-57q46 58 49 115q-65 9 -65 61q0 28 20 47.5t49 19.5q33 0 53 -24.5t20 -65.5zM341 40q0 -69 -69 -153h-57q46 58 49 115q-65 9 -65 61q0 28 20 47.5t49 19.5q33 0 53 -24.5t20 -65.5z" />
    <glyph glyph-name="perthousand" unicode="&#x2030;" horiz-adv-x="1046" 
d="M113 0l387 667h98l-386 -667h-99zM681 156q0 -67 -41 -114t-100 -47t-100 46.5t-41 114.5t41 114.5t100 46.5t100 -47t41 -114zM1014 156q0 -68 -41 -114.5t-100 -46.5t-100 46.5t-41 114.5t41 114.5t100 46.5t100 -46.5t41 -114.5zM314 511q0 -68 -41 -115t-100 -47
t-100 47t-41 115q0 67 41.5 114t99.5 47q59 0 100 -47t41 -114zM603 156q0 42 -17.5 67.5t-45.5 25.5t-45.5 -25.5t-17.5 -67.5t17.5 -67.5t45.5 -25.5t45.5 26t17.5 67zM936 156q0 42 -17.5 67.5t-45.5 25.5t-45.5 -25.5t-17.5 -67.5t17.5 -67.5t45.5 -25.5t45.5 26
t17.5 67zM236 511q0 41 -17.5 66.5t-45.5 25.5t-45.5 -25.5t-17.5 -67.5q0 -41 17.5 -66.5t45.5 -25.5t45.5 25.5t17.5 67.5z" />
    <glyph glyph-name="dotlessi" unicode="&#x131;" horiz-adv-x="261" 
d="M69 0v475h123v-475h-123z" />
    <glyph glyph-name="circumflex" unicode="&#x2c6;" 
d="M192 541h-112l120 152h99l121 -152h-111l-59 86z" />
    <glyph glyph-name="tilde" unicode="&#x2dc;" 
d="M188 590q-28 0 -42 -37l-51 14q27 106 88 106q22 0 68 -16t59 -16q26 0 49 41l46 -13q-23 -111 -89 -111q-25 0 -68 15q-49 17 -60 17z" />
    <glyph glyph-name="macron" unicode="&#xaf;" 
d="M106 559v73h288v-73h-288z" />
    <glyph glyph-name="macron" unicode="&#x2c9;" 
d="M106 559v73h288v-73h-288z" />
    <glyph glyph-name="breve" unicode="&#x2d8;" 
d="M254 539q-58 0 -95 38.5t-44 105.5h51q32 -69 86 -69q50 0 82 69h51q-17 -144 -131 -144z" />
    <glyph glyph-name="dotaccent" unicode="&#x2d9;" 
d="M182 603q0 28 20 47.5t48 19.5t48 -19.5t20 -47.5t-20 -48t-48 -20t-48 20t-20 48z" />
    <glyph glyph-name="ring" unicode="&#x2da;" 
d="M151 622q0 41 29 70t70 29t70 -29t29 -70t-29 -70t-70 -29t-70 29t-29 70zM299 622q0 20 -14.5 34.5t-34.5 14.5t-34.5 -14.5t-14.5 -34.5t14.5 -34t34.5 -14t34.5 14t14.5 34z" />
    <glyph glyph-name="cedilla" unicode="&#xb8;" 
d="M226 -77l23 77h66l-14 -44q91 -20 91 -93q0 -43 -30 -72t-74 -29t-86 29v48q39 -21 66 -21q49 0 49 53q0 25 -17 41t-44 16q-12 0 -30 -5z" />
    <glyph glyph-name="hungarumlaut" unicode="&#x2dd;" 
d="M207 531h-81l105 163h135zM380 531h-82l105 163h135z" />
    <glyph glyph-name="ogonek" unicode="&#x2db;" 
d="M175 -106q0 65 86 106h94q-99 -66 -99 -105t47 -39q23 0 47 10v-52q-32 -16 -66 -16q-49 0 -79 26t-30 70z" />
    <glyph glyph-name="caron" unicode="&#x2c7;" 
d="M308 693h112l-120 -152h-99l-121 152h111l59 -86z" />
    <glyph glyph-name="Adieresis" unicode="&#xc4;" horiz-adv-x="602" 
d="M10 0l225 667h130l227 -667h-133l-41 139h-235l-42 -139h-131zM134 797q0 31 21.5 52.5t52.5 21.5t52 -21.5t21 -52.5q0 -30 -21.5 -51.5t-51.5 -21.5q-31 0 -52.5 21.5t-21.5 51.5zM320 797q0 31 21.5 52.5t52.5 21.5t52.5 -21.5t21.5 -52.5t-21.5 -52t-52.5 -21
t-52.5 21.5t-21.5 51.5zM215 248h171l-86 272z" />
    <glyph glyph-name="Aring" unicode="&#xc5;" horiz-adv-x="602" 
d="M10 0l225 667h130l227 -667h-133l-41 139h-235l-42 -139h-131zM202 806q0 41 29 70t70 29t70 -29t29 -70t-29 -70.5t-70 -29.5t-70 29.5t-29 70.5zM215 248h171l-86 272zM350 806q0 20 -14.5 34t-34.5 14t-34.5 -14t-14.5 -34t14.5 -34.5t34.5 -14.5t34.5 14.5t14.5 34.5
z" />
    <glyph glyph-name="Ccedilla" unicode="&#xc7;" horiz-adv-x="599" 
d="M363 -12l-13 -39q106 -22 106 -108q0 -50 -35 -84.5t-87 -34.5q-50 0 -99 35v55q45 -24 77 -24q25 0 41 17t16 45q0 29 -20 47.5t-52 18.5q-15 0 -35 -5l25 80q-120 20 -186 109.5t-66 231.5q0 157 81.5 252t215.5 95q104 0 164.5 -59.5t67.5 -169.5h-110
q-20 119 -124 119q-74 0 -117.5 -64t-43.5 -173t43.5 -171.5t118.5 -62.5q115 0 127 149h115q-6 -121 -58.5 -184.5t-151.5 -74.5z" />
    <glyph glyph-name="Eacute" unicode="&#xc9;" horiz-adv-x="537" 
d="M208 557v-157h265v-109h-265v-182h302v-109h-430v667h419v-110h-291zM325 716h-115l166 163h152z" />
    <glyph glyph-name="Ntilde" unicode="&#xd1;" horiz-adv-x="689" 
d="M80 0v667h136l272 -470v470h121v-667h-128l-279 469v-469h-122zM282 770q-30 0 -46 -37l-57 14q32 106 98 106q25 0 75 -16t66 -16q30 0 54 41l52 -13q-11 -50 -38.5 -80.5t-61.5 -30.5q-27 0 -75 15q-55 17 -67 17z" />
    <glyph glyph-name="Odieresis" unicode="&#xd6;" horiz-adv-x="673" 
d="M337 -13q-137 0 -219.5 94.5t-82.5 251.5t82.5 251.5t219.5 94.5q136 0 218.5 -94.5t82.5 -251.5q0 -156 -82.5 -251t-218.5 -95zM170 797q0 31 21.5 52.5t51.5 21.5q31 0 52.5 -21.5t21.5 -52.5t-21.5 -52t-52.5 -21q-30 0 -51.5 21.5t-21.5 51.5zM356 797
q0 31 21.5 52.5t52.5 21.5q30 0 51.5 -21.5t21.5 -52.5t-21.5 -52t-51.5 -21q-31 0 -52.5 21.5t-21.5 51.5zM337 570q-79 0 -123.5 -63t-44.5 -174q0 -110 44.5 -173t123.5 -63q78 0 122.5 63t44.5 173q0 111 -44.5 174t-122.5 63z" />
    <glyph glyph-name="Udieresis" unicode="&#xdc;" horiz-adv-x="675" 
d="M73 282v385h129v-383q0 -100 22 -134q33 -52 113 -52q122 0 133 114q3 31 3 72v383h128v-385q0 -118 -26 -171q-29 -59 -91.5 -91.5t-146.5 -32.5q-177 0 -238 124q-26 52 -26 171zM171 797q0 31 21.5 52.5t51.5 21.5q31 0 52.5 -21.5t21.5 -52.5t-21.5 -52t-52.5 -21
q-30 0 -51.5 21.5t-21.5 51.5zM357 797q0 31 21.5 52.5t51.5 21.5q31 0 52.5 -21.5t21.5 -52.5t-21.5 -52t-52.5 -21q-30 0 -51.5 21.5t-21.5 51.5z" />
    <glyph glyph-name="aacute" unicode="&#xe1;" horiz-adv-x="512" 
d="M256 388q-71 0 -81 -55h-117q10 87 74 122q55 30 133 30q128 0 163 -70q19 -39 19 -118v-191q0 -75 16 -106h-112q-7 29 -7 44q0 1 1 5v5q-39 -64 -131 -64q-82 0 -127.5 35.5t-45.5 99.5q0 102 108 142q42 16 82 24q18 2 79 14l18 4v7q0 39 -16.5 55.5t-55.5 16.5z
M297 531h-93l128 163h151zM328 200v27q-92 -12 -126.5 -30.5t-34.5 -55.5q0 -25 20.5 -41t51.5 -16q48 0 68.5 26.5t20.5 89.5z" />
    <glyph glyph-name="agrave" unicode="&#xe0;" horiz-adv-x="512" 
d="M256 388q-71 0 -81 -55h-117q10 87 74 122q55 30 133 30q128 0 163 -70q19 -39 19 -118v-191q0 -75 16 -106h-112q-7 29 -7 44q0 1 1 5v5q-39 -64 -131 -64q-82 0 -127.5 35.5t-45.5 99.5q0 102 108 142q42 16 82 24q18 2 79 14l18 4v7q0 39 -16.5 55.5t-55.5 16.5z
M220 694l127 -163h-93l-186 163h152zM328 200v27q-92 -12 -126.5 -30.5t-34.5 -55.5q0 -25 20.5 -41t51.5 -16q48 0 68.5 26.5t20.5 89.5z" />
    <glyph glyph-name="acircumflex" unicode="&#xe2;" horiz-adv-x="512" 
d="M256 388q-71 0 -81 -55h-117q10 87 74 122q55 30 133 30q128 0 163 -70q19 -39 19 -118v-191q0 -75 16 -106h-112q-7 29 -7 44q0 1 1 5v5q-39 -64 -131 -64q-82 0 -127.5 35.5t-45.5 99.5q0 102 108 142q42 16 82 24q18 2 79 14l18 4v7q0 39 -16.5 55.5t-55.5 16.5z
M208 541h-112l121 152h99l121 -152h-111l-60 86zM328 200v27q-92 -12 -126.5 -30.5t-34.5 -55.5q0 -25 20.5 -41t51.5 -16q48 0 68.5 26.5t20.5 89.5z" />
    <glyph glyph-name="adieresis" unicode="&#xe4;" horiz-adv-x="512" 
d="M256 388q-71 0 -81 -55h-117q10 87 74 122q55 30 133 30q128 0 163 -70q19 -39 19 -118v-191q0 -75 16 -106h-112q-7 29 -7 44q0 1 1 5v5q-39 -64 -131 -64q-82 0 -127.5 35.5t-45.5 99.5q0 102 108 142q42 16 82 24q18 2 79 14l18 4v7q0 39 -16.5 55.5t-55.5 16.5z
M86 603q0 28 20 47.5t48 19.5t48 -19.5t20 -47.5t-20 -48t-48 -20t-48 20t-20 48zM290 603q0 28 20 47.5t48 19.5t48 -19.5t20 -47.5t-19.5 -48t-48.5 -20q-28 0 -48 20t-20 48zM328 200v27q-92 -12 -126.5 -30.5t-34.5 -55.5q0 -25 20.5 -41t51.5 -16q48 0 68.5 26.5
t20.5 89.5z" />
    <glyph glyph-name="atilde" unicode="&#xe3;" horiz-adv-x="512" 
d="M256 388q-71 0 -81 -55h-117q10 87 74 122q55 30 133 30q128 0 163 -70q19 -39 19 -118v-191q0 -75 16 -106h-112q-7 29 -7 44q0 1 1 5v5q-39 -64 -131 -64q-82 0 -127.5 35.5t-45.5 99.5q0 102 108 142q42 16 82 24q18 2 79 14l18 4v7q0 39 -16.5 55.5t-55.5 16.5z
M194 590q-28 0 -41 -37l-52 14q28 106 88 106q22 0 68 -16t59 -16q26 0 49 41l46 -13q-23 -111 -89 -111q-25 0 -68 15q-49 17 -60 17zM328 200v27q-92 -12 -126.5 -30.5t-34.5 -55.5q0 -25 20.5 -41t51.5 -16q48 0 68.5 26.5t20.5 89.5z" />
    <glyph glyph-name="aring" unicode="&#xe5;" horiz-adv-x="512" 
d="M256 388q-71 0 -81 -55h-117q10 87 74 122q55 30 133 30q128 0 163 -70q19 -39 19 -118v-191q0 -75 16 -106h-112q-7 29 -7 44q0 1 1 5v5q-39 -64 -131 -64q-82 0 -127.5 35.5t-45.5 99.5q0 102 108 142q42 16 82 24q18 2 79 14l18 4v7q0 39 -16.5 55.5t-55.5 16.5z
M173 622q0 41 29 70t70 29t70 -29t29 -70t-29 -70t-70 -29t-70 29t-29 70zM328 200v27q-92 -12 -126.5 -30.5t-34.5 -55.5q0 -25 20.5 -41t51.5 -16q48 0 68.5 26.5t20.5 89.5zM321 622q0 20 -14.5 34.5t-34.5 14.5t-34.5 -14.5t-14.5 -34.5t14.5 -34t34.5 -14t34.5 14
t14.5 34z" />
    <glyph glyph-name="ccedilla" unicode="&#xe7;" horiz-adv-x="497" 
d="M335 -1q-22 -7 -50 -10l-11 -33q91 -20 91 -93q0 -43 -30 -72t-74 -29t-85 29v48q39 -21 65 -21q49 0 49 53q0 25 -17 41t-44 16q-12 0 -30 -5l21 69q-87 15 -137 80.5t-50 164.5q0 113 63.5 182t167.5 69q84 0 135 -44.5t61 -126.5h-120q-12 73 -77 73
q-47 0 -75.5 -41.5t-28.5 -111.5q0 -71 27 -111.5t75 -40.5q72 0 84 84h118q-3 -59 -38 -105.5t-90 -64.5z" />
    <glyph glyph-name="eacute" unicode="&#xe9;" horiz-adv-x="515" 
d="M482 231v-10q-1 -7 -1 -13h-325q8 -123 116 -123q66 0 92 53l108 -4q-16 -68 -70.5 -107.5t-133.5 -39.5q-108 0 -171.5 66t-63.5 179q0 115 64 185.5t168 70.5q101 0 159 -69t58 -188zM300 531h-92l127 163h152zM160 297h198q-15 96 -95 96t-103 -96z" />
    <glyph glyph-name="egrave" unicode="&#xe8;" horiz-adv-x="515" 
d="M482 231v-10q-1 -7 -1 -13h-325q8 -123 116 -123q66 0 92 53l108 -4q-16 -68 -70.5 -107.5t-133.5 -39.5q-108 0 -171.5 66t-63.5 179q0 115 64 185.5t168 70.5q101 0 159 -69t58 -188zM204 694l128 -163h-93l-186 163h151zM160 297h198q-15 96 -95 96t-103 -96z" />
    <glyph glyph-name="ecircumflex" unicode="&#xea;" horiz-adv-x="515" 
d="M482 231v-10q-1 -7 -1 -13h-325q8 -123 116 -123q66 0 92 53l108 -4q-16 -68 -70.5 -107.5t-133.5 -39.5q-108 0 -171.5 66t-63.5 179q0 115 64 185.5t168 70.5q101 0 159 -69t58 -188zM199 541h-112l121 152h99l121 -152h-111l-59 86zM160 297h198q-15 96 -95 96
t-103 -96z" />
    <glyph glyph-name="edieresis" unicode="&#xeb;" horiz-adv-x="515" 
d="M482 231v-10q-1 -7 -1 -13h-325q8 -123 116 -123q66 0 92 53l108 -4q-16 -68 -70.5 -107.5t-133.5 -39.5q-108 0 -171.5 66t-63.5 179q0 115 64 185.5t168 70.5q101 0 159 -69t58 -188zM88 603q0 28 20 47.5t48 19.5t48 -19.5t20 -47.5t-20 -48t-48 -20t-48 20t-20 48z
M292 603q0 28 20 47.5t48 19.5t48 -19.5t20 -47.5t-19.5 -48t-48.5 -20q-28 0 -48 20t-20 48zM160 297h198q-15 96 -95 96t-103 -96z" />
    <glyph glyph-name="iacute" unicode="&#xed;" horiz-adv-x="261" 
d="M69 0v475h123v-475h-123zM166 531h-93l127 163h152z" />
    <glyph glyph-name="igrave" unicode="&#xec;" horiz-adv-x="261" 
d="M69 0v475h123v-475h-123zM66 694l127 -163h-92l-186 163h151z" />
    <glyph glyph-name="icircumflex" unicode="&#xee;" horiz-adv-x="261" 
d="M69 0v475h123v-475h-123zM72 541h-112l121 152h99l121 -152h-111l-59 86z" />
    <glyph glyph-name="idieresis" unicode="&#xef;" horiz-adv-x="261" 
d="M69 0v475h123v-475h-123zM-17 603q0 27 19 46t46 19t46 -19t19 -46t-19 -46t-46 -19t-46 19t-19 46zM147 603q0 27 19.5 46t46.5 19q26 0 45.5 -19t19.5 -46t-19.5 -46t-45.5 -19q-27 0 -46.5 19t-19.5 46z" />
    <glyph glyph-name="ntilde" unicode="&#xf1;" horiz-adv-x="548" 
d="M69 343q0 84 -15 132h119q10 -22 10 -61q53 71 141 71q97 0 136 -69q14 -25 18 -50.5t4 -91.5v-274h-123v247q0 72 -17 101t-60 29q-90 0 -90 -134v-243h-123v343zM206 590q-28 0 -41 -37l-52 14q28 106 88 106q22 0 68 -16t59 -16q26 0 49 41l46 -13q-23 -111 -89 -111
q-25 0 -68 15q-49 17 -60 17z" />
    <glyph glyph-name="oacute" unicode="&#xf3;" horiz-adv-x="536" 
d="M268 -13q-103 0 -169 70.5t-66 179.5q0 110 66 180.5t169 70.5q102 0 168 -71t66 -180t-66 -179.5t-168 -70.5zM303 531h-93l127 163h152zM268 390q-49 0 -79 -42.5t-30 -110.5t30 -110t79 -42q48 0 78.5 42.5t30.5 109.5q0 68 -30.5 110.5t-78.5 42.5z" />
    <glyph glyph-name="ograve" unicode="&#xf2;" horiz-adv-x="536" 
d="M268 -13q-103 0 -169 70.5t-66 179.5q0 110 66 180.5t169 70.5q102 0 168 -71t66 -180t-66 -179.5t-168 -70.5zM209 694l128 -163h-93l-186 163h151zM268 390q-49 0 -79 -42.5t-30 -110.5t30 -110t79 -42q48 0 78.5 42.5t30.5 109.5q0 68 -30.5 110.5t-78.5 42.5z" />
    <glyph glyph-name="ocircumflex" unicode="&#xf4;" horiz-adv-x="536" 
d="M268 -13q-103 0 -169 70.5t-66 179.5q0 110 66 180.5t169 70.5q102 0 168 -71t66 -180t-66 -179.5t-168 -70.5zM209 541h-112l121 152h99l121 -152h-111l-59 86zM268 390q-49 0 -79 -42.5t-30 -110.5t30 -110t79 -42q48 0 78.5 42.5t30.5 109.5q0 68 -30.5 110.5
t-78.5 42.5z" />
    <glyph glyph-name="odieresis" unicode="&#xf6;" horiz-adv-x="536" 
d="M268 -13q-103 0 -169 70.5t-66 179.5q0 110 66 180.5t169 70.5q102 0 168 -71t66 -180t-66 -179.5t-168 -70.5zM98 603q0 28 20 47.5t48 19.5t47.5 -19.5t19.5 -47.5t-19.5 -48t-47.5 -20t-48 20t-20 48zM302 603q0 28 20 47.5t48 19.5t48 -19.5t20 -47.5t-20 -48
t-48 -20t-48 20t-20 48zM268 389q-49 0 -79 -42t-30 -110t30 -110t79 -42q48 0 78.5 42.5t30.5 109.5q0 68 -30.5 110t-78.5 42z" />
    <glyph glyph-name="otilde" unicode="&#xf5;" horiz-adv-x="536" 
d="M268 -13q-103 0 -169 70.5t-66 179.5q0 110 66 180.5t169 70.5q102 0 168 -71t66 -180t-66 -179.5t-168 -70.5zM206 590q-28 0 -42 -37l-51 14q27 106 88 106q22 0 68 -16t59 -16q26 0 49 41l46 -13q-23 -111 -90 -111q-24 0 -67 15q-49 17 -60 17zM268 390
q-49 0 -79 -42.5t-30 -110.5t30 -110t79 -42q48 0 78.5 42.5t30.5 109.5q0 68 -30.5 110.5t-78.5 42.5z" />
    <glyph glyph-name="uacute" unicode="&#xfa;" horiz-adv-x="555" 
d="M65 198v277h124v-270q0 -107 80 -107q94 0 94 123v254h123v-361q0 -11 1 -24v-16q0 -26 6 -52q2 -8 6 -22h-117q-7 22 -10 55q-51 -65 -133 -65q-55 0 -98.5 26t-59.5 69.5t-16 112.5zM317 531h-92l127 163h152z" />
    <glyph glyph-name="ugrave" unicode="&#xf9;" horiz-adv-x="555" 
d="M65 198v277h124v-270q0 -107 80 -107q94 0 94 123v254h123v-361q0 -11 1 -24v-16q0 -26 6 -52q2 -8 6 -22h-117q-7 22 -10 55q-51 -65 -133 -65q-55 0 -98.5 26t-59.5 69.5t-16 112.5zM246 694l127 -163h-93l-186 163h152z" />
    <glyph glyph-name="ucircumflex" unicode="&#xfb;" horiz-adv-x="555" 
d="M65 199v277h124v-271q0 -106 80 -106q94 0 94 123v254h123v-362q0 -10 1 -23v-16q0 -27 6 -52q2 -10 6 -22h-117q-7 20 -10 54q-51 -64 -133 -64q-55 0 -98.5 26t-59.5 69.5t-16 112.5zM224 541h-112l121 152h99l121 -152h-111l-60 86z" />
    <glyph glyph-name="udieresis" unicode="&#xfc;" horiz-adv-x="555" 
d="M65 198v277h124v-270q0 -107 80 -107q94 0 94 123v254h123v-361q0 -11 1 -24v-16q0 -26 6 -52q2 -8 6 -22h-117q-7 22 -10 55q-51 -65 -133 -65q-55 0 -98.5 26t-59.5 69.5t-16 112.5zM106 603q0 28 20 47.5t48 19.5t48 -19.5t20 -47.5t-19.5 -48t-48.5 -20q-28 0 -48 20
t-20 48zM310 603q0 28 20 47.5t48 19.5t48 -19.5t20 -47.5t-19.5 -48t-48.5 -20q-28 0 -48 20t-20 48z" />
    <glyph glyph-name="degree" unicode="&#xb0;" 
d="M250 379q-63 0 -108 44.5t-45 106.5q0 61 45 105t108 44t108 -43.5t45 -105.5t-45 -106.5t-108 -44.5zM250 607q-32 0 -55.5 -23t-23.5 -54q0 -32 23.5 -55t55.5 -23t55.5 23t23.5 54q0 32 -23.5 55t-55.5 23z" />
    <glyph glyph-name="registered" unicode="&#xae;" 
d="M61 557q0 83 58.5 141t140.5 58t140 -58t58 -141q0 -82 -58 -140.5t-140 -58.5t-140.5 58.5t-58.5 140.5zM410 557q0 63 -44 107.5t-106 44.5t-106.5 -44.5t-44.5 -107.5t44.5 -108t106.5 -45t106 45t44 108zM181 447v220h54q59 0 83.5 -16t24.5 -53q0 -43 -40 -61
l43 -90h-58l-36 82h-22v-82h-49zM230 626v-57h18q44 0 44 29q0 20 -20 26q-9 2 -37 2h-5z" />
    <glyph glyph-name="copyright" unicode="&#xa9;" horiz-adv-x="750" 
d="M29 333q0 143 101.5 244.5t244.5 101.5t244.5 -101t101.5 -245q0 -143 -101.5 -244.5t-244.5 -101.5t-244.5 101.5t-101.5 244.5zM659 333q0 121 -83 206t-201 85t-201 -85t-83 -206q0 -120 83 -205t201 -85t201 85t83 205zM390 546q69 0 110 -38t42 -102h-73
q-12 71 -77 71q-46 0 -73.5 -37.5t-27.5 -101.5q0 -63 27.5 -100t74.5 -37q74 0 77 89h76q0 -73 -41 -116t-112 -43q-86 0 -137.5 56t-51.5 150t51 151.5t135 57.5z" />
    <glyph glyph-name="trademark" unicode="&#x2122;" horiz-adv-x="828" 
d="M5 598v69h302v-69h-109v-331h-84v331h-109zM347 267v400h115l108 -311l109 311h114v-400h-75v299l-105 -299h-86l-104 299v-299h-76z" />
    <glyph glyph-name="notequal" unicode="&#x2260;" 
d="M33 485h230l54 108l79 -39l-35 -69h106v-111h-156l-35 -69h191v-111h-242l-49 -98l-78 40l29 58h-94v111h144l36 69h-180v111z" />
    <glyph glyph-name="infinity" unicode="&#x221e;" horiz-adv-x="667" 
d="M489 178q-84 0 -153 82q-72 -82 -158 -82q-71 0 -116 45.5t-45 116.5t45.5 116.5t115.5 45.5q82 0 153 -81q67 81 156 81q72 0 117.5 -45.5t45.5 -116.5t-45.5 -116.5t-115.5 -45.5zM470 397q-37 0 -76 -57q38 -58 77 -58q24 0 40.5 17t16.5 41t-16.5 40.5t-41.5 16.5z
M196 282q38 0 76 58q-38 57 -76 57q-24 0 -41 -16.5t-17 -40.5t17 -41t41 -17z" />
    <glyph glyph-name="plusminus" unicode="&#xb1;" horiz-adv-x="570" 
d="M334 599v-197h189v-93h-189v-162h-98v162h-188v93h188v197h98zM48 0v94h475v-94h-475z" />
    <glyph glyph-name="lessequal" unicode="&#x2264;" 
d="M33 456l434 206v-116l-303 -140l303 -139v-117l-434 203v103zM33 122h434v-115h-434v115z" />
    <glyph glyph-name="greaterequal" unicode="&#x2265;" 
d="M467 352l-434 -202v117l303 140l-303 139v116l434 -206v-104zM467 7h-434v115h434v-115z" />
    <glyph glyph-name="mu" unicode="&#xb5;" 
d="M151 -173h-123v653h123v-256q0 -142 101 -142q97 0 97 146v252h123v-480h-123v59q-34 -69 -100 -69q-61 0 -98 62v-225z" />
    <glyph glyph-name="mu" unicode="&#x3bc;" 
d="M151 -173h-123v653h123v-256q0 -142 101 -142q97 0 97 146v252h123v-480h-123v59q-34 -69 -100 -69q-61 0 -98 62v-225z" />
    <glyph glyph-name="partialdiff" unicode="&#x2202;" 
d="M231 511q-68 37 -166 47l16 107q181 -21 277 -106q124 -110 124 -293q0 -125 -63.5 -200t-170.5 -75q-96 0 -163.5 66.5t-67.5 161.5q0 91 59.5 152t147.5 61q76 0 125 -48q-39 84 -118 127zM248 342h-9q-43 -4 -69.5 -40t-26.5 -87q0 -56 30.5 -94t75.5 -38q46 0 76 38
t30 94t-30 91.5t-77 35.5z" />
    <glyph glyph-name="summation" unicode="&#x2211;" horiz-adv-x="667" 
d="M21 750h596v-249h-110l-13 134h-333l249 -368l-249 -402h342l8 132h116v-247h-606v128l245 389l-245 355v128z" />
    <glyph glyph-name="product" unicode="&#x220f;" horiz-adv-x="729" 
d="M40 635v115h650v-115h-84v-770h84v-115h-287v115h80v770h-237v-770h79v-115h-285v115h82v770h-82z" />
    <glyph glyph-name="pi" unicode="&#x3c0;" horiz-adv-x="657" 
d="M237 0h-124v369h-76v111h583v-111h-75v-369h-124v369h-184v-369z" />
    <glyph glyph-name="integral" unicode="&#x222b;" 
d="M142 -250q-40 0 -89 10l23 110q34 -9 55 -9q34 0 45.5 18t11.5 70v535q0 111 5.5 145.5t28.5 63.5q45 57 136 57q34 0 89 -10l-23 -110q-33 9 -55 9q-57 0 -57 -69v-554q0 -108 -6 -143t-28 -65q-44 -58 -136 -58z" />
    <glyph glyph-name="Omega" unicode="&#x3a9;" horiz-adv-x="667" 
d="M298 0h-269v111h141q-72 45 -103 98q-38 66 -38 157q0 137 86.5 227t218.5 90q131 0 217.5 -90t86.5 -227q0 -125 -71 -200q-27 -29 -69 -55h140v-111h-268v98q71 41 103 95q39 66 39 159q0 95 -50.5 157.5t-127.5 62.5t-128 -62.5t-51 -157.5q0 -130 76 -205
q27 -27 67 -49v-98z" />
    <glyph glyph-name="Omega" unicode="&#x2126;" horiz-adv-x="667" 
d="M298 0h-269v111h141q-72 45 -103 98q-38 66 -38 157q0 137 86.5 227t218.5 90q131 0 217.5 -90t86.5 -227q0 -125 -71 -200q-27 -29 -69 -55h140v-111h-268v98q71 41 103 95q39 66 39 159q0 95 -50.5 157.5t-127.5 62.5t-128 -62.5t-51 -157.5q0 -130 76 -205
q27 -27 67 -49v-98z" />
    <glyph glyph-name="logicalnot" unicode="&#xac;" 
d="M467 0h-124v152h-310v115h434v-267z" />
    <glyph glyph-name="radical" unicode="&#x221a;" horiz-adv-x="667" 
d="M379 831h288v-115h-181l-171 -716h-162l-60 274h-93v115h195l20 -92q1 -4 3 -16q3 -24 7 -59t5 -72h10q2 28 8 75q15 120 40 223z" />
    <glyph glyph-name="approxequal" unicode="&#x2248;" 
d="M149 409q-25 0 -40 -12.5t-34 -48.5l-68 44q25 61 49 90q37 46 102 46q35 0 103 -25.5t88 -25.5q25 0 40 11t34 42l70 -40q-26 -54 -44 -76.5t-47 -38.5q-32 -17 -66 -17q-27 0 -100 27q-65 24 -87 24zM150 211q-26 0 -41 -12.5t-34 -49.5l-68 44q26 61 49 90
q37 47 101 47q34 0 105 -27q63 -24 88 -24q24 0 39 11t34 42l70 -41q-25 -53 -43.5 -76t-48 -39t-66.5 -16q-24 0 -99 27q-17 6 -32 11l-15 5q-24 8 -39 8z" />
    <glyph glyph-name="approxequal" unicode="&#x22f2;" 
d="M149 409q-25 0 -40 -12.5t-34 -48.5l-68 44q25 61 49 90q37 46 102 46q35 0 103 -25.5t88 -25.5q25 0 40 11t34 42l70 -40q-26 -54 -44 -76.5t-47 -38.5q-32 -17 -66 -17q-27 0 -100 27q-65 24 -87 24zM150 211q-26 0 -41 -12.5t-34 -49.5l-68 44q26 61 49 90
q37 47 101 47q34 0 105 -27q63 -24 88 -24q24 0 39 11t34 42l70 -41q-25 -53 -43.5 -76t-48 -39t-66.5 -16q-24 0 -99 27q-17 6 -32 11l-15 5q-24 8 -39 8z" />
    <glyph glyph-name="Delta" unicode="&#x394;" horiz-adv-x="667" 
d="M649 0h-631l246 667h134zM332 517l-138 -402h276z" />
    <glyph glyph-name="Delta" unicode="&#x2206;" horiz-adv-x="667" 
d="M649 0h-631l246 667h134zM332 517l-138 -402h276z" />
    <glyph glyph-name="nonbreakingspace" unicode="&#xa0;" horiz-adv-x="333" 
 />
    <glyph glyph-name="Agrave" unicode="&#xc0;" horiz-adv-x="602" 
d="M10 0l225 667h130l227 -667h-133l-41 139h-235l-42 -139h-131zM217 879l166 -163h-115l-202 163h151zM215 248h171l-86 272z" />
    <glyph glyph-name="Atilde" unicode="&#xc3;" horiz-adv-x="602" 
d="M10 0l225 667h130l227 -667h-133l-41 139h-235l-42 -139h-131zM232 770q-30 0 -46 -37l-57 14q30 106 98 106q25 0 75 -16t66 -16q29 0 54 41l51 -13q-10 -50 -37.5 -80.5t-61.5 -30.5q-27 0 -75 15q-55 17 -67 17zM215 248h171l-86 272z" />
    <glyph glyph-name="Otilde" unicode="&#xd5;" horiz-adv-x="673" 
d="M337 -13q-137 0 -219.5 94.5t-82.5 251.5t82.5 251.5t219.5 94.5q136 0 218.5 -94.5t82.5 -251.5q0 -156 -82.5 -251t-218.5 -95zM267 770q-31 0 -45 -37l-58 14q32 106 98 106q26 0 76 -16t65 -16q30 0 55 41l51 -13q-11 -50 -38.5 -80.5t-61.5 -30.5q-26 0 -75 15
q-56 17 -67 17zM337 570q-79 0 -123.5 -63t-44.5 -174q0 -110 44.5 -173t123.5 -63q78 0 122.5 63t44.5 173q0 111 -44.5 174t-122.5 63z" />
    <glyph glyph-name="divide" unicode="&#xf7;" horiz-adv-x="570" 
d="M216 173q0 28 20 48t49 20t49 -20t20 -48t-20 -48t-49 -20t-49 20t-20 48zM216 493q0 29 20.5 49t48.5 20q29 0 49 -20t20 -49q0 -28 -20.5 -48t-48.5 -20t-48.5 20t-20.5 48zM48 286v94h475v-94h-475z" />
    <glyph glyph-name="lozenge" unicode="&#x25ca;" horiz-adv-x="667" 
d="M74 334l259 359l260 -359l-260 -360zM530 334l-197 270l-197 -270l197 -271z" />
    <glyph glyph-name="ydieresis" unicode="&#xff;" horiz-adv-x="499" 
d="M184 -22l-168 497h131l106 -362l109 362h128l-180 -517q-43 -124 -141 -149q-39 -10 -94 -10q-22 0 -47 1v107h23q63 0 90.5 15t42.5 56zM76 603q0 28 20 47.5t48 19.5t48 -19.5t20 -47.5t-19.5 -48t-48.5 -20q-28 0 -48 20t-20 48zM280 603q0 28 20 47.5t48 19.5
t48 -19.5t20 -47.5t-19.5 -48t-48.5 -20q-28 0 -48 20t-20 48z" />
    <glyph glyph-name="Ydieresis" unicode="&#x178;" horiz-adv-x="562" 
d="M217 263l-217 404h143l140 -266l138 266h141l-216 -404v-263h-129v263zM114 797q0 31 21.5 52.5t52.5 21.5t52.5 -21.5t21.5 -52.5t-21.5 -52t-52.5 -21t-52.5 21.5t-21.5 51.5zM301 797q0 31 21.5 52.5t51.5 21.5q31 0 52.5 -21.5t21.5 -52.5t-21.5 -52t-52.5 -21
q-30 0 -51.5 21.5t-21.5 51.5z" />
    <glyph glyph-name="Acircumflex" unicode="&#xc2;" horiz-adv-x="602" 
d="M10 0l225 667h130l227 -667h-133l-41 139h-235l-42 -139h-131zM231 727h-117l137 141h99l138 -141h-117l-70 77zM215 248h171l-86 272z" />
    <glyph glyph-name="Ecircumflex" unicode="&#xca;" horiz-adv-x="537" 
d="M208 557v-157h265v-109h-265v-182h302v-109h-430v667h419v-110h-291zM226 727h-118l137 141h100l137 -141h-116l-71 77z" />
    <glyph glyph-name="Aacute" unicode="&#xc1;" horiz-adv-x="602" 
d="M10 0l225 667h130l227 -667h-133l-41 139h-235l-42 -139h-131zM339 716h-115l166 163h152zM215 248h171l-86 272z" />
    <glyph glyph-name="Edieresis" unicode="&#xcb;" horiz-adv-x="537" 
d="M208 557v-157h265v-109h-265v-182h302v-109h-430v667h419v-110h-291zM128 797q0 31 21.5 52.5t52.5 21.5t52.5 -21.5t21.5 -52.5t-21.5 -52t-52.5 -21t-52.5 21.5t-21.5 51.5zM314 797q0 31 21.5 52.5t52.5 21.5t52.5 -21.5t21.5 -52.5q0 -30 -21.5 -51.5t-52.5 -21.5
t-52.5 21.5t-21.5 51.5z" />
    <glyph glyph-name="Egrave" unicode="&#xc8;" horiz-adv-x="537" 
d="M208 557v-157h265v-109h-265v-182h302v-109h-430v667h419v-110h-291zM211 879l167 -163h-115l-203 163h151z" />
    <glyph glyph-name="Iacute" unicode="&#xcd;" horiz-adv-x="288" 
d="M208 667v-667h-128v667h128zM190 716h-114l166 163h151z" />
    <glyph glyph-name="Icircumflex" unicode="&#xce;" horiz-adv-x="288" 
d="M208 667v-667h-128v667h128zM75 727h-118l138 141h99l137 -141h-116l-71 77z" />
    <glyph glyph-name="Idieresis" unicode="&#xcf;" horiz-adv-x="288" 
d="M208 667v-667h-128v667h128zM-14 796q0 29 20.5 49.5t49.5 20.5t49.5 -20.5t20.5 -49.5t-20.5 -49.5t-49.5 -20.5t-49.5 20.5t-20.5 49.5zM163 796q0 29 20.5 49.5t49.5 20.5t49.5 -20.5t20.5 -49.5t-20.5 -49.5t-49.5 -20.5t-49.5 20.5t-20.5 49.5z" />
    <glyph glyph-name="Igrave" unicode="&#xcc;" horiz-adv-x="288" 
d="M208 667v-667h-128v667h128zM61 879l166 -163h-115l-203 163h152z" />
    <glyph glyph-name="Oacute" unicode="&#xd3;" horiz-adv-x="673" 
d="M337 -13q-137 0 -219.5 94.5t-82.5 251.5t82.5 251.5t219.5 94.5q136 0 218.5 -94.5t82.5 -251.5q0 -156 -82.5 -251t-218.5 -95zM366 716h-115l166 163h152zM337 570q-79 0 -123.5 -63t-44.5 -174q0 -110 44.5 -173t123.5 -63q78 0 122.5 63t44.5 173q0 111 -44.5 174
t-122.5 63z" />
    <glyph glyph-name="Ocircumflex" unicode="&#xd4;" horiz-adv-x="673" 
d="M337 -13q-137 0 -219.5 94.5t-82.5 251.5t82.5 251.5t219.5 94.5q136 0 218.5 -94.5t82.5 -251.5q0 -156 -82.5 -251t-218.5 -95zM267 727h-117l137 141h99l138 -141h-117l-70 77zM337 570q-79 0 -123.5 -63t-44.5 -174q0 -110 44.5 -173t123.5 -63q78 0 122.5 63
t44.5 173q0 111 -44.5 174t-122.5 63z" />
    <glyph glyph-name="apple" unicode="&#xf000;" horiz-adv-x="667" 
d="M332 518q1 73 40.5 118.5t107.5 54.5v-10q0 -65 -44.5 -114t-103.5 -49zM479 528q91 0 144 -71q-80 -62 -80 -140q0 -106 99 -148q-79 -196 -169 -196q-18 0 -40 9l-41 17q-10 4 -33 4q-39 0 -51 -5l-43 -18q-19 -8 -38 -8q-55 0 -111 82q-84 124 -84 252q0 97 52 158.5
t135 61.5q31 0 77 -18q31 -12 48 -12q16 0 43 10q59 22 92 22z" />
    <glyph glyph-name="Ograve" unicode="&#xd2;" horiz-adv-x="673" 
d="M337 -13q-137 0 -219.5 94.5t-82.5 251.5t82.5 251.5t219.5 94.5q136 0 218.5 -94.5t82.5 -251.5q0 -156 -82.5 -251t-218.5 -95zM253 879l166 -163h-115l-203 163h152zM337 570q-79 0 -123.5 -63t-44.5 -174q0 -110 44.5 -173t123.5 -63q78 0 122.5 63t44.5 173
q0 111 -44.5 174t-122.5 63z" />
    <glyph glyph-name="Uacute" unicode="&#xda;" horiz-adv-x="675" 
d="M73 282v385h129v-383q0 -100 22 -134q33 -52 113 -52q122 0 133 114q3 31 3 72v383h128v-385q0 -118 -26 -171q-29 -59 -91.5 -91.5t-146.5 -32.5q-177 0 -238 124q-26 52 -26 171zM367 716h-115l166 163h152z" />
    <glyph glyph-name="Ucircumflex" unicode="&#xdb;" horiz-adv-x="675" 
d="M73 282v385h129v-383q0 -100 22 -134q33 -52 113 -52q122 0 133 114q3 31 3 72v383h128v-385q0 -118 -26 -171q-29 -59 -91.5 -91.5t-146.5 -32.5q-177 0 -238 124q-26 52 -26 171zM268 727h-118l138 141h99l137 -141h-116l-70 77z" />
    <glyph glyph-name="Ugrave" unicode="&#xd9;" horiz-adv-x="675" 
d="M73 282v385h129v-383q0 -100 22 -134q33 -52 113 -52q122 0 133 114q3 31 3 72v383h128v-385q0 -118 -26 -171q-29 -59 -91.5 -91.5t-146.5 -32.5q-177 0 -238 124q-26 52 -26 171zM270 879l167 -163h-115l-203 163h151z" />
    <glyph glyph-name="glyph226" horiz-adv-x="280" 
 />
  </font>
</defs>
</svg>
