<?xml version="1.0" standalone="no"?>
<!DOCTYPE svg PUBLIC "-//W3C//DTD SVG 1.1//EN" "http://www.w3.org/Graphics/SVG/1.1/DTD/svg11.dtd" >
<svg xmlns="http://www.w3.org/2000/svg">
<metadata>
Created by FontPrep 20130207 at Thu Oct  1 09:36:54 2015
 By John Zhang
Copyright (c) 1989, 2002 Adobe Systems Incorporated.  All Rights Reserved. (c) 1981, 2002 Heidelberger Druckmaschinen AG. All rights reserved.
</metadata>
<defs>
<font id="4a676caccd9c0fcdbbd764a199edc43f" horiz-adv-x='1024' >
  <font-face 
    font-family="TradeGothicLTStd-BdCn20"
    font-weight="700"
    font-stretch="condensed"
    units-per-em="2048"
    panose-1="0 0 8 6 0 0 0 0 0 0"
    ascent="1479"
    descent="-569"
    x-height="1102"
    cap-height="1479"
    bbox="-342 -483.017 2048 1974"
    underline-thickness="102"
    underline-position="-102"
    unicode-range="U+0020-FB02"
  />
<missing-glyph horiz-adv-x="1024" 
d="M102 1239v-1044l349 522zM164 102h696l-348 523zM573 717l349 -522v1044zM512 809l348 522h-696zM0 0v1434h1024v-1434h-1024z" />
    <glyph glyph-name="fi" unicode="fi" 
d="M797 1270h-230v209h230v-209zM797 0h-230v1102h230v-1102zM127 0v913h-135v189h135v137q0 260 256 260h115v-188h-66q-41 -1 -58 -17t-18 -57v-135h131v-189h-131v-913h-229z" />
    <glyph glyph-name="fl" unicode="fl" 
d="M797 0h-230v1479h230v-1479zM127 0v913h-135v189h135v137q0 260 256 260h115v-188h-66q-41 -1 -58 -17t-18 -57v-135h131v-189h-131v-913h-229z" />
    <glyph glyph-name=".notdef" horiz-adv-x="1024" 
d="M102 1239v-1044l349 522zM164 102h696l-348 523zM573 717l349 -522v1044zM512 809l348 522h-696zM0 0v1434h1024v-1434h-1024z" />
    <glyph glyph-name=".null" horiz-adv-x="0" 
 />
    <glyph glyph-name="nonmarkingreturn" horiz-adv-x="681" 
 />
    <glyph glyph-name="space" unicode=" " horiz-adv-x="454" 
 />
    <glyph glyph-name="exclam" unicode="!" horiz-adv-x="569" 
d="M406 0h-242v242h242v-242zM201 434l-45 1045h258l-45 -1045h-168z" />
    <glyph glyph-name="quotedbl" unicode="&#x22;" horiz-adv-x="681" 
d="M408 918v561h192v-561h-192zM82 918v561h192v-561h-192z" />
    <glyph glyph-name="numbersign" unicode="#" 
d="M557 881h-164l-33 -283h164zM836 598v-160h-148l-49 -438h-184l51 438h-166l-49 -438h-187l52 438h-136v160h156l31 283h-135v159h155l52 439h182l-51 -439h165l52 439h182l-51 -439h131v-159h-148l-32 -283h127z" />
    <glyph glyph-name="dollar" unicode="$" 
d="M631 387q0 70 -28 115t-87 98v-403q115 45 115 190zM393 922v356q-47 -14 -75 -56t-27 -96q0 -112 102 -204zM393 1659h123v-180q178 -35 285 -187l-156 -133q-61 104 -129 119v-424q162 -102 247 -202t85 -257t-88 -269t-244 -126v-238h-123v238q-197 20 -332 231
l170 129q49 -131 162 -163v481q-141 86 -226 186t-85 242t83 248q83 107 228 125v180z" />
    <glyph glyph-name="percent" unicode="%" horiz-adv-x="1593" 
d="M1141 1499h153l-837 -1519h-154zM819 336q1 139 99 237q98 99 237 99t237 -98t99 -238q0 -140 -98 -238q-97 -98 -237 -98t-238 98t-99 238zM983 336q0 -70 51 -121t121 -51t121 51t51 121t-51 121t-121 51t-121 -51t-51 -121zM266 1143q0 -70 51 -121t121 -51t121 51
t51 121t-51 121t-121 51t-121 -51t-51 -121zM102 1143q0 139 98 237t238 98t238 -98t98 -237t-98 -237t-238 -99q-140 1 -238 99t-98 237z" />
    <glyph glyph-name="ampersand" unicode="&#x26;" horiz-adv-x="1138" 
d="M340 368q0 -76 42 -122t108 -45q66 0 116 43q-135 162 -203 297q-63 -97 -63 -173zM184 1155q0 152 83 248t231 96t228 -84q81 -84 81 -223q0 -89 -34 -155q-13 -28 -25 -54t-39 -59t-52 -63t-33 -40t-37 -40q-28 -30 -34 -38q80 -168 184 -301q70 181 90 275l209 -55
q-17 -93 -74 -234q-58 -141 -65 -154q63 -57 141 -69v-225q-168 4 -286 112q-119 -112 -285 -112t-263 96t-98 250q0 207 195 417q-117 260 -117 412zM393 1206q0 -113 70 -284q123 162 123 270q0 160 -92 160q-101 -1 -101 -146z" />
    <glyph glyph-name="quotesingle" unicode="'" horiz-adv-x="454" 
d="M131 918v561h193v-561h-193z" />
    <glyph glyph-name="parenleft" unicode="(" horiz-adv-x="569" 
d="M262 662q0 -462 242 -838h-197q-115 178 -178 396t-63 442t63 441q63 218 178 396h197q-242 -375 -242 -837z" />
    <glyph glyph-name="parenright" unicode=")" horiz-adv-x="569" 
d="M308 662q0 462 -242 837h196q115 -178 178 -396q128 -444 0 -883q-63 -218 -178 -396h-196q242 376 242 838z" />
    <glyph glyph-name="asterisk" unicode="*" 
d="M762 1321l61 -182q-29 -2 -309 -35q131 -141 227 -219l-161 -113q-20 57 -125 287q-104 -229 -125 -287l-162 113q96 78 227 219q-281 33 -309 35l61 182q123 -74 261 -137q-10 131 -50 295h193q-39 -164 -49 -295q137 63 260 137z" />
    <glyph glyph-name="plus" unicode="+" horiz-adv-x="1228" 
d="M514 618v418h201v-418h418v-200h-418v-418h-201v418h-418v200h418z" />
    <glyph glyph-name="comma" unicode="," horiz-adv-x="454" 
d="M348 242v-242l-141 -254h-109l101 254h-93v242h242z" />
    <glyph glyph-name="hyphen" unicode="-" horiz-adv-x="681" 
d="M592 457h-502v188h502v-188z" />
    <glyph glyph-name="period" unicode="." horiz-adv-x="454" 
d="M348 0h-242v242h242v-242z" />
    <glyph glyph-name="slash" unicode="/" horiz-adv-x="569" 
d="M-43 -20l455 1519h200l-454 -1519h-201z" />
    <glyph glyph-name="zero" unicode="0" 
d="M94 385v709q0 211 86 308t274 97t275 -97q86 -97 86 -308v-709q0 -211 -86 -308t-274 -97t-275 97q-86 97 -86 308zM573 322v835q-1 141 -119 141t-118 -141v-835q0 -141 119 -142q118 1 118 142z" />
    <glyph glyph-name="one" unicode="1" 
d="M362 0v1171h-200v138q193 98 301 190h129v-1499h-230z" />
    <glyph glyph-name="two" unicode="2" 
d="M797 0h-707v199q279 406 383 594q105 189 105 347t-115 158q-59 0 -91 -42t-32 -111v-101h-242v70q0 168 102 277t264 109q163 0 259 -98q96 -97 96 -231q0 -180 -90 -367t-381 -595h449v-209z" />
    <glyph glyph-name="three" unicode="3" 
d="M94 428h230v-100q0 -147 114 -148q121 0 121 174v113q0 119 -49 164t-168 45v201q115 0 161 48q46 47 46 165t-24 163t-80 45t-85 -34t-28 -117v-62h-230v70q0 154 92 249t252 95q160 -1 246 -111t86 -258t-33 -223q-33 -76 -127 -127q109 -57 146 -134t37 -232
q0 -222 -90 -328t-279 -106q-338 0 -338 360v88z" />
    <glyph glyph-name="four" unicode="4" 
d="M475 0v356h-442v189l430 934h246v-934h135v-189h-135v-356h-234zM479 545v577h-4l-248 -577h252z" />
    <glyph glyph-name="five" unicode="5" 
d="M102 428h230v-119q0 -59 30 -94t82 -35q125 0 125 180v336q0 68 -29 102q-30 34 -77 33q-96 0 -137 -112h-197q18 516 18 760h617l-8 -209h-400l-14 -320l4 -4q45 54 87 70t108 16q270 0 270 -389v-205q0 -238 -81 -348t-255 -110t-273 80t-100 255v113z" />
    <glyph glyph-name="six" unicode="6" 
d="M336 322q0 -141 119 -142q119 0 118 142v245q0 141 -106 142q-47 0 -131 -68v-319zM784 1081h-221v76q0 141 -108 141q-119 0 -119 -141v-346q55 55 96 77t113 21q119 -1 195 -75t75 -228v-176q0 -236 -85 -344t-274 -106q-189 0 -276 97q-86 97 -86 308v709
q0 211 86 308t275 97q147 2 238 -91t91 -237v-90z" />
    <glyph glyph-name="seven" unicode="7" 
d="M115 1270v209h667v-144l-301 -1335h-239l297 1270h-424z" />
    <glyph glyph-name="eight" unicode="8" 
d="M455 893q59 0 85 48q26 49 26 155t-26 154t-85 48t-85 -48t-26 -154t26 -154t85 -49zM455 180q131 0 131 246t-131 246t-131 -246t131 -246zM94 410q0 145 33 233t121 145q-133 96 -133 300t89 308t251 103q162 0 251 -103q89 -104 89 -308t-133 -300q88 -57 120 -145
t33 -233q0 -209 -91 -320q-91 -110 -269 -110t-270 110q-91 111 -91 320z" />
    <glyph glyph-name="nine" unicode="9" 
d="M573 1157q-1 141 -119 141t-118 -141v-246q0 -141 106 -141q47 0 131 68v319zM125 397h221v-75q0 -141 109 -142q119 0 118 142v346q-55 -55 -96 -77t-112 -22q-119 0 -195 75t-76 228v177q0 235 85 343t275 108t275 -98q86 -97 86 -308v-709q0 -211 -86 -308t-274 -97
q-147 -2 -239 91q-91 93 -91 236v90z" />
    <glyph glyph-name="colon" unicode=":" horiz-adv-x="454" 
d="M348 569h-242v242h242v-242zM348 0h-242v242h242v-242z" />
    <glyph glyph-name="semicolon" unicode=";" horiz-adv-x="454" 
d="M348 569h-242v242h242v-242zM348 242v-242l-141 -254h-109l101 254h-93v242h242z" />
    <glyph glyph-name="less" unicode="&#x3c;" horiz-adv-x="1228" 
d="M1133 213v-213l-1037 432v172l1037 432v-213l-748 -305z" />
    <glyph glyph-name="equal" unicode="=" horiz-adv-x="1228" 
d="M1133 406v-201h-1037v201h1037zM1133 831v-200h-1037v200h1037z" />
    <glyph glyph-name="greater" unicode="&#x3e;" horiz-adv-x="1228" 
d="M96 0v213l748 305l-748 305v213l1037 -432v-172z" />
    <glyph glyph-name="question" unicode="?" horiz-adv-x="796" 
d="M496 0h-242v242h242v-242zM477 434h-196v172q0 171 132 402q55 102 67 140t13 73t-24 63t-61 27q-104 0 -146 -156l-196 74q97 271 358 271q131 0 219 -80q88 -79 88 -195q-1 -71 -23 -135t-39 -91t-61 -87t-68 -99q-22 -39 -42 -111t-21 -157v-111z" />
    <glyph glyph-name="at" unicode="@" horiz-adv-x="1638" 
d="M1159 461q90 1 164 109t74 266q0 238 -155 370q-156 132 -404 133q-248 0 -410 -171t-162 -433t172 -429t437 -167t436 170h170q-105 -157 -267 -243t-352 -86q-332 0 -556 212t-224 542q0 331 224 548t546 217q285 0 495 -175t209 -445q0 -119 -38 -221
q-65 -173 -226 -279q-128 -86 -241 -86q-49 0 -82 28t-35 82l-4 3q-102 -113 -227 -113t-219 100q-93 100 -93 240q0 203 124 359t316 157q158 0 240 -133l33 106h166l-129 -526q-14 -57 -15 -80q0 -55 33 -55zM756 477q106 0 179 98q73 99 73 193t-45 145t-113 52
q-106 -1 -180 -99t-74 -192t44 -145q44 -52 116 -52z" />
    <glyph glyph-name="A" unicode="A" 
d="M315 328l-45 -328h-245l272 1479h315l273 -1479h-246l-45 328h-279zM453 1184l-101 -635h205l-100 635h-4z" />
    <glyph glyph-name="B" unicode="B" horiz-adv-x="1024" 
d="M123 0v1479h377q393 0 393 -392q0 -102 -44 -188t-132 -121q205 -90 205 -350q0 -196 -96 -312t-302 -116h-401zM377 1270v-398h92q76 0 123 50t47 139q0 209 -166 209h-96zM377 664v-455h106q98 0 142 56q43 56 43 172t-50 171t-159 56h-82z" />
    <glyph glyph-name="C" unicode="C" horiz-adv-x="1024" 
d="M889 985h-254v115q0 88 -35 133q-34 45 -98 45t-94 -39t-31 -125v-749q0 -86 31 -125q32 -39 102 -39t98 37t27 112v178h254v-170q0 -166 -97 -272q-98 -106 -284 -106t-286 106q-99 106 -99 272v762q0 166 99 272q100 106 286 107q186 0 284 -115t97 -290v-109z" />
    <glyph glyph-name="D" unicode="D" horiz-adv-x="1024" 
d="M123 0v1479h377q401 0 401 -447v-586q0 -446 -401 -446h-377zM377 1270v-1061h88q102 0 142 45t40 162v647q0 117 -40 162t-142 45h-88z" />
    <glyph glyph-name="E" unicode="E" 
d="M831 0h-708v1479h680v-222h-426v-380h328v-222h-328v-434h454v-221z" />
    <glyph glyph-name="F" unicode="F" 
d="M377 0h-254v1479h708v-222h-454v-380h340v-222h-340v-655z" />
    <glyph glyph-name="G" unicode="G" horiz-adv-x="1024" 
d="M473 549v201h416v-750h-123l-47 111q-59 -72 -115 -102t-141 -29q-152 0 -246 102t-94 276v762q0 166 96 272q95 106 277 107q182 0 281 -115t100 -290v-95h-242q0 159 -34 219t-112 60q-113 0 -112 -162v-760q0 -156 119 -155q76 0 108 47t31 158v143h-162z" />
    <glyph glyph-name="H" unicode="H" horiz-adv-x="1024" 
d="M377 0h-254v1479h254v-602h270v602h254v-1479h-254v655h-270v-655z" />
    <glyph glyph-name="I" unicode="I" horiz-adv-x="569" 
d="M412 0h-254v1479h254v-1479z" />
    <glyph glyph-name="J" unicode="J" horiz-adv-x="569" 
d="M6 -20v221h53q72 -1 103 29t31 94v1155h253v-1184q0 -154 -78 -235t-278 -80h-84z" />
    <glyph glyph-name="K" unicode="K" 
d="M365 0h-254v1479h254v-547h4l266 547h254l-275 -551l310 -928h-258l-207 688h-4l-90 -164v-524z" />
    <glyph glyph-name="L" unicode="L" horiz-adv-x="796" 
d="M764 0h-653v1479h254v-1258h399v-221z" />
    <glyph glyph-name="M" unicode="M" horiz-adv-x="1251" 
d="M1141 1479v-1479h-221v1155h-5l-229 -1155h-123l-229 1155h-4v-1155h-221v1479h333l181 -865h4l180 865h334z" />
    <glyph glyph-name="N" unicode="N" horiz-adv-x="1024" 
d="M352 0h-229v1479h235l310 -846h4v846h229v-1479h-221l-324 924h-4v-924z" />
    <glyph glyph-name="O" unicode="O" horiz-adv-x="1024" 
d="M377 1114v-749q0 -86 31 -125q30 -39 104 -39t104 39t31 125v749q0 86 -31 125q-30 39 -104 39t-104 -39t-31 -125zM123 358v762q0 166 99 272q100 106 290 107q190 0 290 -106t99 -273v-762q0 -166 -99 -272q-100 -106 -290 -106t-290 106q-99 106 -99 272z" />
    <glyph glyph-name="P" unicode="P" horiz-adv-x="1024" 
d="M377 0h-254v1479h364q240 1 350 -101q109 -102 109 -336t-110 -334q-110 -101 -349 -102h-110v-606zM377 1270v-455h98q125 0 171 48t46 179q0 132 -46 180t-171 48h-98z" />
    <glyph glyph-name="Q" unicode="Q" horiz-adv-x="1024" 
d="M647 1114q0 86 -31 125q-30 39 -104 39t-104 -39t-31 -125v-749q0 -86 31 -125t96 -39t94 22q-27 49 -68 80v225q70 -37 117 -90v676zM977 -111q-80 0 -137 27t-121 111q-84 -47 -207 -47q-190 0 -290 106q-99 106 -99 272v762q0 166 99 272q100 106 290 107
q190 0 290 -106t99 -273v-762q0 -106 -43 -190q62 -53 119 -57v-222z" />
    <glyph glyph-name="R" unicode="R" horiz-adv-x="1024" 
d="M377 606v-606h-254v1479h356q219 -1 325 -103t105 -334q0 -293 -178 -372l215 -670h-258l-180 612q-49 -6 -131 -6zM377 1270v-455h90q104 0 146 49t42 178q0 128 -42 178t-146 50h-90z" />
    <glyph glyph-name="S" unicode="S" 
d="M451 1278q-127 0 -127 -145q0 -120 182 -268q76 -62 152 -132t128 -167q53 -97 54 -208q0 -180 -110 -279t-286 -99t-277 118t-110 291l242 35q8 -109 48 -166t106 -57q65 0 105 35q40 36 40 108q0 131 -182 279q-76 61 -152 128t-129 165t-53 214q0 176 102 272t272 97
q170 0 262 -98q91 -98 109 -260l-241 -27q-6 88 -45 126t-90 38z" />
    <glyph glyph-name="T" unicode="T" horiz-adv-x="796" 
d="M270 0v1257h-245v222h745v-222h-246v-1257h-254z" />
    <glyph glyph-name="U" unicode="U" horiz-adv-x="1024" 
d="M123 373v1106h254v-1117q0 -162 135 -161q135 0 135 161v1117h254v-1106q0 -189 -103 -291q-104 -102 -286 -102t-286 102q-103 103 -103 291z" />
    <glyph glyph-name="V" unicode="V" 
d="M457 453l184 1026h250l-309 -1479h-254l-310 1479h250l185 -1026h4z" />
    <glyph glyph-name="W" unicode="W" horiz-adv-x="1366" 
d="M397 537l166 942h209l172 -942h4l142 942h237l-260 -1479h-213l-184 977h-4l-172 -977h-213l-281 1479h238l155 -942h4z" />
    <glyph glyph-name="X" unicode="X" 
d="M29 0l290 774l-270 705h250l156 -469h4l141 469h250l-256 -705l287 -774h-250l-172 539h-4l-176 -539h-250z" />
    <glyph glyph-name="Y" unicode="Y" 
d="M582 0h-254v614l-308 865h259l178 -564h4l170 564h258l-307 -865v-614z" />
    <glyph glyph-name="Z" unicode="Z" 
d="M147 1257v222h672v-242l-467 -1016h467v-221h-729v242l473 1015h-416z" />
    <glyph glyph-name="bracketleft" unicode="[" horiz-adv-x="569" 
d="M512 1479v-99h-242v-1437h242v-99h-438v1635h438z" />
    <glyph glyph-name="backslash" unicode="\" horiz-adv-x="569" 
d="M158 1499l454 -1519h-200l-455 1519h201z" />
    <glyph glyph-name="bracketright" unicode="]" horiz-adv-x="569" 
d="M57 1380v99h439v-1635h-439v99h242v1437h-242z" />
    <glyph glyph-name="asciicircum" unicode="^" horiz-adv-x="1228" 
d="M334 618h-219l389 861h221l389 -861h-223l-279 619z" />
    <glyph glyph-name="underscore" unicode="_" horiz-adv-x="1024" 
d="M1024 -256h-1024v102h1024v-102z" />
    <glyph glyph-name="grave" unicode="`" horiz-adv-x="454" 
d="M203 1233l-269 295h277l162 -295h-170z" />
    <glyph glyph-name="a" unicode="a" 
d="M299 268q0 -100 107 -100q81 0 153 102v289q-150 -87 -205 -151t-55 -140zM455 1122q333 0 333 -299v-706q0 -31 15 -117h-219q-2 16 -7 45t-6 41q-131 -106 -256 -106t-185 68t-60 179q0 176 116 289q117 113 373 211v66q0 141 -113 141q-74 0 -100 -39t-31 -117h-229
q8 166 106 255t263 89z" />
    <glyph glyph-name="b" unicode="b" 
d="M471 168q111 0 111 178v410q0 178 -111 178q-51 0 -131 -57v-652q80 -57 131 -57zM328 0h-217v1479h229v-471q57 47 82 64q74 50 169 50q96 0 158 -80t62 -227v-528q0 -147 -62 -227q-63 -80 -159 -80t-148 30t-110 105h-4v-115z" />
    <glyph glyph-name="c" unicode="c" 
d="M582 725v29q0 180 -127 180t-127 -180v-406q0 -180 127 -180t127 180v70h229v-29q0 -410 -356 -409q-356 0 -357 409v324q0 410 357 409q350 0 356 -397h-229z" />
    <glyph glyph-name="d" unicode="d" 
d="M438 934q-111 0 -110 -178v-410q0 -178 110 -178q53 0 131 57v652q-78 57 -131 57zM799 0h-217v115h-4q-58 -76 -110 -106q-52 -29 -148 -29t-159 80q-62 80 -63 227v528q0 147 62 227t162 80q99 0 165 -50q25 -17 82 -64v471h230v-1479z" />
    <glyph glyph-name="e" unicode="e" 
d="M811 713v-205h-483v-160q0 -180 127 -180t127 180v25h229q-6 -393 -356 -393q-356 0 -357 409v324q0 410 357 409q356 1 356 -409zM328 696h254v58q0 180 -127 180t-127 -180v-58z" />
    <glyph glyph-name="f" unicode="f" horiz-adv-x="569" 
d="M156 0v913h-136v189h136v137q0 260 256 260h114v-188h-65q-41 -1 -59 -17t-17 -57v-135h131v-189h-131v-913h-229z" />
    <glyph glyph-name="g" unicode="g" 
d="M410 934q-64 0 -92 -49t-28 -183t29 -182q27 -49 91 -49t88 46t22 185q0 139 -23 186q-24 46 -87 46zM473 -184q113 0 154 18t41 64t-41 63q-41 19 -154 19t-154 -18t-41 -64q0 -45 41 -64q41 -18 154 -18zM872 1122v-190q-12 2 -36 2q-68 0 -111 -35q25 -86 25 -174
q0 -244 -83 -343t-266 -99h-73q-45 -11 -45 -51t60 -52t147 -14q86 -2 174 -14t148 -70t60 -168q0 -262 -471 -262q-174 0 -269 45t-95 131q0 62 44 110t105 62v4q-104 41 -104 139t139 179q-90 61 -119 135q-28 73 -28 279t81 296t275 90q152 0 254 -118q50 72 84 95
t104 23z" />
    <glyph glyph-name="h" unicode="h" 
d="M340 0h-229v1479h229v-480q57 49 80 67t73 38q51 18 127 18t128 -61t51 -170v-891h-230v854q0 80 -82 80q-51 0 -147 -70v-864z" />
    <glyph glyph-name="i" unicode="i" horiz-adv-x="454" 
d="M342 1270h-229v209h229v-209zM342 0h-229v1102h229v-1102z" />
    <glyph glyph-name="j" unicode="j" horiz-adv-x="454" 
d="M354 1270h-229v209h229v-209zM0 -348v209h39q86 0 86 86v1153h229v-1163q0 -285 -266 -285h-88z" />
    <glyph glyph-name="k" unicode="k" 
d="M340 0h-229v1479h229v-766h4l252 389h246l-240 -348l266 -754h-231l-184 547h-4l-109 -162v-385z" />
    <glyph glyph-name="l" unicode="l" horiz-adv-x="454" 
d="M342 0h-229v1479h229v-1479z" />
    <glyph glyph-name="m" unicode="m" horiz-adv-x="1366" 
d="M797 0h-230v854q0 80 -80 80q-51 0 -147 -70v-864h-229v1102h217v-111q108 91 152 111t114 20t108 -28t80 -103q80 78 136 105t120 26q106 0 160 -61t55 -170v-891h-229v854q0 80 -82 80q-53 0 -145 -70v-864z" />
    <glyph glyph-name="n" unicode="n" 
d="M340 0h-229v1102h217v-111q66 55 90 73t74 38q52 20 128 20t128 -61t51 -170v-891h-230v854q0 80 -82 80q-51 0 -147 -70v-864z" />
    <glyph glyph-name="o" unicode="o" 
d="M98 389v324q0 410 357 409q356 0 356 -409v-324q0 -410 -356 -409q-357 -1 -357 409zM582 348v406q0 180 -127 180t-127 -180v-406q0 -180 127 -180t127 180z" />
    <glyph glyph-name="p" unicode="p" 
d="M471 168q111 0 111 178v410q0 178 -111 178q-51 0 -131 -57v-652q80 -57 131 -57zM111 1102h217v-115h4q59 76 110 106q51 29 148 29t159 -80t62 -227v-528q0 -147 -62 -227t-161 -80t-166 50q-25 17 -82 64v-442h-229v1450z" />
    <glyph glyph-name="q" unicode="q" 
d="M438 934q-111 0 -110 -178v-410q0 -178 110 -178q53 0 131 57v652q-78 57 -131 57zM582 1102h217v-1450h-230v442q-57 -47 -82 -64q-74 -50 -169 -50t-157 80t-63 227v528q0 147 62 227t160 80q96 0 147 -30t111 -105h4v115z" />
    <glyph glyph-name="r" unicode="r" horiz-adv-x="681" 
d="M340 0h-229v1102h219v-129h4q88 150 260 149h47v-239q-90 23 -150 23q-59 0 -105 -40q-46 -39 -46 -108v-758z" />
    <glyph glyph-name="s" unicode="s" horiz-adv-x="796" 
d="M397 934q-45 0 -73 -23t-27 -67q0 -77 152 -180q63 -44 126 -94t107 -127t45 -167q0 -143 -88 -220t-233 -76q-295 0 -351 307l201 55q27 -174 152 -174q46 0 74 26t28 74q0 88 -152 192q-63 44 -127 93q-63 49 -107 120t-44 154q0 129 88 212t219 83t220 -80t116 -213
l-195 -32q-25 137 -131 137z" />
    <glyph glyph-name="t" unicode="t" horiz-adv-x="569" 
d="M147 913h-127v189h127v297h230v-297h153v-189h-153v-634q0 -90 78 -91h75v-196q-47 -12 -114 -12q-268 0 -269 247v686z" />
    <glyph glyph-name="u" unicode="u" 
d="M569 1102h230v-1102h-217v111q-66 -55 -90 -73t-74 -38q-51 -20 -128 -20t-128 61t-51 170v891h229v-854q0 -80 82 -80q51 0 147 70v864z" />
    <glyph glyph-name="v" unicode="v" horiz-adv-x="796" 
d="M399 365l144 737h233l-266 -1102h-223l-267 1102h234l141 -737h4z" />
    <glyph glyph-name="w" unicode="w" horiz-adv-x="1138" 
d="M338 414l145 686h170l123 -686h4l125 688h221l-254 -1102h-184l-125 696h-4l-149 -696h-185l-213 1102h221l101 -688h4z" />
    <glyph glyph-name="x" unicode="x" horiz-adv-x="796" 
d="M25 0l245 584l-227 518h238l116 -307l123 307h238l-238 -514l250 -588h-238l-133 373h-4l-133 -373h-237z" />
    <glyph glyph-name="y" unicode="y" horiz-adv-x="796" 
d="M174 -346h-96v188h55q84 0 118 43t34 115t-25 166l-240 936h234l147 -705h5l139 705h231l-289 -1184q-37 -147 -108 -206q-72 -58 -205 -58z" />
    <glyph glyph-name="z" unicode="z" horiz-adv-x="796" 
d="M90 913v189h645v-189l-428 -725h428v-188h-674v188l420 725h-391z" />
    <glyph glyph-name="braceleft" unicode="{" horiz-adv-x="569" 
d="M0 606v119q49 0 82 41t33 123v414q0 102 47 149t166 47h225v-98h-168q-74 0 -74 -103v-397q0 -111 -52 -169t-103 -64v-6q53 -8 104 -66t51 -174v-397q0 -102 74 -103h168v-98h-225q-119 0 -166 47t-47 149v422q0 82 -33 123t-82 41z" />
    <glyph glyph-name="bar" unicode="|" horiz-adv-x="454" 
d="M127 -20v1519h201v-1519h-201z" />
    <glyph glyph-name="braceright" unicode="}" horiz-adv-x="569" 
d="M569 717v-119q-49 0 -82 -41t-32 -123v-414q0 -102 -47 -149t-166 -47h-226v98h168q74 0 74 103v397q0 111 52 169t104 64v7q-53 8 -105 65q-51 57 -51 174v397q0 102 -74 103h-168v98h226q119 0 166 -47t47 -149v-422q1 -82 33 -123t81 -41z" />
    <glyph glyph-name="asciitilde" unicode="~" horiz-adv-x="1228" 
d="M831 350q-87 0 -203 66t-241 65q-104 0 -172 -131l-90 176q47 53 71 77q24 23 80 53t136 30q79 0 248 -81q26 -11 37 -16q75 -34 139 -34t128 67q19 21 50 64l90 -176q-12 -10 -44 -42q-90 -90 -160 -110q-32 -8 -69 -8z" />
    <glyph glyph-name="uni00A0" unicode="&#xa0;" horiz-adv-x="454" 
 />
    <glyph glyph-name="exclamdown" unicode="&#xa1;" horiz-adv-x="569" 
d="M164 1102h242v-242h-242v242zM369 668l45 -1045h-258l45 1045h168z" />
    <glyph glyph-name="cent" unicode="&#xa2;" 
d="M608 745v29q0 78 -30 121l-187 -690q25 -16 66 -17q145 0 145 181v69h229v-28q0 -410 -374 -410q-53 0 -88 8l-68 -246h-154l82 297q-152 94 -151 351v323q0 410 379 410q25 0 65 -4l72 262h151l-83 -307q155 -93 159 -349h-213zM457 954q-68 0 -109 -44t-41 -136v-405
q0 -10 12 -66h5l165 649q-10 2 -32 2z" />
    <glyph glyph-name="sterling" unicode="&#xa3;" 
d="M72 653v172h129q-57 250 -58 336q0 162 84 250t253 88t250 -101t81 -313h-209q-6 133 -34 179t-93 47q-102 0 -102 -131q-1 -87 25 -198q26 -112 34 -157h203v-172h-184q-5 -164 -17 -252t-55 -163q70 -49 143 -50q104 0 105 220h204v-121q0 -145 -71 -227
q-72 -80 -206 -80t-257 98q-129 -88 -225 -98v219q94 31 126 128t31 326h-157z" />
    <glyph glyph-name="currency" unicode="&#xa4;" 
d="M225 739q0 -100 67 -170q67 -69 163 -69q97 0 163 70t66 169q0 100 -67 170t-163 70t-162 -70q-67 -70 -67 -170zM37 739q0 133 76 238l-97 94l103 109l96 -99q107 74 239 74t238 -74l99 99l102 -109l-96 -94q75 -103 75 -237t-75 -238l96 -94l-102 -109l-99 98
q-106 -73 -238 -73t-239 73l-96 -98l-103 109l97 94q-76 104 -76 237z" />
    <glyph glyph-name="yen" unicode="&#xa5;" 
d="M856 958v-172h-248l-55 -163h303v-172h-303v-451h-197v451h-303v172h303l-55 163h-248v172h178l-186 521h205l207 -613h4l198 613h205l-186 -521h178z" />
    <glyph glyph-name="brokenbar" unicode="&#xa6;" horiz-adv-x="454" 
d="M328 1499v-627h-201v627h201zM328 606v-626h-201v626h201z" />
    <glyph glyph-name="section" unicode="&#xa7;" horiz-adv-x="1024" 
d="M295 810q0 -42 142 -195t198 -152q39 1 67 27t27 68q0 42 -140 194t-204 151q-41 0 -66 -25q-24 -26 -24 -68zM526 1339q-106 0 -106 -94q0 -83 175 -234q73 -62 147 -130t124 -150q52 -82 52 -171t-60 -158t-162 -70q102 -98 102 -220t-75 -199t-187 -77t-190 41
t-166 125l150 117q66 -123 162 -123q119 0 118 102q0 85 -178 249q-74 69 -148 141t-125 155q-53 84 -53 171q0 86 62 148t166 72q-102 78 -102 203t75 194q76 69 219 68q90 0 168 -46t129 -118l-141 -102q-4 4 -15 17q-11 12 -17 18l-17 18q-53 53 -107 53z" />
    <glyph glyph-name="dieresis" unicode="&#xa8;" horiz-adv-x="454" 
d="M-45 1479h221v-222h-221v222zM500 1257h-221v222h221v-222z" />
    <glyph glyph-name="copyright" unicode="&#xa9;" horiz-adv-x="1638" 
d="M848 291q-194 0 -314 129q-120 130 -120 326t116 323q117 127 314 127q142 0 244 -82t124 -233h-159q-13 75 -71 115t-138 40q-113 0 -175 -79q-63 -79 -63 -207t68 -213q68 -86 164 -86q96 1 152 43t63 118h166q-25 -150 -128 -236t-243 -85zM1397 739q0 260 -167 430
t-412 170q-244 0 -410 -170t-166 -430t166 -430t410 -170t412 170q167 170 167 430zM819 -20q-319 0 -549 211q-229 212 -229 548t229 548q228 212 548 212t550 -212t229 -548q0 -336 -229 -548q-230 -211 -549 -211z" />
    <glyph glyph-name="ordfeminine" unicode="&#xaa;" horiz-adv-x="544" 
d="M188 987q0 -53 60 -53t88 61v150q-90 -45 -119 -79t-29 -79zM279 1499q217 0 217 -180v-426q0 -12 10 -70h-144q0 9 -4 23t-4 20q-74 -55 -161 -55t-125 41t-39 109q0 104 73 173q74 69 234 128v38q0 40 -16 58t-54 18q-74 0 -78 -84h-159q7 98 73 152t177 55z" />
    <glyph glyph-name="guillemotleft" unicode="&#xab;" horiz-adv-x="1024" 
d="M670 551l233 -315h-196l-236 317l236 313h202zM328 551l233 -315h-196l-236 317l236 313h202z" />
    <glyph glyph-name="logicalnot" unicode="&#xac;" horiz-adv-x="1228" 
d="M932 203v428h-836v200h1037v-628h-201z" />
    <glyph glyph-name="uni00AD" unicode="&#xad;" horiz-adv-x="681" 
d="M592 457h-502v188h502v-188z" />
    <glyph glyph-name="registered" unicode="&#xae;" horiz-adv-x="1638" 
d="M1397 739q0 260 -167 430t-412 170q-244 0 -410 -170t-166 -430t166 -430t410 -170t412 170q167 170 167 430zM819 -20q-319 0 -549 211q-229 212 -229 548t229 548q228 212 548 212t550 -212t229 -548q0 -336 -229 -548q-230 -211 -549 -211zM684 1034v-225h145
q90 0 128 29t38 89t-40 84t-134 23h-137zM684 678v-363h-168v850h322q166 0 248 -58q82 -59 81 -181q0 -221 -204 -240l204 -371h-186l-190 363h-107z" />
    <glyph glyph-name="macron" unicode="&#xaf;" horiz-adv-x="454" 
d="M-74 1305v131h602v-131h-602z" />
    <glyph glyph-name="degree" unicode="&#xb0;" horiz-adv-x="819" 
d="M410 913q-125 0 -210 85t-85 208t85 208t210 85t210 -85t85 -208t-85 -208t-210 -85zM410 1028q74 0 120 51t48 127q0 76 -48 127t-120 51q-74 0 -121 -51t-47 -127t47 -127t121 -51z" />
    <glyph glyph-name="plusminus" unicode="&#xb1;" horiz-adv-x="1228" 
d="M96 0v201h1037v-201h-1037zM514 756v280h201v-280h418v-201h-418v-281h-201v281h-418v201h418z" />
    <glyph glyph-name="twosuperior" unicode="&#xb2;" horiz-adv-x="544" 
d="M510 598h-481v166q156 178 227 299q72 121 72 215q0 57 -58 57q-29 0 -47 -20t-18 -49v-39h-176v41q0 98 74 165q75 67 181 67t170 -58q62 -57 62 -139q0 -125 -52 -243t-212 -298h258v-164z" />
    <glyph glyph-name="threesuperior" unicode="&#xb3;" horiz-adv-x="544" 
d="M41 856h176v-43q0 -63 55 -63t56 79v52q0 67 -26 89t-91 21v152q61 -1 87 23t26 101t-54 76q-51 0 -51 -57v-35h-172v41q1 92 63 150t172 57q110 1 170 -65t60 -154t-20 -134t-76 -77q66 -35 88 -81t20 -160q0 -114 -61 -178q-61 -65 -195 -64q-227 0 -227 219v51z" />
    <glyph glyph-name="acute" unicode="&#xb4;" horiz-adv-x="454" 
d="M520 1528l-268 -295h-170l162 295h276z" />
    <glyph glyph-name="mu" unicode="&#xb5;" 
d="M569 1102h230v-1102h-217v111q-59 -51 -81 -67q-78 -59 -161 -64v-328h-229v1450h229v-854q0 -80 82 -80q51 0 147 70v864z" />
    <glyph glyph-name="paragraph" unicode="&#xb6;" horiz-adv-x="1024" 
d="M399 -164v885q-176 0 -281 104t-106 269q0 385 426 385h590v-131h-115v-1512h-168v1512h-178v-1512h-168z" />
    <glyph glyph-name="periodcentered" unicode="&#xb7;" horiz-adv-x="454" 
d="M90 517q0 58 40 98t97 40t97 -40t41 -97q0 -57 -40 -97q-41 -40 -99 -40t-97 39t-39 97z" />
    <glyph glyph-name="cedilla" unicode="&#xb8;" horiz-adv-x="454" 
d="M144 -369q58 0 93 25q34 25 33 59q0 57 -64 70q-65 12 -106 -10l-45 37l140 188h98l-84 -123q29 4 43 4q76 -4 131 -44q55 -41 55 -123t-74 -140q-74 -57 -178 -57t-204 47l34 102q70 -35 128 -35z" />
    <glyph glyph-name="onesuperior" unicode="&#xb9;" horiz-adv-x="544" 
d="M193 598v686h-107v98q113 43 203 117h100v-901h-196z" />
    <glyph glyph-name="ordmasculine" unicode="&#xba;" horiz-adv-x="544" 
d="M41 1059v194q0 246 231 246t232 -246v-194q0 -248 -232 -248t-231 248zM336 1042v226q0 100 -64 100t-63 -100v-226q-1 -100 63 -100t64 100z" />
    <glyph glyph-name="guillemotright" unicode="&#xbb;" horiz-adv-x="1024" 
d="M121 236l233 315l-239 315h202l236 -313l-236 -317h-196zM463 236l233 315l-239 315h202l236 -313l-236 -317h-196z" />
    <glyph glyph-name="onequarter" unicode="&#xbc;" horiz-adv-x="1363" 
d="M209 598v686h-107v98q109 43 203 115h101v-899h-197zM338 -20h-186l839 1519h187zM1049 0v205h-291v164l264 518h195v-527h77v-155h-77v-205h-168zM1049 360v273h-5l-126 -273h131z" />
    <glyph glyph-name="onehalf" unicode="&#xbd;" horiz-adv-x="1363" 
d="M1296 0h-481v166q156 178 227 299q72 121 72 215q0 57 -57 57q-29 0 -47 -20t-19 -49v-39h-176v41q0 98 75 165t181 67q107 0 169 -58q62 -57 63 -139q-1 -125 -53 -243t-212 -298h258v-164zM205 598v686h-107v98q113 43 203 117h100v-901h-196zM322 -20h-187l840 1519
h186z" />
    <glyph glyph-name="threequarters" unicode="&#xbe;" horiz-adv-x="1363" 
d="M61 856h177v-43q0 -63 55 -63t55 79v52q0 67 -26 89t-91 21v152q61 -1 87 23t26 101t-53 76q-51 0 -51 -57v-35h-172v41q0 92 62 150t172 57q110 1 170 -65t60 -154t-20 -134t-76 -77q66 -35 88 -81t21 -160q1 -114 -61 -178q-62 -65 -195 -64q-227 0 -228 219v51z
M377 -20h-187l840 1519h187zM1049 0v205h-291v164l264 518h195v-527h77v-155h-77v-205h-168zM1049 360v273h-5l-126 -273h131z" />
    <glyph glyph-name="questiondown" unicode="&#xbf;" horiz-adv-x="796" 
d="M301 1102h242v-242h-242v242zM319 668h197v-172q0 -192 -159 -450q-54 -100 -54 -150t25 -78t61 -27q104 0 146 156l196 -74q-97 -271 -359 -271q-132 0 -218 80q-88 79 -88 195q0 71 22 135t40 90t62 88q44 60 66 99q23 39 43 111t20 157v111z" />
    <glyph glyph-name="Agrave" unicode="&#xc0;" 
d="M430 1556l-268 295h276l162 -295h-170zM315 328l-45 -328h-245l272 1479h315l273 -1479h-246l-45 328h-279zM453 1184l-101 -635h205l-100 635h-4z" />
    <glyph glyph-name="Aacute" unicode="&#xc1;" 
d="M748 1851l-269 -295h-170l162 295h277zM315 328l-45 -328h-245l272 1479h315l273 -1479h-246l-45 328h-279zM453 1184l-101 -635h205l-100 635h-4z" />
    <glyph glyph-name="Acircumflex" unicode="&#xc2;" 
d="M145 1556l197 295h225l197 -295h-189l-120 183l-121 -183h-189zM315 328l-45 -328h-245l272 1479h315l273 -1479h-246l-45 328h-279zM453 1184l-101 -635h205l-100 635h-4z" />
    <glyph glyph-name="Atilde" unicode="&#xc3;" 
d="M578 1583q-52 0 -132 40t-124 40t-64 -22t-22 -68h-115q47 242 211 242q47 0 135 -40t127 -40q76 0 80 90h114q-47 -242 -210 -242zM315 328l-45 -328h-245l272 1479h315l273 -1479h-246l-45 328h-279zM453 1184l-101 -635h205l-100 635h-4z" />
    <glyph glyph-name="Adieresis" unicode="&#xc4;" 
d="M182 1802h221v-221h-221v221zM727 1581h-221v221h221v-221zM315 328l-45 -328h-245l272 1479h315l273 -1479h-246l-45 328h-279zM453 1184l-101 -635h205l-100 635h-4z" />
    <glyph glyph-name="Aring" unicode="&#xc5;" 
d="M348 1765q0 -45 31 -75t76 -31q45 0 75 31q30 32 31 76q0 44 -31 75q-32 31 -76 31t-75 -31t-31 -76zM246 1765q0 85 61 147t147 62t148 -61t62 -147t-62 -148t-147 -62t-147 62t-62 147zM315 328l-45 -328h-245l272 1479h315l273 -1479h-246l-45 328h-279zM453 1184
l-101 -635h205l-100 635h-4z" />
    <glyph glyph-name="AE" unicode="&#xc6;" horiz-adv-x="1478" 
d="M1372 1479v-222h-434v-380h336v-222h-336v-434h463v-221h-717v348h-295l-106 -348h-258l477 1479h870zM684 569v725h-4l-221 -725h225z" />
    <glyph glyph-name="Ccedilla" unicode="&#xc7;" horiz-adv-x="1024" 
d="M889 985h-254v115q0 88 -35 133q-34 45 -98 45t-94 -39t-31 -125v-749q0 -86 31 -125q32 -39 102 -39t98 37t27 112v178h254v-170q0 -154 -83 -257t-241 -119l-71 -105q29 4 43 4q76 -4 131 -44q55 -41 55 -123t-75 -140t-178 -57q-103 0 -204 47l35 102q70 -35 128 -35
t92 25t34 59q0 57 -65 69t-105 -9l-45 37l125 170q-168 12 -255 116t-87 260v762q0 166 99 272q100 106 286 107q186 0 284 -115t97 -290v-109z" />
    <glyph glyph-name="Egrave" unicode="&#xc8;" 
d="M455 1556l-269 295h277l162 -295h-170zM831 0h-708v1479h680v-222h-426v-380h328v-222h-328v-434h454v-221z" />
    <glyph glyph-name="Eacute" unicode="&#xc9;" 
d="M772 1851l-268 -295h-170l162 295h276zM831 0h-708v1479h680v-222h-426v-380h328v-222h-328v-434h454v-221z" />
    <glyph glyph-name="Ecircumflex" unicode="&#xca;" 
d="M170 1556l197 295h225l196 -295h-188l-121 183l-121 -183h-188zM831 0h-708v1479h680v-222h-426v-380h328v-222h-328v-434h454v-221z" />
    <glyph glyph-name="Edieresis" unicode="&#xcb;" 
d="M207 1802h221v-221h-221v221zM752 1581h-222v221h222v-221zM831 0h-708v1479h680v-222h-426v-380h328v-222h-328v-434h454v-221z" />
    <glyph glyph-name="Igrave" unicode="&#xcc;" horiz-adv-x="569" 
d="M260 1556l-268 295h276l162 -295h-170zM412 0h-254v1479h254v-1479z" />
    <glyph glyph-name="Iacute" unicode="&#xcd;" horiz-adv-x="569" 
d="M578 1851l-269 -295h-170l162 295h277zM412 0h-254v1479h254v-1479z" />
    <glyph glyph-name="Icircumflex" unicode="&#xce;" horiz-adv-x="569" 
d="M-25 1556l197 295h225l197 -295h-188l-121 183l-121 -183h-189zM412 0h-254v1479h254v-1479z" />
    <glyph glyph-name="Idieresis" unicode="&#xcf;" horiz-adv-x="569" 
d="M12 1802h221v-221h-221v221zM557 1581h-221v221h221v-221zM412 0h-254v1479h254v-1479z" />
    <glyph glyph-name="Eth" unicode="&#xd0;" horiz-adv-x="1024" 
d="M528 877v-222h-151v-446h88q102 0 142 45t40 162v647q0 117 -40 162t-142 45h-88v-393h151zM41 655v222h82v602h377q401 0 401 -447v-586q0 -446 -401 -446h-377v655h-82z" />
    <glyph glyph-name="Ntilde" unicode="&#xd1;" horiz-adv-x="1024" 
d="M635 1583q-51 0 -131 40t-125 40t-65 -22t-21 -68h-115q47 242 211 242q47 0 135 -40t127 -40t59 21q19 22 21 69h115q-47 -242 -211 -242zM352 0h-229v1479h235l310 -846h4v846h229v-1479h-221l-324 924h-4v-924z" />
    <glyph glyph-name="Ograve" unicode="&#xd2;" horiz-adv-x="1024" 
d="M487 1556l-268 295h277l161 -295h-170zM377 1114v-749q0 -86 31 -125q30 -39 104 -39t104 39t31 125v749q0 86 -31 125q-30 39 -104 39t-104 -39t-31 -125zM123 358v762q0 166 99 272q100 106 290 107q190 0 290 -106t99 -273v-762q0 -166 -99 -272q-100 -106 -290 -106
t-290 106q-99 106 -99 272z" />
    <glyph glyph-name="Oacute" unicode="&#xd3;" horiz-adv-x="1024" 
d="M805 1851l-268 -295h-170l161 295h277zM377 1114v-749q0 -86 31 -125q30 -39 104 -39t104 39t31 125v749q0 86 -31 125q-30 39 -104 39t-104 -39t-31 -125zM123 358v762q0 166 99 272q100 106 290 107q190 0 290 -106t99 -273v-762q0 -166 -99 -272q-100 -106 -290 -106
t-290 106q-99 106 -99 272z" />
    <glyph glyph-name="Ocircumflex" unicode="&#xd4;" horiz-adv-x="1024" 
d="M203 1556l196 295h226l196 -295h-188l-121 183l-121 -183h-188zM377 1114v-749q0 -86 31 -125q30 -39 104 -39t104 39t31 125v749q0 86 -31 125q-30 39 -104 39t-104 -39t-31 -125zM123 358v762q0 166 99 272q100 106 290 107q190 0 290 -106t99 -273v-762
q0 -166 -99 -272q-100 -106 -290 -106t-290 106q-99 106 -99 272z" />
    <glyph glyph-name="Otilde" unicode="&#xd5;" horiz-adv-x="1024" 
d="M635 1583q-51 0 -131 40t-125 40t-65 -22t-21 -68h-115q47 242 211 242q47 0 135 -40t127 -40t59 21q19 22 21 69h115q-47 -242 -211 -242zM377 1114v-749q0 -86 31 -125q30 -39 104 -39t104 39t31 125v749q0 86 -31 125q-30 39 -104 39t-104 -39t-31 -125zM123 358v762
q0 166 99 272q100 106 290 107q190 0 290 -106t99 -273v-762q0 -166 -99 -272q-100 -106 -290 -106t-290 106q-99 106 -99 272z" />
    <glyph glyph-name="Odieresis" unicode="&#xd6;" horiz-adv-x="1024" 
d="M240 1802h221v-221h-221v221zM784 1581h-221v221h221v-221zM377 1114v-749q0 -86 31 -125q30 -39 104 -39t104 39t31 125v749q0 86 -31 125q-30 39 -104 39t-104 -39t-31 -125zM123 358v762q0 166 99 272q100 106 290 107q190 0 290 -106t99 -273v-762q0 -166 -99 -272
q-100 -106 -290 -106t-290 106q-99 106 -99 272z" />
    <glyph glyph-name="multiply" unicode="&#xd7;" horiz-adv-x="1228" 
d="M1133 895l-375 -377l375 -375l-142 -143l-377 377l-376 -377l-142 143l377 375l-377 377l142 141l376 -377l377 377z" />
    <glyph glyph-name="Oslash" unicode="&#xd8;" horiz-adv-x="1024" 
d="M123 358v762q0 166 99 272t290 107q125 0 211 -49l78 197h166l-121 -312q55 -90 55 -215v-762q0 -166 -99 -272t-290 -106q-104 -1 -184 34l-103 -260h-168l142 361q-76 96 -76 243zM507 201q79 0 109 39t31 125v503h-4l-240 -620q25 -47 104 -47zM512 1278
q-74 0 -104 -39t-31 -125v-588h4l258 666q-20 86 -127 86z" />
    <glyph glyph-name="Ugrave" unicode="&#xd9;" horiz-adv-x="1024" 
d="M487 1556l-268 295h277l161 -295h-170zM123 373v1106h254v-1117q0 -162 135 -161q135 0 135 161v1117h254v-1106q0 -189 -103 -291q-104 -102 -286 -102t-286 102q-103 103 -103 291z" />
    <glyph glyph-name="Uacute" unicode="&#xda;" horiz-adv-x="1024" 
d="M805 1851l-268 -295h-170l161 295h277zM123 373v1106h254v-1117q0 -162 135 -161q135 0 135 161v1117h254v-1106q0 -189 -103 -291q-104 -102 -286 -102t-286 102q-103 103 -103 291z" />
    <glyph glyph-name="Ucircumflex" unicode="&#xdb;" horiz-adv-x="1024" 
d="M203 1556l196 295h226l196 -295h-188l-121 183l-121 -183h-188zM123 373v1106h254v-1117q0 -162 135 -161q135 0 135 161v1117h254v-1106q0 -189 -103 -291q-104 -102 -286 -102t-286 102q-103 103 -103 291z" />
    <glyph glyph-name="Udieresis" unicode="&#xdc;" horiz-adv-x="1024" 
d="M240 1802h221v-221h-221v221zM784 1581h-221v221h221v-221zM123 373v1106h254v-1117q0 -162 135 -161q135 0 135 161v1117h254v-1106q0 -189 -103 -291q-104 -102 -286 -102t-286 102q-103 103 -103 291z" />
    <glyph glyph-name="Yacute" unicode="&#xdd;" 
d="M748 1851l-269 -295h-170l162 295h277zM582 0h-254v614l-308 865h259l178 -564h4l170 564h258l-307 -865v-614z" />
    <glyph glyph-name="Thorn" unicode="&#xde;" horiz-adv-x="1024" 
d="M377 983v-455h98q125 0 171 48t46 180q0 131 -46 179t-171 48h-98zM377 1479v-287h110q240 0 350 -101q109 -101 109 -335t-109 -335q-110 -101 -350 -102h-110v-319h-254v1479h254z" />
    <glyph glyph-name="germandbls" unicode="&#xdf;" 
d="M111 1106q0 385 343 385q332 0 330 -404q0 -254 -149 -274v-4q98 -31 143 -124t45 -295t-58 -296t-179 -94h-135v195q92 -22 117 26q17 33 18 105v206q0 160 -127 160v189q59 10 78 38q18 28 18 109v143q0 131 -106 132q-57 0 -83 -36t-26 -116v-1151h-229v1106z" />
    <glyph glyph-name="agrave" unicode="&#xe0;" 
d="M430 1233l-268 295h276l162 -295h-170zM299 268q0 -100 107 -100q81 0 153 102v289q-150 -87 -205 -151t-55 -140zM455 1122q333 0 333 -299v-706q0 -31 15 -117h-219q-2 16 -7 45t-6 41q-131 -106 -256 -106t-185 68t-60 179q0 176 116 289q117 113 373 211v66
q0 141 -113 141q-74 0 -100 -39t-31 -117h-229q8 166 106 255t263 89z" />
    <glyph glyph-name="aacute" unicode="&#xe1;" 
d="M748 1528l-269 -295h-170l162 295h277zM299 268q0 -100 107 -100q81 0 153 102v289q-150 -87 -205 -151t-55 -140zM455 1122q333 0 333 -299v-706q0 -31 15 -117h-219q-2 16 -7 45t-6 41q-131 -106 -256 -106t-185 68t-60 179q0 176 116 289q117 113 373 211v66
q0 141 -113 141q-74 0 -100 -39t-31 -117h-229q8 166 106 255t263 89z" />
    <glyph glyph-name="acircumflex" unicode="&#xe2;" 
d="M145 1233l197 295h225l197 -295h-189l-120 182l-121 -182h-189zM299 268q0 -100 107 -100q81 0 153 102v289q-150 -87 -205 -151t-55 -140zM455 1122q333 0 333 -299v-706q0 -31 15 -117h-219q-2 16 -7 45t-6 41q-131 -106 -256 -106t-185 68t-60 179q0 176 116 289
q117 113 373 211v66q0 141 -113 141q-74 0 -100 -39t-31 -117h-229q8 166 106 255t263 89z" />
    <glyph glyph-name="atilde" unicode="&#xe3;" 
d="M322 1339q-44 0 -65 -21q-19 -22 -21 -69h-115q47 242 211 242q47 0 135 -40t127 -40q76 0 80 90h114q-47 -242 -210 -241q-52 0 -132 40t-124 39zM299 268q0 -100 107 -100q81 0 153 102v289q-150 -87 -205 -151t-55 -140zM455 1122q333 0 333 -299v-706q0 -31 15 -117
h-219q-2 16 -7 45t-6 41q-131 -106 -256 -106t-185 68t-60 179q0 176 116 289q117 113 373 211v66q0 141 -113 141q-74 0 -100 -39t-31 -117h-229q8 166 106 255t263 89z" />
    <glyph glyph-name="adieresis" unicode="&#xe4;" 
d="M182 1479h221v-222h-221v222zM727 1257h-221v222h221v-222zM299 268q0 -100 107 -100q81 0 153 102v289q-150 -87 -205 -151t-55 -140zM455 1122q333 0 333 -299v-706q0 -31 15 -117h-219q-2 16 -7 45t-6 41q-131 -106 -256 -106t-185 68t-60 179q0 176 116 289
q117 113 373 211v66q0 141 -113 141q-74 0 -100 -39t-31 -117h-229q8 166 106 255t263 89z" />
    <glyph glyph-name="aring" unicode="&#xe5;" 
d="M348 1442q0 -45 31 -76t76 -31t75 31t31 76q0 45 -31 76q-32 30 -76 30t-75 -30t-31 -76zM246 1442q0 86 61 147t147 61t148 -60q62 -62 62 -148t-62 -148t-147 -61q-86 0 -148 61q-61 62 -61 148zM299 268q0 -100 107 -100q81 0 153 102v289q-150 -87 -205 -151
t-55 -140zM455 1122q333 0 333 -299v-706q0 -31 15 -117h-219q-2 16 -7 45t-6 41q-131 -106 -256 -106t-185 68t-60 179q0 176 116 289q117 113 373 211v66q0 141 -113 141q-74 0 -100 -39t-31 -117h-229q8 166 106 255t263 89z" />
    <glyph glyph-name="ae" unicode="&#xe6;" horiz-adv-x="1366" 
d="M1268 508h-482v-160q0 -180 126 -180t126 180v25h230q-6 -393 -357 -393q-193 0 -278 143q-162 -143 -298 -143t-201 68t-64 179q0 176 115 289q116 113 372 211v66q0 141 -111 141q-74 0 -100 -39t-31 -117h-229q8 164 101 254t253 90t246 -102q80 102 244 102
q338 0 338 -409v-205zM786 696h252v58q0 180 -126 180t-126 -180v-58zM299 268q0 -100 107 -100q83 0 151 102v289q-150 -87 -204 -151t-54 -140z" />
    <glyph glyph-name="ccedilla" unicode="&#xe7;" 
d="M582 725v29q0 180 -127 180t-127 -180v-406q0 -180 127 -180t127 180v70h229v-29q0 -377 -303 -407l-72 -105q29 4 43 4q76 -4 131 -44q56 -41 56 -123t-75 -140t-178 -57q-103 0 -204 47l35 102q70 -35 128 -35t92 25t34 59q0 57 -65 69t-105 -9l-45 37l125 170
q-309 25 -310 407v324q0 410 357 409q350 0 356 -397h-229z" />
    <glyph glyph-name="egrave" unicode="&#xe8;" 
d="M430 1233l-268 295h276l162 -295h-170zM811 713v-205h-483v-160q0 -180 127 -180t127 180v25h229q-6 -393 -356 -393q-356 0 -357 409v324q0 410 357 409q356 1 356 -409zM328 696h254v58q0 180 -127 180t-127 -180v-58z" />
    <glyph glyph-name="eacute" unicode="&#xe9;" 
d="M748 1528l-269 -295h-170l162 295h277zM811 713v-205h-483v-160q0 -180 127 -180t127 180v25h229q-6 -393 -356 -393q-356 0 -357 409v324q0 410 357 409q356 1 356 -409zM328 696h254v58q0 180 -127 180t-127 -180v-58z" />
    <glyph glyph-name="ecircumflex" unicode="&#xea;" 
d="M145 1233l197 295h225l197 -295h-189l-120 182l-121 -182h-189zM811 713v-205h-483v-160q0 -180 127 -180t127 180v25h229q-6 -393 -356 -393q-356 0 -357 409v324q0 410 357 409q356 1 356 -409zM328 696h254v58q0 180 -127 180t-127 -180v-58z" />
    <glyph glyph-name="edieresis" unicode="&#xeb;" 
d="M182 1479h221v-222h-221v222zM727 1257h-221v222h221v-222zM811 713v-205h-483v-160q0 -180 127 -180t127 180v25h229q-6 -393 -356 -393q-356 0 -357 409v324q0 410 357 409q356 1 356 -409zM328 696h254v58q0 180 -127 180t-127 -180v-58z" />
    <glyph glyph-name="igrave" unicode="&#xec;" horiz-adv-x="454" 
d="M203 1233l-269 295h277l162 -295h-170zM342 0h-229v1102h229v-1102z" />
    <glyph glyph-name="iacute" unicode="&#xed;" horiz-adv-x="454" 
d="M520 1528l-268 -295h-170l162 295h276zM342 0h-229v1102h229v-1102z" />
    <glyph glyph-name="icircumflex" unicode="&#xee;" horiz-adv-x="454" 
d="M-82 1233l197 295h225l197 -295h-189l-121 182l-121 -182h-188zM342 0h-229v1102h229v-1102z" />
    <glyph glyph-name="idieresis" unicode="&#xef;" horiz-adv-x="454" 
d="M-45 1479h221v-222h-221v222zM500 1257h-221v222h221v-222zM342 0h-229v1102h229v-1102z" />
    <glyph glyph-name="eth" unicode="&#xf0;" 
d="M811 643v-287q0 -377 -356 -376q-356 0 -357 376v287q0 377 357 377q18 0 75 -4q-6 68 -59 164l-215 -82l-55 147l190 72q-47 70 -96 113l176 49q51 -37 96 -95l224 86l61 -143l-195 -76q154 -272 154 -608zM582 334v332q0 166 -127 165q-127 0 -127 -165v-332
q0 -166 127 -166t127 166z" />
    <glyph glyph-name="ntilde" unicode="&#xf1;" 
d="M322 1339q-44 0 -65 -21q-19 -22 -21 -69h-115q47 242 211 242q47 0 135 -40t127 -40q76 0 80 90h114q-47 -242 -210 -241q-52 0 -132 40t-124 39zM340 0h-229v1102h217v-111q66 55 90 73t74 38q52 20 128 20t128 -61t51 -170v-891h-230v854q0 80 -82 80q-51 0 -147 -70
v-864z" />
    <glyph glyph-name="ograve" unicode="&#xf2;" 
d="M430 1233l-268 295h276l162 -295h-170zM98 389v324q0 410 357 409q356 0 356 -409v-324q0 -410 -356 -409q-357 -1 -357 409zM582 348v406q0 180 -127 180t-127 -180v-406q0 -180 127 -180t127 180z" />
    <glyph glyph-name="oacute" unicode="&#xf3;" 
d="M748 1528l-269 -295h-170l162 295h277zM98 389v324q0 410 357 409q356 0 356 -409v-324q0 -410 -356 -409q-357 -1 -357 409zM582 348v406q0 180 -127 180t-127 -180v-406q0 -180 127 -180t127 180z" />
    <glyph glyph-name="ocircumflex" unicode="&#xf4;" 
d="M145 1233l197 295h225l197 -295h-189l-120 182l-121 -182h-189zM98 389v324q0 410 357 409q356 0 356 -409v-324q0 -410 -356 -409q-357 -1 -357 409zM582 348v406q0 180 -127 180t-127 -180v-406q0 -180 127 -180t127 180z" />
    <glyph glyph-name="otilde" unicode="&#xf5;" 
d="M322 1339q-44 0 -65 -21q-19 -22 -21 -69h-115q47 242 211 242q47 0 135 -40t127 -40q76 0 80 90h114q-47 -242 -210 -241q-52 0 -132 40t-124 39zM98 389v324q0 410 357 409q356 0 356 -409v-324q0 -410 -356 -409q-357 -1 -357 409zM582 348v406q0 180 -127 180
t-127 -180v-406q0 -180 127 -180t127 180z" />
    <glyph glyph-name="odieresis" unicode="&#xf6;" 
d="M182 1479h221v-222h-221v222zM727 1257h-221v222h221v-222zM98 389v324q0 410 357 409q356 0 356 -409v-324q0 -410 -356 -409q-357 -1 -357 409zM582 348v406q0 180 -127 180t-127 -180v-406q0 -180 127 -180t127 180z" />
    <glyph glyph-name="divide" unicode="&#xf7;" horiz-adv-x="1228" 
d="M451 94q0 68 48 116q47 48 115 48t116 -48t48 -116t-48 -116t-116 -48t-116 48t-47 116zM451 942q0 68 48 116q47 48 115 48t116 -48t48 -116t-48 -116t-116 -48t-116 48t-47 116zM1133 418h-1037v200h1037v-200z" />
    <glyph glyph-name="oslash" unicode="&#xf8;" 
d="M455 934q-127 0 -127 -180v-400h4l205 551q-29 29 -82 29zM98 713q0 410 357 409q78 0 145 -22l84 223h139l-110 -293q98 -104 98 -317v-324q0 -410 -356 -409q-81 -1 -142 22l-92 -248h-135l119 314q-106 104 -107 321v324zM455 168q127 0 127 180v375h-4l-201 -530
q33 -25 78 -25z" />
    <glyph glyph-name="ugrave" unicode="&#xf9;" 
d="M430 1233l-268 295h276l162 -295h-170zM569 1102h230v-1102h-217v111q-66 -55 -90 -73t-74 -38q-51 -20 -128 -20t-128 61t-51 170v891h229v-854q0 -80 82 -80q51 0 147 70v864z" />
    <glyph glyph-name="uacute" unicode="&#xfa;" 
d="M748 1528l-269 -295h-170l162 295h277zM569 1102h230v-1102h-217v111q-66 -55 -90 -73t-74 -38q-51 -20 -128 -20t-128 61t-51 170v891h229v-854q0 -80 82 -80q51 0 147 70v864z" />
    <glyph glyph-name="ucircumflex" unicode="&#xfb;" 
d="M145 1233l197 295h225l197 -295h-189l-120 182l-121 -182h-189zM569 1102h230v-1102h-217v111q-66 -55 -90 -73t-74 -38q-51 -20 -128 -20t-128 61t-51 170v891h229v-854q0 -80 82 -80q51 0 147 70v864z" />
    <glyph glyph-name="udieresis" unicode="&#xfc;" 
d="M182 1479h221v-222h-221v222zM727 1257h-221v222h221v-222zM569 1102h230v-1102h-217v111q-66 -55 -90 -73t-74 -38q-51 -20 -128 -20t-128 61t-51 170v891h229v-854q0 -80 82 -80q51 0 147 70v864z" />
    <glyph glyph-name="yacute" unicode="&#xfd;" horiz-adv-x="796" 
d="M692 1528l-268 -295h-170l162 295h276zM174 -346h-96v188h55q84 0 118 43t34 115t-25 166l-240 936h234l147 -705h5l139 705h231l-289 -1184q-37 -147 -108 -206q-72 -58 -205 -58z" />
    <glyph glyph-name="thorn" unicode="&#xfe;" 
d="M471 168q111 0 111 178v410q0 178 -111 178q-51 0 -131 -57v-652q80 -57 131 -57zM111 1479h229v-482h4q49 68 100 97q51 28 147 28t158 -80t62 -227v-528q0 -147 -62 -227t-161 -80t-166 50q-25 17 -82 64v-442h-229v1827z" />
    <glyph glyph-name="ydieresis" unicode="&#xff;" horiz-adv-x="796" 
d="M127 1479h221v-222h-221v222zM672 1257h-221v222h221v-222zM174 -346h-96v188h55q84 0 118 43t34 115t-25 166l-240 936h234l147 -705h5l139 705h231l-289 -1184q-37 -147 -108 -206q-72 -58 -205 -58z" />
    <glyph glyph-name="dotlessi" unicode="&#x131;" horiz-adv-x="454" 
d="M342 0h-229v1102h229v-1102z" />
    <glyph glyph-name="Lslash" unicode="&#x141;" horiz-adv-x="796" 
d="M365 221h399v-221h-653v594l-111 -45v168l111 45v717h254v-617l237 96v-167l-237 -97v-473z" />
    <glyph glyph-name="lslash" unicode="&#x142;" horiz-adv-x="454" 
d="M342 0h-229v682l-144 -74v152l144 74v645h229v-529l143 74v-152l-143 -73v-799z" />
    <glyph glyph-name="OE" unicode="&#x152;" horiz-adv-x="1478" 
d="M1401 0h-848q-211 0 -321 116t-109 335v577q0 219 109 335q110 116 321 116h819v-222h-442v-380h344v-222h-344v-434h471v-221zM676 379v727q0 154 -141 154q-158 0 -158 -195v-645q0 -195 158 -195q141 0 141 154z" />
    <glyph glyph-name="oe" unicode="&#x153;" horiz-adv-x="1366" 
d="M1268 508h-469v-160q-1 -96 25 -138t87 -42q127 0 127 180v25h230q-4 -185 -85 -289t-252 -104t-243 126q-68 -126 -248 -126q-342 1 -342 409v324q0 190 81 300t251 109q199 0 262 -125q74 125 244 125t251 -110t81 -299v-205zM799 696h239v58q0 180 -127 180
q-61 0 -87 -42t-25 -138v-58zM569 348v406q0 180 -114 180q-127 0 -127 -180v-406q0 -180 127 -180q114 0 114 180z" />
    <glyph glyph-name="Scaron" unicode="&#x160;" 
d="M764 1851l-197 -295h-225l-197 295h189l121 -182l120 182h189zM451 1278q-127 0 -127 -145q0 -120 182 -268q76 -62 152 -132t128 -167q53 -97 54 -208q0 -180 -110 -279t-286 -99t-277 118t-110 291l242 35q8 -109 48 -166t106 -57q65 0 105 35q40 36 40 108
q0 131 -182 279q-76 61 -152 128t-129 165t-53 214q0 176 102 272t272 97q170 0 262 -98q91 -98 109 -260l-241 -27q-6 88 -45 126t-90 38z" />
    <glyph glyph-name="scaron" unicode="&#x161;" horiz-adv-x="796" 
d="M709 1528l-197 -295h-225l-197 295h189l120 -182l121 182h189zM397 934q-45 0 -73 -23t-27 -67q0 -77 152 -180q63 -44 126 -94t107 -127t45 -167q0 -143 -88 -220t-233 -76q-295 0 -351 307l201 55q27 -174 152 -174q46 0 74 26t28 74q0 88 -152 192q-63 44 -127 93
q-63 49 -107 120t-44 154q0 129 88 212t219 83t220 -80t116 -213l-195 -32q-25 137 -131 137z" />
    <glyph glyph-name="Ydieresis" unicode="&#x178;" 
d="M182 1802h221v-221h-221v221zM727 1581h-221v221h221v-221zM582 0h-254v614l-308 865h259l178 -564h4l170 564h258l-307 -865v-614z" />
    <glyph glyph-name="Zcaron" unicode="&#x17d;" 
d="M764 1851l-197 -295h-225l-197 295h189l121 -182l120 182h189zM147 1257v222h672v-242l-467 -1016h467v-221h-729v242l473 1015h-416z" />
    <glyph glyph-name="zcaron" unicode="&#x17e;" horiz-adv-x="796" 
d="M709 1528l-197 -295h-225l-197 295h189l120 -182l121 182h189zM90 913v189h645v-189l-428 -725h428v-188h-674v188l420 725h-391z" />
    <glyph glyph-name="florin" unicode="&#x192;" 
d="M129 -160q106 0 140 152t73 749h-190v172h204q33 586 387 586q14 0 97 -10v-193q-47 27 -113 27q-67 0 -107 -90t-47 -320h209v-172h-217q-38 -621 -105 -813t-171 -245q-59 -31 -119 -31t-100 10v188q20 -10 59 -10z" />
    <glyph glyph-name="circumflex" unicode="&#x2c6;" horiz-adv-x="454" 
d="M-82 1233l197 295h225l197 -295h-189l-121 182l-121 -182h-188z" />
    <glyph glyph-name="caron" unicode="&#x2c7;" horiz-adv-x="454" 
d="M537 1528l-197 -295h-225l-197 295h188l121 -182l121 182h189z" />
    <glyph glyph-name="uni02C9" unicode="&#x2c9;" horiz-adv-x="454" 
d="M-74 1305v131h602v-131h-602z" />
    <glyph glyph-name="breve" unicode="&#x2d8;" horiz-adv-x="454" 
d="M227 1243q-141 0 -216 82t-85 209h119q19 -152 183 -152t182 152h118q-10 -127 -85 -209t-216 -82z" />
    <glyph glyph-name="dotaccent" unicode="&#x2d9;" horiz-adv-x="454" 
d="M117 1479h221v-222h-221v222z" />
    <glyph glyph-name="ring" unicode="&#x2da;" horiz-adv-x="454" 
d="M121 1442q0 -45 31 -76q32 -31 76 -31t75 31t31 76t-31 76q-31 30 -76 30t-75 -30t-31 -76zM18 1442q0 86 62 147t147 61t147 -60q62 -62 62 -148t-61 -148t-147 -61q-86 -1 -148 61t-62 148z" />
    <glyph glyph-name="ogonek" unicode="&#x2db;" horiz-adv-x="454" 
d="M326 -334q70 0 184 82l39 -74q-172 -123 -291 -123q-86 1 -143 51t-58 138q1 227 441 303v-25q-272 -109 -273 -256q0 -44 29 -70t72 -26z" />
    <glyph glyph-name="tilde" unicode="&#x2dc;" horiz-adv-x="454" 
d="M94 1339q-45 1 -64 -21t-22 -69h-114q47 242 210 242q48 0 136 -40t126 -40q76 0 80 90h115q-47 -242 -211 -241q-51 0 -131 40t-125 39z" />
    <glyph glyph-name="hungarumlaut" unicode="&#x2dd;" horiz-adv-x="454" 
d="M684 1528l-268 -295h-170l162 295h276zM324 1528l-256 -295h-162l141 295h277z" />
    <glyph glyph-name="uni03A9" unicode="&#x3a9;" horiz-adv-x="1132" 
d="M281 186v9q-197 260 -197 616q0 291 136 483t351 193q151 -1 261 -101q210 -191 210 -557q0 -190 -58 -359t-140 -275v-9h223v-186h-420v135q76 74 128 241t52 390t-66 374q-67 150 -193 150t-198 -145t-71 -369q0 -224 53 -398q53 -173 127 -243v-135h-420v186h222z" />
    <glyph glyph-name="uni03BC" unicode="&#x3bc;" 
d="M569 1102h230v-1102h-217v111q-59 -51 -81 -67q-78 -59 -161 -64v-328h-229v1450h229v-854q0 -80 82 -80q51 0 147 70v864z" />
    <glyph glyph-name="pi" unicode="&#x3c0;" horiz-adv-x="1003" 
d="M844 901v-618q0 -186 22 -283h-202q-31 76 -31 279v622h-230q-7 -203 -37 -470t-75 -431h-203q45 182 75 445t34 456q-98 0 -158 -18l-25 153q78 63 273 64h688l-14 -199h-117z" />
    <glyph glyph-name="endash" unicode="&#x2013;" horiz-adv-x="1024" 
d="M1024 477h-1024v148h1024v-148z" />
    <glyph glyph-name="emdash" unicode="&#x2014;" horiz-adv-x="2048" 
d="M2048 477h-2048v148h2048v-148z" />
    <glyph glyph-name="quoteleft" unicode="&#x2018;" horiz-adv-x="454" 
d="M106 1004v241l142 254h108l-100 -254h92v-241h-242z" />
    <glyph glyph-name="quoteright" unicode="&#x2019;" horiz-adv-x="454" 
d="M348 1479v-242l-141 -254h-109l101 254h-93v242h242z" />
    <glyph glyph-name="quotesinglbase" unicode="&#x201a;" horiz-adv-x="454" 
d="M348 242v-242l-141 -254h-109l101 254h-93v242h242z" />
    <glyph glyph-name="quotedblleft" unicode="&#x201c;" 
d="M522 1004v241l142 254h108l-100 -254h92v-241h-242zM143 1004v241l142 254h108l-100 -254h92v-241h-242z" />
    <glyph glyph-name="quotedblright" unicode="&#x201d;" 
d="M387 1479v-242l-141 -254h-109l101 254h-93v242h242zM766 1479v-242l-141 -254h-109l100 254h-92v242h242z" />
    <glyph glyph-name="quotedblbase" unicode="&#x201e;" 
d="M387 242v-242l-141 -254h-109l101 254h-93v242h242zM766 242v-242l-141 -254h-109l100 254h-92v242h242z" />
    <glyph glyph-name="dagger" unicode="&#x2020;" horiz-adv-x="1024" 
d="M889 1176v-254l-342 86l92 -346q-43 -143 -88 -826h-78q-45 682 -88 826l92 346l-342 -86v254l334 -86l-80 409h246l-80 -409z" />
    <glyph glyph-name="daggerdbl" unicode="&#x2021;" horiz-adv-x="1024" 
d="M889 1176v-254l-342 86l92 -340l-92 -340l342 86v-254l-334 86l80 -410h-246l80 410l-334 -86v254l342 -86l-92 340l92 340l-342 -86v254l334 -86l-80 409h246l-80 -409z" />
    <glyph glyph-name="bullet" unicode="&#x2022;" horiz-adv-x="1024" 
d="M141 739q0 153 108 261q107 108 261 108t262 -108t109 -262q0 -154 -109 -262q-108 -108 -262 -108t-262 109q-108 108 -107 262z" />
    <glyph glyph-name="ellipsis" unicode="&#x2026;" horiz-adv-x="2048" 
d="M1823 0h-234v242h234v-242zM1141 0h-234v242h234v-242zM459 0h-234v242h234v-242z" />
    <glyph glyph-name="perthousand" unicode="&#x2030;" horiz-adv-x="2048" 
d="M197 -20l841 1519h144l-842 -1519h-143zM1569 307q0 -59 42 -101t101 -42t102 42q42 42 41 101q0 59 -41 102q-42 42 -102 42q-60 -1 -101 -43q-42 -42 -42 -101zM1405 307q0 127 90 217t217 90t217 -90t90 -217t-90 -217t-217 -90t-217 90t-90 217zM844 307
q0 -59 42 -101t101 -42t102 42q42 42 41 101q0 59 -41 102q-41 42 -101 42q-60 -1 -102 -43t-42 -101zM680 307q0 127 90 217t217 90t217 -90t90 -217t-90 -217t-217 -90t-217 90t-90 217zM193 1171q-1 -59 41 -101t102 -42t101 42q42 42 42 101t-42 101t-101 43
q-59 0 -102 -42q-41 -43 -41 -102zM29 1171q0 127 90 217t217 91q127 0 217 -90q90 -89 90 -217t-90 -218t-217 -90t-217 90t-90 217z" />
    <glyph glyph-name="guilsinglleft" unicode="&#x2039;" horiz-adv-x="681" 
d="M328 551l233 -315h-196l-236 317l236 313h202z" />
    <glyph glyph-name="guilsinglright" unicode="&#x203a;" horiz-adv-x="681" 
d="M121 236l233 315l-239 315h202l236 -313l-236 -317h-196z" />
    <glyph glyph-name="fraction" unicode="&#x2044;" horiz-adv-x="342" 
d="M-156 -20h-186l840 1519h186z" />
    <glyph glyph-name="Euro" unicode="&#x20ac;" horiz-adv-x="1024" 
d="M209 645v164h-123l47 172h76v139q0 174 123 276t303 103q180 0 309 -117l-63 -233q-98 129 -246 129q-74 0 -123 -41t-49 -123v-133h371l-48 -172h-323v-164h282l-47 -172h-235v-98q0 -88 50 -132t126 -44q143 0 242 90v-238q-121 -71 -279 -71t-276 103t-117 275v115
h-123l47 172h76z" />
    <glyph glyph-name="afii61289" unicode="&#x2113;" horiz-adv-x="851" 
d="M387 1090v-328q199 287 199 516q0 172 -92 172q-107 0 -107 -360zM492 -12q-160 0 -233 101t-77 265v29q-66 -61 -92 -84l-51 119q125 125 141 145v555q0 248 87 374t207 126t176 -96t57 -258q0 -332 -320 -719v-113q0 -270 150 -270q110 0 202 172l84 -88
q-115 -258 -331 -258z" />
    <glyph glyph-name="trademark" unicode="&#x2122;" horiz-adv-x="2027" 
d="M758 1479v-154h-246v-690h-197v690h-245v154h688zM1843 1479v-844h-188v618h-4l-226 -618h-141l-225 618h-4v-618h-189v844h279l211 -555l211 555h276z" />
    <glyph glyph-name="Omega" unicode="&#x2126;" horiz-adv-x="1132" 
d="M281 186v9q-197 260 -197 616q0 291 136 483t351 193q151 -1 261 -101q210 -191 210 -557q0 -190 -58 -359t-140 -275v-9h223v-186h-420v135q76 74 128 241t52 390t-66 374q-67 150 -193 150t-198 -145t-71 -369q0 -224 53 -398q53 -173 127 -243v-135h-420v186h222z" />
    <glyph glyph-name="estimated" unicode="&#x212e;" horiz-adv-x="1832" 
d="M1448 772v416q0 31 -18 49q-222 217 -516 217t-513 -223q-20 -20 -20 -51v-408q0 -14 12 -14h1047q8 0 8 14zM1759 719h-1366q-12 0 -12 -10v-414q0 -25 18 -47q219 -225 529 -225t532 251h121q-115 -135 -291 -214t-377 -78q-348 0 -595 221q-246 221 -246 535t246 538
q247 223 597 223t597 -222t247 -540v-18z" />
    <glyph glyph-name="partialdiff" unicode="&#x2202;" horiz-adv-x="968" 
d="M434 186h2q90 0 149 150q58 150 72 352q-16 60 -63 108t-123 48t-132 -114t-56 -253q-1 -139 39 -215t112 -76zM436 1661q182 0 313 -197q132 -196 132 -604t-122 -638t-345 -230q-160 0 -250 141t-90 367t108 379q109 152 260 151q84 0 144 -42t86 -91h2v66
q0 207 -78 357t-197 150t-217 -98l-57 178q129 111 311 111z" />
    <glyph glyph-name="Delta" unicode="&#x2206;" horiz-adv-x="1087" 
d="M262 184h557l-178 633q-12 57 -49 195t-45 188h-6q-6 -47 -41 -174t-47 -182zM51 0v137l377 1358h246l360 -1354v-141h-983z" />
    <glyph glyph-name="product" unicode="&#x220f;" horiz-adv-x="1218" 
d="M1165 1255h-161v-1458h-213v1458h-367v-1458h-211v1458h-162v211h1114v-211z" />
    <glyph glyph-name="summation" unicode="&#x2211;" horiz-adv-x="935" 
d="M899 -203h-854v156l414 684l-402 668v161h813v-190h-538v-6l362 -590l-405 -660v-8h610v-215z" />
    <glyph glyph-name="minus" unicode="&#x2212;" horiz-adv-x="1228" 
d="M1133 418h-1037v200h1037v-200z" />
    <glyph glyph-name="uni2215" unicode="&#x2215;" horiz-adv-x="342" 
d="M-156 -20h-186l840 1519h186z" />
    <glyph glyph-name="uni2219" unicode="&#x2219;" horiz-adv-x="454" 
d="M90 517q0 58 40 98t97 40t97 -40t41 -97q0 -57 -40 -97q-41 -40 -99 -40t-97 39t-39 97z" />
    <glyph glyph-name="radical" unicode="&#x221a;" horiz-adv-x="1021" 
d="M1018 1763l-375 -2054h-170l-250 930l-129 -49l-33 133l295 117l166 -645q33 -190 33 -193l4 -2q12 119 25 203l288 1560h146z" />
    <glyph glyph-name="infinity" unicode="&#x221e;" horiz-adv-x="1433" 
d="M1049 793h-2q-76 0 -155 -76t-104 -113q92 -114 144 -154t125 -40q72 0 117 58t45 136t-47 134t-123 55zM393 410h2q49 0 99 30t80 62q28 31 77 90q-55 74 -80 104t-75 63q-50 34 -120 34q-69 1 -115 -55t-46 -139t51 -136t127 -53zM1346 608v-2q0 -145 -88 -233
t-191 -88q-102 0 -180 47t-166 164q-84 -102 -163 -156q-80 -54 -190 -55q-110 0 -195 89t-85 226t86 225t217 88q174 0 334 -206q73 83 125 128q89 78 212 78q122 0 203 -84t81 -221z" />
    <glyph glyph-name="integral" unicode="&#x222b;" horiz-adv-x="729" 
d="M576 1640q-40 0 -82 -62q-41 -62 -41 -288q0 -225 11 -559t11 -524q0 -299 -65 -426q-66 -135 -230 -135q-82 0 -127 28l29 168q49 -18 72 -18q47 0 73 43q45 74 45 299t-12 567t-12 520q0 179 24 285t80 176q76 94 209 94q62 1 107 -22l-23 -160q-29 14 -69 14z" />
    <glyph glyph-name="approxequal" unicode="&#x2248;" horiz-adv-x="948" 
d="M642 297q-77 0 -189 74q-95 67 -141 67q-74 -1 -123 -70q-15 -24 -39 -69l-82 66q39 88 103 142q65 54 131 54t101 -15t68 -34l31 -18q6 -4 22 -16t24 -15q8 -4 20 -12q13 -7 36 -17t59 -10q35 0 66 34t70 105l80 -65q-37 -88 -99 -144t-138 -57zM640 639q-79 0 -187 72
q-156 112 -235 30q-34 -35 -68 -102l-82 66q39 90 103 144q65 54 141 54t130 -35q32 -16 51 -30t42 -26q23 -14 51 -30t69 -16t73 32t71 105l80 -65q-35 -88 -97 -144t-142 -55z" />
    <glyph glyph-name="notequal" unicode="&#x2260;" horiz-adv-x="948" 
d="M860 854v-133h-276l-105 -254h381v-131h-426l-84 -203l-100 37l69 166h-233v131h279l102 254h-381v133h426l84 199l100 -37l-67 -162h231z" />
    <glyph glyph-name="lessequal" unicode="&#x2264;" horiz-adv-x="948" 
d="M864 6h-776v137h776v-137zM856 217l-760 428v141l760 431v-160l-637 -338v-4l637 -338v-160z" />
    <glyph glyph-name="greaterequal" unicode="&#x2265;" horiz-adv-x="948" 
d="M864 6h-774v137h774v-137zM100 1217l760 -431v-141l-760 -428v160l635 338v4l-635 338v160z" />
    <glyph glyph-name="lozenge" unicode="&#x25ca;" horiz-adv-x="1019" 
d="M737 727l-186 490q-20 63 -33 141h-8q-8 -63 -33 -141l-192 -480l188 -499q12 -39 31 -132h8q16 88 31 127zM930 733l-338 -821h-176l-324 821l338 821h176z" />
    </font>
</defs>
</svg>
