<?xml version="1.0" standalone="no"?>
<!DOCTYPE svg PUBLIC "-//W3C//DTD SVG 1.1//EN" "http://www.w3.org/Graphics/SVG/1.1/DTD/svg11.dtd" >
<svg xmlns="http://www.w3.org/2000/svg">
<metadata>
Created by FontPrep 20130207 at Wed Sep  5 14:39:05 2018
 By Nathan Dana
Digitized data copyright (c) 2010-2011, Google Corporation.
</metadata>
<defs>
<font id="09be4bfe8975a657af6444a6f1d73848" horiz-adv-x='1024' >
  <font-face 
    font-family="OpenSans-Light"
    font-weight="200"
    font-stretch="normal"
    units-per-em="2048"
    panose-1="2 0 3 3 0 0 0 0 0 0"
    ascent="1638"
    descent="-410"
    x-height="1087"
    cap-height="1462"
    bbox="-184 -506 1776 1907"
    underline-thickness="102"
    underline-position="-103"
    unicode-range="U+0020-00FF"
  />
<missing-glyph horiz-adv-x="1024" 
 />
    <glyph glyph-name=".notdef" horiz-adv-x="1024" 
 />
    <glyph glyph-name=".null" horiz-adv-x="0" 
 />
    <glyph glyph-name="nonmarkingreturn" horiz-adv-x="682" 
 />
    <glyph glyph-name="space" unicode=" " horiz-adv-x="532" 
 />
    <glyph glyph-name="exclam" unicode="!" horiz-adv-x="492" 
d="M164 78q0 98 81 98t81 -98t-81 -98t-81 98zM276 377h-61l-29 1085h119z" />
    <glyph glyph-name="quotedbl" unicode="&#x22;" horiz-adv-x="723" 
d="M590 1462l-33 -528h-61l-33 528h127zM260 1462l-33 -528h-61l-33 528h127z" />
    <glyph glyph-name="numbersign" unicode="#" horiz-adv-x="1323" 
d="M440 530h363l78 398h-363zM1194 530v-79h-320l-86 -451h-90l88 451h-360l-86 -451h-88l86 451h-283v79h299l76 398h-297v80h311l86 454h91l-89 -454h365l88 454h86l-88 -454h285v-80h-301l-76 -398h303z" />
    <glyph glyph-name="dollar" unicode="$" 
d="M297 1048q0 -84 57 -140t183 -93v453q-120 -16 -180 -76t-60 -144zM881 438q1 92 -61 146t-202 96v-471q123 14 193 75q70 62 70 154zM991 436q-1 -130 -99 -212q-98 -84 -274 -107v-236h-81v232q-89 1 -197 21t-176 52v103q73 -35 177 -61t196 -25v508q-141 43 -213 87
q-136 84 -136 251q0 123 94 209q97 85 255 104v192h81v-190q196 -9 351 -72l-33 -90q-141 62 -318 72v-486q214 -66 294 -144t79 -208z" />
    <glyph glyph-name="percent" unicode="%" horiz-adv-x="1653" 
d="M1280 1462l-811 -1462h-96l811 1462h96zM1250 895q138 1 214 -119t76 -342t-74 -339q-74 -118 -212 -118t-214 121q-75 124 -75 344t73 337q74 116 212 116zM1063 438q0 -370 186 -370q193 0 193 370t-193 369q-95 0 -141 -91q-45 -93 -45 -278zM396 1483q140 0 216 -120
q76 -119 76 -341t-75 -340t-212 -117t-213 121t-75 342q0 222 72 338q71 117 211 117zM397 1395q-186 0 -186 -371t186 -371q193 0 193 373q0 186 -50 276q-48 93 -143 93z" />
    <glyph glyph-name="ampersand" unicode="&#x26;" horiz-adv-x="1460" 
d="M848 1184q0 95 -61 153t-173 58q-112 -1 -176 -59q-65 -58 -65 -148t41 -160q41 -68 151 -172q159 86 221 160t62 168zM561 70q148 0 252 42t209 148l-483 485q-135 -71 -195 -121q-118 -97 -117 -245q0 -147 93 -228t241 -81zM123 371q0 136 73 235q75 98 275 205
l-75 82q-130 140 -130 282t96 226t252 84q158 0 249 -81t91 -224q0 -106 -70 -194t-253 -193l452 -457q118 138 179 358h96q-63 -245 -209 -426l266 -268h-135l-193 197q-92 -91 -163 -131q-150 -86 -356 -86q-207 0 -326 104t-119 287z" />
    <glyph glyph-name="quotesingle" unicode="'" horiz-adv-x="393" 
d="M260 1462l-33 -528h-61l-33 528h127z" />
    <glyph glyph-name="parenleft" unicode="(" horiz-adv-x="557" 
d="M82 564q0 262 77 492t224 406h113q-146 -178 -226 -410t-80 -489q0 -484 304 -887h-111q-147 170 -224 398t-77 490z" />
    <glyph glyph-name="parenright" unicode=")" horiz-adv-x="557" 
d="M475 561q0 -537 -301 -885h-111q304 403 304 887q1 259 -79 489t-227 410h113q148 -176 224 -408t77 -493z" />
    <glyph glyph-name="asterisk" unicode="*" horiz-adv-x="1128" 
d="M631 1556l-37 -405l405 104l21 -131l-395 -39l247 -340l-124 -71l-191 379l-180 -379l-125 71l242 340l-390 39l19 131l401 -104l-39 405h146z" />
    <glyph glyph-name="plus" unicode="+" 
d="M625 764h434v-82h-434v-432h-82v432h-432v82h432v434h82v-434z" />
    <glyph glyph-name="comma" unicode="," horiz-adv-x="440" 
d="M295 238l12 -21q-75 -264 -174 -481h-65q77 277 110 502h117z" />
    <glyph glyph-name="hyphen" unicode="-" horiz-adv-x="659" 
d="M92 512v82h475v-82h-475z" />
    <glyph glyph-name="period" unicode="." horiz-adv-x="487" 
d="M162 78q0 98 81 98t81 -98t-81 -98t-81 98z" />
    <glyph glyph-name="slash" unicode="/" horiz-adv-x="698" 
d="M674 1462l-545 -1462h-104l544 1462h105z" />
    <glyph glyph-name="zero" unicode="0" 
d="M582 1395q-188 1 -274 -167t-85 -500t89 -495t274 -163t272 168t86 494t-86 495q-88 168 -276 168zM1055 728q0 -748 -469 -748q-233 0 -352 192t-119 567q0 376 115 562q117 184 350 184q233 1 354 -189t121 -568z" />
    <glyph glyph-name="one" unicode="1" 
d="M682 0h-98v1065q0 145 12 301q-20 -20 -34 -31t-306 -241l-57 71l397 297h86v-1462z" />
    <glyph glyph-name="two" unicode="2" 
d="M1028 0h-915v88l389 406q164 170 230 260q128 176 128 344q0 130 -86 212t-223 83q-184 0 -350 -133l-54 69q182 154 389 154t318 -102q109 -103 109 -263t-74 -298q-74 -137 -268 -335l-375 -385v-4h782v-96z" />
    <glyph glyph-name="three" unicode="3" 
d="M922 400q0 310 -447 311h-158v96h160q181 1 288 87t107 220t-86 210q-88 73 -212 73t-213 -30q-88 -30 -203 -105l-49 67q87 72 207 113t241 41q202 1 312 -95t110 -270q-1 -135 -87 -229t-228 -119v-6q176 -22 268 -112t92 -242q0 -206 -140 -318t-380 -112
q-242 0 -410 83v99q184 -94 395 -94t322 89t111 243z" />
    <glyph glyph-name="four" unicode="4" 
d="M795 459v418q0 294 14 507h-8q-17 -33 -123 -188l-516 -737h633zM1141 373h-252v-373h-94v373h-752v67l725 1030h121v-1011h252v-86z" />
    <glyph glyph-name="five" unicode="5" 
d="M900 105q-140 -125 -382 -125t-375 83v103q189 -98 376 -98t303 102t116 269q0 168 -113 261t-307 93q-130 0 -272 -39l-60 39l58 669h704v-96h-610l-45 -516q159 29 244 29q233 0 368 -113q135 -112 135 -324t-140 -337z" />
    <glyph glyph-name="six" unicode="6" 
d="M610 68q164 0 255 103t91 282t-90 273t-245 95q-102 -1 -189 -45q-88 -44 -140 -118t-52 -171q0 -96 49 -197q49 -102 134 -162t187 -60zM612 903q214 0 332 -117q115 -118 115 -332t-122 -344t-336 -130t-342 169t-128 463q0 579 297 779q143 94 344 94q92 0 172 -23
v-88q-73 27 -176 27q-248 -1 -386 -179t-153 -517h13q156 198 370 198z" />
    <glyph glyph-name="seven" unicode="7" 
d="M109 1366v96h946v-73l-604 -1389h-117l602 1366h-827z" />
    <glyph glyph-name="eight" unicode="8" 
d="M895 1144q0 113 -84 183q-85 70 -229 70q-144 1 -229 -69t-85 -191q0 -73 30 -123t92 -98q61 -43 200 -101q164 63 234 139t71 190zM223 356q0 -134 93 -210q94 -76 260 -76t266 80t100 212t-78 208t-303 163q-183 -71 -261 -157t-77 -220zM121 375q0 261 340 399
q-161 78 -227 162t-66 194t53 190t147 124t214 43q185 0 299 -95t114 -257q1 -114 -69 -198t-230 -159q192 -80 270 -174t78 -227q0 -181 -127 -289t-343 -108t-334 100t-119 295z" />
    <glyph glyph-name="nine" unicode="9" 
d="M559 1397q-158 1 -252 -105t-94 -286t87 -271q87 -90 249 -90q101 0 189 45t138 119q52 75 52 171t-47 199t-129 161q-84 57 -193 57zM395 63q248 0 387 178t156 521h-12q-74 -95 -174 -147t-211 -52q-204 1 -317 113t-113 325t124 349t324 135q143 0 251 -75
q108 -74 167 -222t59 -346q0 -580 -296 -770q-144 -92 -349 -92q-102 0 -192 26v86q91 -29 196 -29z" />
    <glyph glyph-name="colon" unicode=":" horiz-adv-x="487" 
d="M162 971q0 98 81 98t81 -98q0 -53 -24 -76t-58 -23t-57 23t-23 76zM162 78q0 98 81 98t81 -98t-81 -98t-81 98z" />
    <glyph glyph-name="semicolon" unicode=";" horiz-adv-x="487" 
d="M162 971q0 98 81 98t81 -98q0 -53 -24 -76t-58 -23t-57 23t-23 76zM76 -264q78 266 110 502h117l12 -21q-75 -264 -174 -481h-65z" />
    <glyph glyph-name="less" unicode="&#x3c;" 
d="M1059 266l-948 416v61l948 474v-95l-823 -405l823 -355v-96z" />
    <glyph glyph-name="equal" unicode="=" 
d="M111 477v82h948v-82h-948zM111 885v82h948v-82h-948z" />
    <glyph glyph-name="greater" unicode="&#x3e;" 
d="M111 362l823 355l-823 405v95l948 -474v-61l-948 -416v96z" />
    <glyph glyph-name="question" unicode="?" horiz-adv-x="862" 
d="M260 78q0 98 81 98t81 -98t-81 -98t-81 98zM409 1483q169 -1 274 -99t105 -270q0 -117 -68 -214q-34 -44 -64 -70t-64 -56t-74 -62q-40 -33 -76 -80t-52 -96t-15 -145v-14h-82v37q0 121 37 201q40 80 139 167l91 79q72 61 103 121t31 138q0 127 -83 202t-225 75t-292 -74
l-37 80q183 80 352 80z" />
    <glyph glyph-name="at" unicode="@" horiz-adv-x="1815" 
d="M958 967q-149 0 -237 -102q-88 -103 -88 -261q-1 -158 55 -230t174 -71q255 0 273 346l16 291q-80 27 -193 27zM846 -106q193 0 420 88v-99q-204 -80 -414 -80q-349 1 -544 201t-195 557q0 256 109 461q108 206 307 318t431 112t398 -89t255 -255t89 -388
q0 -223 -91 -361t-245 -138q-90 -1 -145 53t-64 148h-4q-88 -201 -313 -201q-148 1 -229 97t-81 284t121 316t314 129q136 0 286 -41l-22 -464v-30q1 -104 35 -156t116 -53q104 1 169 117t65 307t-79 336t-225 224t-357 79q-210 0 -383 -100q-177 -99 -271 -280t-94 -419
q1 -321 167 -497t474 -176z" />
    <glyph glyph-name="A" unicode="A" horiz-adv-x="1229" 
d="M354 608h523l-199 527q-24 58 -60 172q-26 -92 -59 -174zM911 516h-594l-204 -516h-113l588 1468h65l576 -1468h-115z" />
    <glyph glyph-name="B" unicode="B" horiz-adv-x="1284" 
d="M309 721v-631h344q406 0 406 330q0 301 -428 301h-322zM309 811h322q205 0 299 68q94 69 94 215t-106 212t-314 66h-295v-561zM207 1462h401q270 0 398 -92t127 -278q0 -126 -77 -212q-78 -84 -227 -108v-6q176 -26 258 -110t82 -236q1 -200 -133 -310t-381 -110h-448
v1462z" />
    <glyph glyph-name="C" unicode="C" horiz-adv-x="1272" 
d="M831 1391q-275 0 -433 -176q-158 -175 -158 -485t149 -483t426 -173q182 0 338 47v-90q-145 -51 -362 -51q-308 0 -485 200t-177 555q1 223 85 393t242 262t370 93q211 0 382 -80l-41 -92q-162 80 -336 80z" />
    <glyph glyph-name="D" unicode="D" horiz-adv-x="1446" 
d="M1206 741q0 315 -160 473t-468 158h-269v-1282h242q655 0 655 651zM602 1462q351 0 533 -183t182 -543t-193 -548q-194 -188 -567 -188h-350v1462h395z" />
    <glyph glyph-name="E" unicode="E" horiz-adv-x="1130" 
d="M1006 0h-799v1462h799v-94h-697v-553h658v-94h-658v-627h697v-94z" />
    <glyph glyph-name="F" unicode="F" horiz-adv-x="1028" 
d="M309 0h-102v1462h801v-94h-699v-620h660v-95h-660v-653z" />
    <glyph glyph-name="G" unicode="G" horiz-adv-x="1481" 
d="M782 737h539v-667q-211 -90 -477 -90q-347 0 -531 195t-184 554q-1 223 91 395t262 266t401 95q231 0 420 -88l-41 -92q-189 88 -394 88q-291 0 -458 -179q-170 -176 -170 -492t161 -484t473 -168q202 0 343 57v514h-435v96z" />
    <glyph glyph-name="H" unicode="H" horiz-adv-x="1473" 
d="M1266 0h-103v719h-854v-719h-102v1462h102v-649h854v649h103v-1462z" />
    <glyph glyph-name="I" unicode="I" horiz-adv-x="516" 
d="M207 0v1462h102v-1462h-102z" />
    <glyph glyph-name="J" unicode="J" horiz-adv-x="506" 
d="M-33 -369q-93 0 -151 27v88q80 -20 149 -20q242 0 242 264v1472h102v-1462q0 -369 -342 -369z" />
    <glyph glyph-name="K" unicode="K" horiz-adv-x="1190" 
d="M309 0h-102v1462h102v-760l162 162l573 598h130l-599 -618l615 -844h-125l-561 772l-195 -172v-600z" />
    <glyph glyph-name="L" unicode="L" horiz-adv-x="1051" 
d="M207 0v1462h102v-1366h697v-96h-799z" />
    <glyph glyph-name="M" unicode="M" horiz-adv-x="1767" 
d="M305 1096v-1096h-98v1462h158l518 -1286h6l518 1286h154v-1462h-103v1108q0 116 12 240h-8l-547 -1348h-65l-545 1350h-8q8 -133 8 -254z" />
    <glyph glyph-name="N" unicode="N" horiz-adv-x="1477" 
d="M1270 0h-103l-866 1298h-8q12 -232 12 -350v-948h-98v1462h102l865 -1296h6q-9 180 -9 342v954h99v-1462z" />
    <glyph glyph-name="O" unicode="O" horiz-adv-x="1565" 
d="M784 1386q-260 0 -402 -170t-142 -482q0 -314 140 -486t402 -172q263 0 404 170q139 171 139 486t-139 486q-141 168 -402 168zM786 1485q304 0 477 -202q173 -201 173 -549t-174 -552q-176 -202 -480 -202t-479 202q-174 204 -174 552t175 550q178 201 482 201z" />
    <glyph glyph-name="P" unicode="P" horiz-adv-x="1198" 
d="M309 692h201q248 0 358 82t109 257q1 175 -103 257t-323 82h-242v-678zM1087 1042q-1 -212 -145 -325t-407 -113h-226v-604h-102v1462h358q522 0 522 -420z" />
    <glyph glyph-name="Q" unicode="Q" horiz-adv-x="1565" 
d="M784 1386q-260 0 -402 -170t-142 -482q0 -314 140 -486t402 -172q263 0 404 170q139 171 139 486t-139 486q-141 168 -402 168zM1436 733q0 -293 -126 -486t-349 -247l333 -348h-166l-282 330l-33 -2h-31q-304 0 -479 202q-174 204 -174 552t175 550q178 201 482 201
t477 -202t173 -550z" />
    <glyph glyph-name="R" unicode="R" horiz-adv-x="1217" 
d="M309 725h279q186 0 288 82q102 83 101 247q0 164 -100 240t-326 76h-242v-645zM1087 1059q0 -307 -313 -393l397 -666h-122l-377 637h-363v-637h-102v1462h348q270 0 402 -100q130 -102 130 -303z" />
    <glyph glyph-name="S" unicode="S" horiz-adv-x="1116" 
d="M1014 377q0 -183 -135 -290t-379 -107t-389 59v102q156 -67 403 -67q178 0 286 82q105 84 105 217q-1 82 -35 137q-34 56 -113 100t-267 108t-274 156q-86 90 -87 246q0 156 129 259q128 104 332 104t385 -78l-37 -88q-180 76 -345 76t-261 -75t-96 -204q0 -80 29 -133
t97 -94t232 -99q165 -58 253 -114q87 -58 127 -128t40 -169z" />
    <glyph glyph-name="T" unicode="T" horiz-adv-x="1073" 
d="M588 0h-103v1366h-475v96h1053v-96h-475v-1366z" />
    <glyph glyph-name="U" unicode="U" horiz-adv-x="1473" 
d="M1282 1462v-946q0 -252 -146 -394t-402 -142q-257 0 -402 142q-142 145 -142 398v942h103v-946q0 -210 117 -328q116 -118 328 -118t327 115t115 321v956h102z" />
    <glyph glyph-name="V" unicode="V" horiz-adv-x="1182" 
d="M1071 1462h111l-547 -1462h-90l-545 1462h109l368 -995q85 -228 113 -338q18 68 79 233z" />
    <glyph glyph-name="W" unicode="W" horiz-adv-x="1827" 
d="M1372 0h-84l-321 1128q-41 140 -60 228q-17 -89 -44 -193t-324 -1163h-86l-402 1462h107l256 -942q25 -95 34 -130t20 -76t32 -152q24 134 102 413l250 887h113l293 -1018q49 -168 73 -284q13 72 33 153q21 81 309 1149h103z" />
    <glyph glyph-name="X" unicode="X" horiz-adv-x="1102" 
d="M1102 0h-117l-432 682l-440 -682h-113l492 762l-447 700h115l395 -626l401 626h109l-453 -698z" />
    <glyph glyph-name="Y" unicode="Y" horiz-adv-x="1081" 
d="M594 0h-105v557l-489 905h117l426 -800l428 800h110l-487 -897v-565z" />
    <glyph glyph-name="Z" unicode="Z" horiz-adv-x="1180" 
d="M1098 0h-1016v76l856 1290h-817v96h954v-76l-858 -1290h881v-96z" />
    <glyph glyph-name="bracketleft" unicode="[" horiz-adv-x="653" 
d="M602 -324h-428v1786h428v-94h-330v-1597h330v-95z" />
    <glyph glyph-name="backslash" unicode="\" horiz-adv-x="698" 
d="M127 1462l547 -1462h-103l-546 1462h102z" />
    <glyph glyph-name="bracketright" unicode="]" horiz-adv-x="653" 
d="M51 -229h330v1597h-330v94h428v-1786h-428v95z" />
    <glyph glyph-name="asciicircum" unicode="^" 
d="M88 561l465 912h68l460 -912h-100l-395 791l-398 -791h-100z" />
    <glyph glyph-name="underscore" unicode="_" horiz-adv-x="842" 
d="M846 -266h-850v82h850v-82z" />
    <glyph glyph-name="grave" unicode="`" horiz-adv-x="1182" 
d="M776 1241h-69q-96 79 -189 171q-92 94 -125 140v17h142q25 -46 97 -140t144 -172v-16z" />
    <glyph glyph-name="a" unicode="a" horiz-adv-x="1085" 
d="M442 70q175 0 275 99t100 277v107l-190 -8q-227 -10 -327 -71q-97 -62 -97 -176q1 -114 63 -172q62 -56 176 -56zM416 -20q-140 0 -230 82q-88 82 -88 234t132 240q134 88 384 93l207 6v72q0 155 -63 234q-62 79 -208 79t-308 -84l-37 86q179 84 357 84t265 -92
q88 -92 88 -291v-723h-73l-25 172h-8q-85 -108 -169 -150t-224 -42z" />
    <glyph glyph-name="b" unicode="b" horiz-adv-x="1219" 
d="M639 1018q-192 0 -275 -110t-83 -363v-17q1 -246 87 -353t266 -107t271 124q90 126 90 355q0 471 -356 471zM635 1108q235 0 349 -144q116 -141 116 -416q0 -276 -121 -422t-342 -146q-116 0 -209 48t-147 136h-9l-28 -164h-62v1556h99v-391q0 -97 -4 -162l-3 -85h7
q119 190 354 190z" />
    <glyph glyph-name="c" unicode="c" horiz-adv-x="973" 
d="M616 -20q-233 0 -365 147t-132 413q1 266 137 417t375 151q142 0 270 -49l-27 -88q-143 47 -245 47q-200 0 -303 -123t-103 -349t103 -352q104 -124 288 -124q146 0 275 53v-92q-103 -51 -273 -51z" />
    <glyph glyph-name="d" unicode="d" horiz-adv-x="1219" 
d="M585 1018q-362 0 -362 -488q0 -462 359 -462q184 0 270 107t86 353v17q0 252 -84 363q-86 110 -269 110zM580 1108q119 0 205 -44t153 -146h6q-6 126 -6 247v391h98v-1556h-65l-25 166h-8q-124 -186 -352 -186t-348 140q-119 140 -119 416q1 276 119 424t342 148z" />
    <glyph glyph-name="e" unicode="e" horiz-adv-x="1124" 
d="M585 1020q-151 0 -245 -103t-111 -299h672q0 189 -82 296q-83 106 -234 106zM963 49q-157 -69 -342 -69q-237 0 -369 146t-133 406q-1 262 127 419t333 157t316 -134t111 -364v-80h-783q1 -224 104 -342t294 -118q97 0 167 14t175 55v-90z" />
    <glyph glyph-name="f" unicode="f" horiz-adv-x="614" 
d="M586 1001h-256v-1001h-99v1001h-202v58l202 37v84q0 198 73 294q75 93 241 93q90 0 180 -27l-23 -86q-78 25 -176 25q-98 -1 -147 -69t-49 -222v-101h256v-86z" />
    <glyph glyph-name="g" unicode="g" horiz-adv-x="1071" 
d="M233 752q0 -130 76 -200q77 -70 209 -69q132 0 204 69t73 204q0 134 -74 204q-75 70 -207 70t-206 -74t-75 -204zM150 -184q0 -224 333 -224q428 0 428 273q1 99 -67 143t-217 43h-178q-299 0 -299 -235zM285 250q-1 -52 39 -76t133 -24h190q177 0 271 -71t94 -212
q0 -173 -140 -265q-136 -94 -370 -94t-346 79t-111 206q0 127 70 201t188 100q-49 22 -79 60t-29 88q0 110 139 192q-95 39 -148 123t-53 191q0 162 103 262q106 98 280 98q108 0 166 -21h348v-69l-225 -14q90 -112 90 -258t-105 -242q-102 -98 -280 -98q-74 0 -104 6
q-121 -66 -121 -162z" />
    <glyph glyph-name="h" unicode="h" horiz-adv-x="1208" 
d="M940 0v705q0 165 -69 239t-214 74q-195 0 -285 -98t-91 -320v-600h-99v1556h99v-495l-5 -139h7q63 98 155 142t230 44q370 0 370 -397v-711h-98z" />
    <glyph glyph-name="i" unicode="i" horiz-adv-x="463" 
d="M231 1292q-63 0 -63 96t64 97q64 0 65 -96q1 -45 -17 -71t-49 -26zM281 0h-99v1087h99v-1087z" />
    <glyph glyph-name="j" unicode="j" horiz-adv-x="463" 
d="M231 1292q-63 0 -63 96t64 97q64 0 65 -96q1 -45 -17 -71t-49 -26zM37 -492q-81 0 -135 25v86q71 -20 129 -20q151 0 151 176v1312h99v-1298q1 -135 -63 -208t-181 -73z" />
    <glyph glyph-name="k" unicode="k" horiz-adv-x="991" 
d="M281 0h-99v1556h99v-780l-7 -299h5l555 610h120l-428 -464l465 -623h-119l-413 549l-178 -162v-387z" />
    <glyph glyph-name="l" unicode="l" horiz-adv-x="463" 
d="M281 0h-99v1556h99v-1556z" />
    <glyph glyph-name="m" unicode="m" horiz-adv-x="1808" 
d="M1540 0v713q0 157 -62 231t-209 74q-308 0 -308 -381v-637h-101v743q0 275 -252 275q-171 0 -249 -100t-78 -318v-600h-99v1087h82l21 -149h6q45 82 128 126t183 44q257 0 330 -193h4q52 93 142 143q91 50 204 50q178 0 267 -95t89 -302v-711h-98z" />
    <glyph glyph-name="n" unicode="n" horiz-adv-x="1208" 
d="M940 0v705q0 165 -69 239t-214 74q-195 0 -285 -98t-91 -320v-600h-99v1087h84l19 -149h6q107 170 377 170q370 0 370 -397v-711h-98z" />
    <glyph glyph-name="o" unicode="o" horiz-adv-x="1200" 
d="M223 545q1 -225 99 -350t278 -125t279 125q98 125 98 349t-99 350q-100 124 -280 124t-277 -124q-98 -124 -98 -349zM1081 542q0 -264 -129 -413t-356 -149q-142 0 -251 68t-167 198q-58 129 -59 299q0 265 129 415q130 148 354 148t352 -150q127 -152 127 -416z" />
    <glyph glyph-name="p" unicode="p" horiz-adv-x="1219" 
d="M632 68q179 0 272 124q91 126 91 347q0 479 -346 479q-190 0 -279 -105t-89 -340v-32q0 -253 85 -364q87 -109 266 -109zM647 -20q-250 0 -366 188h-7l3 -84q4 -65 4 -162v-414h-99v1579h84l19 -155h6q113 176 346 176t348 -144t115 -417t-121 -420t-332 -147z" />
    <glyph glyph-name="q" unicode="q" horiz-adv-x="1219" 
d="M586 68q184 0 268 109t84 366v12q0 245 -85 354t-265 109t-274 -124q-91 -126 -91 -359t89 -351q90 -116 274 -116zM569 -20q-214 0 -332 142t-118 414t118 422q119 150 347 150t344 -174h6l18 153h84v-1579h-98v414q0 122 6 248h-6q-118 -190 -369 -190z" />
    <glyph glyph-name="r" unicode="r" horiz-adv-x="797" 
d="M589 1108q87 0 169 -14l-19 -95q-70 17 -141 17q-140 0 -228 -118t-89 -298v-600h-99v1087h84l10 -196h7q68 120 143 169q76 48 163 48z" />
    <glyph glyph-name="s" unicode="s" horiz-adv-x="954" 
d="M745 59q-111 -79 -323 -79t-338 67v107q164 -82 336 -82t255 53t83 139t-66 142q-69 56 -225 112t-222 98q-134 86 -134 219t103 203q102 70 282 70t338 -66l-37 -90q-161 66 -295 66t-212 -44t-79 -126q1 -82 61 -132t221 -108t229 -100q134 -85 134 -228
q0 -142 -111 -221z" />
    <glyph glyph-name="t" unicode="t" horiz-adv-x="686" 
d="M287 313q-1 -125 43 -185t140 -60t163 16v-80q-72 -24 -166 -24q-144 0 -213 77q-68 77 -68 242v702h-161v58l161 45l50 246h51v-263h319v-86h-319v-688z" />
    <glyph glyph-name="u" unicode="u" horiz-adv-x="1208" 
d="M268 1087v-704q0 -165 69 -239t214 -74q195 0 286 97t91 320v600h98v-1087h-84l-18 150h-6q-107 -170 -377 -170q-371 0 -371 397v710h98z" />
    <glyph glyph-name="v" unicode="v" horiz-adv-x="940" 
d="M420 0l-420 1087h102l281 -739q56 -145 84 -248h6q40 134 84 250l281 737h102l-420 -1087h-100z" />
    <glyph glyph-name="w" unicode="w" horiz-adv-x="1481" 
d="M1051 0l-238 727q-24 78 -59 217h-6l-66 -219l-242 -725h-98l-311 1087h106l174 -630q58 -221 80 -344h6q58 231 86 311l224 663h90l213 -661q71 -232 88 -311h6q7 61 80 348l166 624h100l-295 -1087h-104z" />
    <glyph glyph-name="x" unicode="x" horiz-adv-x="1020" 
d="M449 559l-379 528h114l324 -458l321 458h109l-373 -528l400 -559h-115l-342 485l-344 -485h-109z" />
    <glyph glyph-name="y" unicode="y" horiz-adv-x="940" 
d="M141 -492q-67 0 -137 21v86q56 -16 116 -16q60 -1 98 23t72 78t71 153t55 147l-416 1087h102l230 -610q101 -271 133 -379h6q37 113 137 385l230 604h102l-487 -1263q-58 -153 -99 -208q-82 -108 -213 -108z" />
    <glyph glyph-name="z" unicode="z" horiz-adv-x="944" 
d="M858 0h-776v63l645 936h-598v88h727v-63l-649 -936h651v-88z" />
    <glyph glyph-name="braceleft" unicode="{" horiz-adv-x="723" 
d="M389 -27q0 -102 59 -153q61 -50 203 -53v-91q-196 0 -278 74t-82 232v337q0 204 -230 209v80q122 2 176 51t54 148v350q0 299 360 305v-90q-137 -4 -199 -58t-63 -157v-305q1 -130 -43 -194t-143 -85v-8q97 -19 141 -83t45 -187v-322z" />
    <glyph glyph-name="bar" unicode="|" horiz-adv-x="1108" 
d="M508 1561h92v-2067h-92v2067z" />
    <glyph glyph-name="braceright" unicode="}" horiz-adv-x="723" 
d="M334 295q0 122 44 187q45 64 142 83v8q-97 19 -142 84q-44 65 -44 195v305q0 103 -62 157t-200 58v90q174 0 267 -77t93 -228v-350q0 -99 54 -149q56 -49 176 -50v-80q-230 -5 -230 -209v-337q0 -154 -82 -230t-278 -76v91q140 1 201 52t61 154v322z" />
    <glyph glyph-name="asciitilde" unicode="~" 
d="M829 616q-119 0 -259 64t-242 65q-103 0 -217 -120v94q108 110 233 110q56 -1 115 -15t169 -64t212 -50q101 0 219 125v-96q-111 -113 -230 -113z" />
    <glyph glyph-name="uni00A0" unicode="&#xa0;" horiz-adv-x="532" 
 />
    <glyph glyph-name="exclamdown" unicode="&#xa1;" horiz-adv-x="492" 
d="M166 1010q0 98 81 98t81 -98q0 -54 -24 -76t-58 -23q-34 0 -57 23t-23 76zM215 711h61l29 -1086h-119z" />
    <glyph glyph-name="cent" unicode="&#xa2;" 
d="M211 744q1 234 103 383t288 182v174h82v-166h14q132 0 275 -55l-31 -84q-134 51 -237 51q-187 -1 -289 -123t-101 -352t101 -356q100 -124 280 -124q132 0 267 58v-92q-110 -56 -267 -56h-12v-204h-82v210q-186 30 -288 175t-103 379z" />
    <glyph glyph-name="sterling" unicode="&#xa3;" 
d="M412 420q0 -233 -148 -324h809v-96h-995v84q109 21 172 110q61 90 61 224v258h-211v82h211v297q-1 203 97 315t277 111q179 0 335 -68l-35 -86q-157 66 -297 66t-208 -81q-68 -82 -68 -253v-301h411v-82h-411v-256z" />
    <glyph glyph-name="currency" unicode="&#xa4;" 
d="M584 395q134 0 229 95q94 96 94 232q-1 136 -95 234t-228 97q-134 1 -230 -97q-94 -98 -94 -233t94 -232q96 -96 230 -96zM991 721q0 -149 -90 -254l139 -141l-59 -60l-137 142q-110 -93 -262 -93t-258 93l-138 -142l-59 60l139 141q-90 107 -90 255t90 259l-139 141
l59 60l138 -142q104 93 260 93t260 -93l137 142l59 -60l-139 -141q90 -111 90 -260z" />
    <glyph glyph-name="yen" unicode="&#xa5;" 
d="M975 674v-82h-338v-205h338v-82h-338v-305h-105v305h-337v82h337v205h-337v82h278l-430 788h117l426 -796l428 796h110l-432 -788h283z" />
    <glyph glyph-name="brokenbar" unicode="&#xa6;" horiz-adv-x="1108" 
d="M508 258h92v-764h-92v764zM508 1561h92v-764h-92v764z" />
    <glyph glyph-name="section" unicode="&#xa7;" horiz-adv-x="1057" 
d="M246 829q0 -70 30 -108t104 -74t253 -100q82 40 126 98t44 120q1 62 -31 102q-32 39 -108 77t-238 88q-80 -23 -130 -78t-50 -125zM889 276q-1 -134 -113 -207t-304 -73t-343 67v95q181 -78 338 -78t241 49t85 141q0 56 -26 88q-48 60 -264 139q-215 79 -287 147t-71 160
t51 162t138 107q-86 47 -125 103t-39 135q0 117 101 183t277 67q176 0 335 -64l-35 -80q-159 60 -299 60q-139 -1 -210 -45t-71 -108t25 -99q25 -34 83 -64q58 -29 220 -85q164 -56 236 -124t71 -170q0 -174 -186 -274q85 -42 129 -96t43 -136z" />
    <glyph glyph-name="dieresis" unicode="&#xa8;" horiz-adv-x="1182" 
d="M717 1389q-1 86 63 86t64 -86t-64 -86t-63 86zM336 1389q0 86 64 86t63 -86q1 -86 -63 -86t-64 86z" />
    <glyph glyph-name="copyright" unicode="&#xa9;" horiz-adv-x="1704" 
d="M193 728q0 -178 89 -326q86 -150 239 -240t329 -90t332 88q153 92 241 242t88 326q0 175 -85 328q-88 153 -241 244t-332 91t-329 -89q-153 -87 -242 -242q-89 -154 -89 -332zM100 731q0 199 100 375t276 276t376 101q200 -1 376 -101t276 -275t100 -375t-98 -372
q-98 -174 -272 -277t-382 -103t-382 103t-272 275t-98 373zM594 733q0 -364 295 -364q85 0 198 43v-88q-102 -45 -208 -45q-187 0 -289 115q-101 116 -101 327t111 337q112 124 297 124q120 0 227 -52l-37 -83q-98 45 -190 45q-141 0 -223 -94q-80 -97 -80 -265z" />
    <glyph glyph-name="ordfeminine" unicode="&#xaa;" horiz-adv-x="686" 
d="M168 1000q0 -124 144 -123q75 0 130 50q52 50 52 142v64l-88 -5q-238 -13 -238 -128zM494 1247q0 152 -154 152q-78 0 -186 -49l-33 73q118 56 231 56q228 0 228 -215v-451h-68l-25 72q-84 -84 -191 -84q-106 -1 -162 49t-56 144q0 190 321 206l95 4v43z" />
    <glyph glyph-name="guillemotleft" unicode="&#xab;" horiz-adv-x="885" 
d="M442 543l310 393l61 -43l-254 -363l254 -362l-61 -43l-310 391v27zM82 543l309 393l62 -43l-254 -363l254 -362l-62 -43l-309 391v27z" />
    <glyph glyph-name="logicalnot" unicode="&#xac;" 
d="M1038 764v-494h-82v412h-845v82h927z" />
    <glyph glyph-name="uni00AD" unicode="&#xad;" horiz-adv-x="659" 
d="M92 512v82h475v-82h-475z" />
    <glyph glyph-name="registered" unicode="&#xae;" horiz-adv-x="1704" 
d="M193 728q0 -178 89 -326q86 -150 239 -240t329 -90t332 88q153 92 241 242t88 326q0 175 -85 328q-88 153 -241 244t-332 91t-329 -89q-153 -87 -242 -242q-89 -154 -89 -332zM100 731q0 199 100 375t276 276t376 101q200 -1 376 -101t276 -275t100 -375t-98 -372
q-98 -174 -272 -277t-382 -103t-382 103t-272 275t-98 373zM819 1171q301 0 301 -253q0 -162 -149 -234l237 -393h-121l-210 360h-168v-360h-101v880h211zM709 731h112q91 0 143 46t52 136q0 172 -197 172h-110v-354z" />
    <glyph glyph-name="macron" unicode="&#xaf;" horiz-adv-x="1024" 
d="M1030 1556h-1036v82h1036v-82z" />
    <glyph glyph-name="degree" unicode="&#xb0;" horiz-adv-x="877" 
d="M229 1182q0 -90 61 -152q60 -62 146 -63q86 0 150 62q61 63 61 155t-60 154q-59 62 -149 63q-90 0 -150 -64q-59 -65 -59 -155zM737 1184q-1 -132 -87 -216t-214 -83t-212 83q-85 82 -85 215q1 133 87 217t212 83q126 1 212 -83t87 -216z" />
    <glyph glyph-name="plusminus" unicode="&#xb1;" 
d="M625 764h434v-82h-434v-432h-82v432h-432v82h432v434h82v-434zM111 1v82h948v-82h-948z" />
    <glyph glyph-name="uni00B2" unicode="&#xb2;" horiz-adv-x="688" 
d="M629 586h-576v78l242 237q127 125 173 195t46 144q0 73 -46 116q-48 41 -140 41t-201 -82l-49 65q118 103 256 103q138 1 208 -63t70 -164t-40 -164t-85 -114t-305 -304h447v-88z" />
    <glyph glyph-name="uni00B3" unicode="&#xb3;" horiz-adv-x="688" 
d="M616 1273q0 -169 -161 -220q186 -45 186 -211q-1 -131 -89 -202t-240 -71t-271 60v88q138 -62 260 -62q122 -1 181 49t59 136q0 161 -238 161h-131v84h135q104 0 158 43q53 45 53 117t-46 112t-128 40q-128 0 -246 -78l-47 70q131 94 275 94t217 -60t73 -150z" />
    <glyph glyph-name="acute" unicode="&#xb4;" horiz-adv-x="1182" 
d="M393 1241v16q71 76 145 172t97 140h141v-17q-76 -111 -313 -311h-70z" />
    <glyph glyph-name="mu" unicode="&#xb5;" horiz-adv-x="1221" 
d="M563 -20q-187 0 -287 112q5 -102 5 -170v-414h-99v1579h99v-704q0 -165 69 -239t213 -74q195 0 286 97t91 320v600h98v-1087h-84l-18 150h-6q-49 -76 -151 -123t-216 -47z" />
    <glyph glyph-name="paragraph" unicode="&#xb6;" horiz-adv-x="1341" 
d="M1106 -260h-100v1722h-228v-1722h-100v819q-64 -18 -146 -18q-216 0 -318 125q-101 124 -101 380t109 383t341 127h543v-1816z" />
    <glyph glyph-name="periodcentered" unicode="&#xb7;" horiz-adv-x="487" 
d="M162 721q0 98 81 98t81 -98t-81 -98t-81 98z" />
    <glyph glyph-name="cedilla" unicode="&#xb8;" horiz-adv-x="420" 
d="M393 -291q0 -99 -67 -151q-70 -50 -163 -50t-120 11v88q29 -10 100 -10q71 1 111 29t41 79q0 94 -193 121l93 174h96l-66 -117q168 -37 168 -174z" />
    <glyph glyph-name="uni00B9" unicode="&#xb9;" horiz-adv-x="688" 
d="M442 1462v-876h-98v547q0 99 12 233q-28 -25 -233 -145l-47 77l274 164h92z" />
    <glyph glyph-name="ordmasculine" unicode="&#xba;" horiz-adv-x="739" 
d="M160 1141q0 -264 209 -264t209 264q0 130 -50 194t-159 64t-159 -64t-50 -194zM70 1138q0 164 78 252t221 89q143 0 222 -87t79 -249t-80 -252t-223 -90t-220 86q-77 87 -77 251z" />
    <glyph glyph-name="guillemotright" unicode="&#xbb;" horiz-adv-x="885" 
d="M442 518l-309 -393l-61 43l254 362l-254 363l61 43l309 -391v-27zM803 518l-309 -393l-62 43l254 362l-254 363l62 43l309 -391v-27z" />
    <glyph glyph-name="onequarter" unicode="&#xbc;" horiz-adv-x="1516" 
d="M425 1462v-876h-98v547q0 99 12 233q-28 -25 -233 -145l-47 77l274 164h92zM1148 1462l-811 -1462h-94l811 1462h94zM1173 320v221q0 125 8 232q-12 -24 -317 -453h309zM1392 242h-129v-241h-90v241h-413v60l407 581h96v-563h129v-78z" />
    <glyph glyph-name="onehalf" unicode="&#xbd;" horiz-adv-x="1516" 
d="M1403 1h-576v78l242 237q127 126 173 196t46 144t-47 114q-47 42 -139 42t-201 -82l-49 65q118 103 256 103t208 -64t70 -164q0 -101 -53 -184q-27 -45 -69 -90q-36 -43 -308 -307h447v-88zM377 1462v-876h-98v547q0 99 12 233q-28 -25 -233 -145l-47 77l274 164h92z
M1073 1462l-811 -1462h-94l811 1462h94z" />
    <glyph glyph-name="threequarters" unicode="&#xbe;" horiz-adv-x="1516" 
d="M616 1273q0 -169 -161 -220q186 -45 186 -211q-1 -131 -89 -202t-240 -71t-271 60v88q138 -62 260 -62q122 -1 181 49t59 136q0 161 -238 161h-131v84h135q104 0 158 43q53 45 53 117t-46 112t-128 40q-128 0 -246 -78l-47 70q131 94 275 94t217 -60t73 -150zM1300 1462
l-811 -1462h-94l811 1462h94zM1276 320v221q0 125 8 232q-13 -26 -317 -453h309zM1495 242h-129v-241h-90v241h-413v60l407 581h96v-563h129v-78z" />
    <glyph glyph-name="questiondown" unicode="&#xbf;" horiz-adv-x="862" 
d="M440 1010q0 98 81 98t81 -98q0 -54 -24 -76t-58 -23q-34 0 -57 23t-23 76zM74 -27q0 126 78 226q40 49 138 131t133 126q34 45 49 94t15 146v15h82v-37q1 -126 -39 -205t-137 -164l-90 -79q-71 -60 -103 -120t-32 -139q0 -124 82 -200t214 -76t240 46l64 27l37 -79
q-184 -80 -353 -80t-274 99q-104 99 -104 269z" />
    <glyph glyph-name="Agrave" unicode="&#xc0;" horiz-adv-x="1229" 
d="M354 608h523l-199 527q-24 58 -60 172q-26 -92 -59 -174zM911 516h-594l-204 -516h-113l588 1468h65l576 -1468h-115zM720 1579h-69q-96 79 -189 171q-92 94 -125 140v17h142q25 -46 97 -140t144 -172v-16z" />
    <glyph glyph-name="Aacute" unicode="&#xc1;" horiz-adv-x="1229" 
d="M354 608h523l-199 527q-24 58 -60 172q-26 -92 -59 -174zM911 516h-594l-204 -516h-113l588 1468h65l576 -1468h-115zM504 1579v16q70 76 144 172t98 140h141v-17q-76 -111 -313 -311h-70z" />
    <glyph glyph-name="Acircumflex" unicode="&#xc2;" horiz-adv-x="1229" 
d="M354 608h523l-199 527q-24 58 -60 172q-26 -92 -59 -174zM911 516h-594l-204 -516h-113l588 1468h65l576 -1468h-115zM910 1579h-70q-124 102 -221 207q-106 -112 -221 -207h-70v16q156 168 242 312h98q67 -119 242 -312v-16z" />
    <glyph glyph-name="Atilde" unicode="&#xc3;" horiz-adv-x="1229" 
d="M354 608h523l-199 527q-24 58 -60 172q-26 -92 -59 -174zM911 516h-594l-204 -516h-113l588 1468h65l576 -1468h-115zM476 1737q-84 0 -116 -156h-73q11 110 63 174t137 64q69 -1 164 -79q31 -26 67 -52t66 -25q93 0 125 156h76q-17 -115 -69 -177t-132 -61
q-70 0 -163 78q-49 41 -78 59t-67 19z" />
    <glyph glyph-name="Adieresis" unicode="&#xc4;" horiz-adv-x="1229" 
d="M354 608h523l-199 527q-24 58 -60 172q-26 -92 -59 -174zM911 516h-594l-204 -516h-113l588 1468h65l576 -1468h-115zM748 1727q0 86 64 86t63 -86q1 -86 -63 -86t-64 86zM367 1727q-1 86 63 86t64 -86t-64 -86t-63 86z" />
    <glyph glyph-name="Aring" unicode="&#xc5;" horiz-adv-x="1229" 
d="M354 608h523l-199 527q-24 58 -60 172q-26 -92 -59 -174zM402 1610q0 96 60 153q60 58 156 58q98 -1 158 -59t60 -153t-60 -154q-40 -39 -98 -52l551 -1403h-115l-203 516h-594l-204 -516h-113l562 1403q-59 12 -110 62q-50 49 -50 145zM616 1749q-60 1 -97 -37t-37 -103
t38 -103t99 -37q61 -1 99 37t38 102t-39 104q-41 37 -101 37z" />
    <glyph glyph-name="AE" unicode="&#xc6;" horiz-adv-x="1653" 
d="M811 608v760h-100l-334 -760h434zM1528 0h-717v516h-475l-227 -516h-111l653 1462h877v-94h-615v-553h576v-94h-576v-627h615v-94z" />
    <glyph glyph-name="Ccedilla" unicode="&#xc7;" horiz-adv-x="1272" 
d="M831 1391q-275 0 -433 -176q-158 -175 -158 -485t149 -483t426 -173q182 0 338 47v-90q-143 -50 -355 -51l-55 -97q168 -37 168 -174q0 -99 -67 -151q-70 -50 -163 -50t-120 11v88q29 -10 100 -10q71 1 111 29t41 79q0 94 -193 121l85 158q-247 25 -399 195
q-177 200 -177 556q1 223 85 393t242 262t370 93q211 0 382 -80l-41 -92q-162 80 -336 80z" />
    <glyph glyph-name="Egrave" unicode="&#xc8;" horiz-adv-x="1130" 
d="M1006 0h-799v1462h799v-94h-697v-553h658v-94h-658v-627h697v-94zM697 1579h-69q-96 79 -189 171q-92 94 -125 140v17h142q25 -46 97 -140t144 -172v-16z" />
    <glyph glyph-name="Eacute" unicode="&#xc9;" horiz-adv-x="1130" 
d="M1006 0h-799v1462h799v-94h-697v-553h658v-94h-658v-627h697v-94zM463 1579v16q71 76 145 172t97 140h141v-17q-76 -111 -313 -311h-70z" />
    <glyph glyph-name="Ecircumflex" unicode="&#xca;" horiz-adv-x="1130" 
d="M1006 0h-799v1462h799v-94h-697v-553h658v-94h-658v-627h697v-94zM897 1579h-70q-124 102 -221 207q-106 -112 -221 -207h-70v16q154 168 242 312h98q67 -119 242 -312v-16z" />
    <glyph glyph-name="Edieresis" unicode="&#xcb;" horiz-adv-x="1130" 
d="M1006 0h-799v1462h799v-94h-697v-553h658v-94h-658v-627h697v-94zM735 1727q-1 86 63 86t64 -86t-64 -86t-63 86zM354 1727q0 86 64 86t63 -86q1 -86 -63 -86t-64 86z" />
    <glyph glyph-name="Igrave" unicode="&#xcc;" horiz-adv-x="516" 
d="M320 1579h-69q-96 79 -189 171q-92 94 -125 140v17h142q25 -46 97 -140t144 -172v-16zM207 0v1462h102v-1462h-102z" />
    <glyph glyph-name="Iacute" unicode="&#xcd;" horiz-adv-x="516" 
d="M191 1579v16q71 76 145 172t97 140h141v-17q-76 -111 -313 -311h-70zM207 0v1462h102v-1462h-102z" />
    <glyph glyph-name="Icircumflex" unicode="&#xce;" horiz-adv-x="516" 
d="M207 0v1462h102v-1462h-102zM550 1579h-70q-124 102 -221 207q-106 -112 -221 -207h-70v16q156 168 242 312h98q67 -119 242 -312v-16z" />
    <glyph glyph-name="Idieresis" unicode="&#xcf;" horiz-adv-x="516" 
d="M386 1727q0 86 64 86t63 -86q1 -86 -63 -86t-64 86zM5 1727q-1 86 63 86t64 -86t-64 -86t-63 86zM207 0v1462h102v-1462h-102z" />
    <glyph glyph-name="Eth" unicode="&#xd0;" horiz-adv-x="1466" 
d="M1206 741q0 315 -160 473t-468 158h-269v-600h406v-94h-406v-588h242q655 0 655 651zM602 1462q351 0 533 -183t182 -543t-193 -548q-194 -188 -567 -188h-350v678h-160v94h160v690h395z" />
    <glyph glyph-name="Ntilde" unicode="&#xd1;" horiz-adv-x="1477" 
d="M1270 0h-103l-866 1298h-8q12 -232 12 -350v-948h-98v1462h102l865 -1296h6q-9 180 -9 342v954h99v-1462zM588 1737q-84 0 -115 -156h-73q10 110 63 174t137 64q69 -1 164 -79q32 -26 68 -52t65 -25q93 0 125 156h76q-16 -115 -68 -177t-133 -61q-69 1 -163 79
q-50 42 -78 59q-30 18 -68 18z" />
    <glyph glyph-name="Ograve" unicode="&#xd2;" horiz-adv-x="1565" 
d="M784 1386q-260 0 -402 -170t-142 -482q0 -314 140 -486t402 -172q263 0 404 170q139 171 139 486t-139 486q-141 168 -402 168zM786 1485q304 0 477 -202q173 -201 173 -549t-174 -552q-176 -202 -480 -202t-479 202q-174 204 -174 552t175 550q178 201 482 201z
M885 1579h-69q-96 79 -189 171q-92 94 -125 140v17h142q25 -46 97 -140t144 -172v-16z" />
    <glyph glyph-name="Oacute" unicode="&#xd3;" horiz-adv-x="1565" 
d="M784 1386q-260 0 -402 -170t-142 -482q0 -314 140 -486t402 -172q263 0 404 170q139 171 139 486t-139 486q-141 168 -402 168zM786 1485q304 0 477 -202q173 -201 173 -549t-174 -552q-176 -202 -480 -202t-479 202q-174 204 -174 552t175 550q178 201 482 201z
M686 1579v16q70 76 144 172t98 140h141v-17q-76 -111 -313 -311h-70z" />
    <glyph glyph-name="Ocircumflex" unicode="&#xd4;" horiz-adv-x="1565" 
d="M784 1386q-260 0 -402 -170t-142 -482q0 -314 140 -486t402 -172q263 0 404 170q139 171 139 486t-139 486q-141 168 -402 168zM786 1485q304 0 477 -202q173 -201 173 -549t-174 -552q-176 -202 -480 -202t-479 202q-174 204 -174 552t175 550q178 201 482 201z
M1074 1579h-70q-124 102 -221 207q-106 -112 -221 -207h-70v16q156 168 242 312h98q67 -119 242 -312v-16z" />
    <glyph glyph-name="Otilde" unicode="&#xd5;" horiz-adv-x="1565" 
d="M784 1386q-260 0 -402 -170t-142 -482q0 -314 140 -486t402 -172q263 0 404 170q139 171 139 486t-139 486q-141 168 -402 168zM786 1485q304 0 477 -202q173 -201 173 -549t-174 -552q-176 -202 -480 -202t-479 202q-174 204 -174 552t175 550q178 201 482 201z
M632 1737q-84 0 -116 -156h-73q11 110 63 174t137 64q69 -1 164 -79q31 -26 67 -52t66 -25q93 0 125 156h76q-17 -115 -69 -177t-132 -61q-70 0 -163 78q-49 41 -78 59t-67 19z" />
    <glyph glyph-name="Odieresis" unicode="&#xd6;" horiz-adv-x="1565" 
d="M784 1386q-260 0 -402 -170t-142 -482q0 -314 140 -486t402 -172q263 0 404 170q139 171 139 486t-139 486q-141 168 -402 168zM786 1485q304 0 477 -202q173 -201 173 -549t-174 -552q-176 -202 -480 -202t-479 202q-174 204 -174 552t175 550q178 201 482 201z
M910 1727q0 86 64 86t63 -86q1 -86 -63 -86t-64 86zM529 1727q-1 86 63 86t64 -86t-64 -86t-63 86z" />
    <glyph glyph-name="multiply" unicode="&#xd7;" 
d="M584 780l409 408l58 -58l-408 -407l406 -408l-58 -57l-407 408l-406 -408l-57 57l405 408l-407 407l57 58z" />
    <glyph glyph-name="Oslash" unicode="&#xd8;" horiz-adv-x="1565" 
d="M784 1386q-260 0 -402 -170t-142 -482q0 -314 139 -484l739 1034q-133 102 -334 102zM1325 733q0 316 -139 486l-742 -1037q133 -106 338 -106q263 0 404 170q139 171 139 487zM1436 740q0 -354 -174 -558q-175 -202 -480 -202q-236 0 -395 120l-86 -120l-74 59l90 127
q-188 200 -188 558t175 560q177 201 480 201q232 0 392 -121l108 152l72 -60l-111 -153q191 -209 191 -563z" />
    <glyph glyph-name="Ugrave" unicode="&#xd9;" horiz-adv-x="1473" 
d="M1282 1462v-946q0 -252 -146 -394t-402 -142q-257 0 -402 142q-142 145 -142 398v942h103v-946q0 -210 117 -328q116 -118 328 -118t327 115t115 321v956h102zM833 1579h-69q-96 79 -189 171q-92 94 -125 140v17h142q25 -46 97 -140t144 -172v-16z" />
    <glyph glyph-name="Uacute" unicode="&#xda;" horiz-adv-x="1473" 
d="M1282 1462v-946q0 -252 -146 -394t-402 -142q-257 0 -402 142q-142 145 -142 398v942h103v-946q0 -210 117 -328q116 -118 328 -118t327 115t115 321v956h102zM633 1579v16q71 76 145 172t97 140h141v-17q-76 -111 -313 -311h-70z" />
    <glyph glyph-name="Ucircumflex" unicode="&#xdb;" horiz-adv-x="1473" 
d="M1282 1462v-946q0 -252 -146 -394t-402 -142q-257 0 -402 142q-142 145 -142 398v942h103v-946q0 -210 117 -328q116 -118 328 -118t327 115t115 321v956h102zM1026 1579h-70q-124 102 -221 207q-106 -112 -221 -207h-70v16q156 168 242 312h98q67 -119 242 -312v-16z
" />
    <glyph glyph-name="Udieresis" unicode="&#xdc;" horiz-adv-x="1473" 
d="M1282 1462v-946q0 -252 -146 -394t-402 -142q-257 0 -402 142q-142 145 -142 398v942h103v-946q0 -210 117 -328q116 -118 328 -118t327 115t115 321v956h102zM862 1727q0 86 64 86t63 -86q1 -86 -63 -86t-64 86zM481 1727q-1 86 63 86t64 -86t-64 -86t-63 86z" />
    <glyph glyph-name="Yacute" unicode="&#xdd;" horiz-adv-x="1081" 
d="M594 0h-105v557l-489 905h117l426 -800l428 800h110l-487 -897v-565zM434 1579v16q70 76 144 172t98 140h141v-17q-76 -111 -313 -311h-70z" />
    <glyph glyph-name="Thorn" unicode="&#xde;" horiz-adv-x="1198" 
d="M309 428h201q248 0 358 82t109 257q1 175 -103 257t-323 82h-242v-678zM1087 778q-1 -212 -145 -325t-407 -113h-226v-340h-102v1462h102v-264h256q522 0 522 -420z" />
    <glyph glyph-name="germandbls" unicode="&#xdf;" horiz-adv-x="1194" 
d="M457 154q149 -86 323 -86q92 0 152 54t61 150q-1 94 -39 154t-156 142t-168 142q-48 60 -48 133t32 123t107 108t107 106t32 106q0 94 -70 144t-209 49q-138 0 -219 -69t-81 -196v-1214h-99v1206q0 173 102 267t292 94t288 -73t97 -211q0 -138 -139 -249
q-84 -66 -112 -102t-28 -76t15 -66q28 -47 144 -129q115 -81 159 -128q92 -98 92 -241q0 -142 -88 -227t-264 -85q-177 0 -283 67v107z" />
    <glyph glyph-name="agrave" unicode="&#xe0;" horiz-adv-x="1085" 
d="M442 70q175 0 275 99t100 277v107l-190 -8q-227 -10 -327 -71q-97 -62 -97 -176q1 -114 63 -172q62 -56 176 -56zM416 -20q-140 0 -230 82q-88 82 -88 234t132 240q134 88 384 93l207 6v72q0 155 -63 234q-62 79 -208 79t-308 -84l-37 86q179 84 357 84t265 -92
q88 -92 88 -291v-723h-73l-25 172h-8q-85 -108 -169 -150t-224 -42zM638 1241h-69q-96 79 -189 171q-92 94 -125 140v17h142q25 -46 97 -140t144 -172v-16z" />
    <glyph glyph-name="aacute" unicode="&#xe1;" horiz-adv-x="1085" 
d="M442 70q175 0 275 99t100 277v107l-190 -8q-227 -10 -327 -71q-97 -62 -97 -176q1 -114 63 -172q62 -56 176 -56zM416 -20q-140 0 -230 82q-88 82 -88 234t132 240q134 88 384 93l207 6v72q0 155 -63 234q-62 79 -208 79t-308 -84l-37 86q179 84 357 84t265 -92
q88 -92 88 -291v-723h-73l-25 172h-8q-85 -108 -169 -150t-224 -42zM422 1241v16q70 76 144 172t98 140h141v-17q-76 -111 -313 -311h-70z" />
    <glyph glyph-name="acircumflex" unicode="&#xe2;" horiz-adv-x="1085" 
d="M442 70q175 0 275 99t100 277v107l-190 -8q-227 -10 -327 -71q-97 -62 -97 -176q1 -114 63 -172q62 -56 176 -56zM416 -20q-140 0 -230 82q-88 82 -88 234t132 240q134 88 384 93l207 6v72q0 155 -63 234q-62 79 -208 79t-308 -84l-37 86q179 84 357 84t265 -92
q88 -92 88 -291v-723h-73l-25 172h-8q-85 -108 -169 -150t-224 -42zM833 1241h-70q-124 102 -221 207q-106 -112 -221 -207h-70v16q154 168 242 312h98q67 -119 242 -312v-16z" />
    <glyph glyph-name="atilde" unicode="&#xe3;" horiz-adv-x="1085" 
d="M442 70q175 0 275 99t100 277v107l-190 -8q-227 -10 -327 -71q-97 -62 -97 -176q1 -114 63 -172q62 -56 176 -56zM416 -20q-140 0 -230 82q-88 82 -88 234t132 240q134 88 384 93l207 6v72q0 155 -63 234q-62 79 -208 79t-308 -84l-37 86q179 84 357 84t265 -92
q88 -92 88 -291v-723h-73l-25 172h-8q-85 -108 -169 -150t-224 -42zM388 1399q-84 0 -115 -156h-73q10 110 62 174t138 64q69 -1 164 -79q32 -26 68 -52t65 -25q93 0 125 156h76q-16 -115 -68 -177t-133 -61q-69 1 -163 79q-50 42 -78 59q-30 18 -68 18z" />
    <glyph glyph-name="adieresis" unicode="&#xe4;" horiz-adv-x="1085" 
d="M442 70q175 0 275 99t100 277v107l-190 -8q-227 -10 -327 -71q-97 -62 -97 -176q1 -114 63 -172q62 -56 176 -56zM416 -20q-140 0 -230 82q-88 82 -88 234t132 240q134 88 384 93l207 6v72q0 155 -63 234q-62 79 -208 79t-308 -84l-37 86q179 84 357 84t265 -92
q88 -92 88 -291v-723h-73l-25 172h-8q-85 -108 -169 -150t-224 -42zM663 1389q-1 86 63 86t64 -86t-64 -86t-63 86zM282 1389q0 86 64 86t63 -86q1 -86 -63 -86t-64 86z" />
    <glyph glyph-name="aring" unicode="&#xe5;" horiz-adv-x="1085" 
d="M442 70q175 0 275 99t100 277v107l-190 -8q-227 -10 -327 -71q-97 -62 -97 -176q1 -114 63 -172q62 -56 176 -56zM416 -20q-140 0 -230 82q-88 82 -88 234t132 240q134 88 384 93l207 6v72q0 155 -63 234q-62 79 -208 79t-308 -84l-37 86q179 84 357 84t265 -92
q88 -92 88 -291v-723h-73l-25 172h-8q-85 -108 -169 -150t-224 -42zM405 1455q0 -63 37 -103q40 -37 100 -37t100 37q37 40 37 104t-39 102q-40 37 -99 37t-99 -38q-37 -39 -37 -102zM542 1243q-98 1 -158 59t-59 154q-1 96 59 153q60 58 157 58q97 -1 157 -59t61 -153
t-59 -153t-158 -59z" />
    <glyph glyph-name="ae" unicode="&#xe6;" horiz-adv-x="1731" 
d="M1217 1020q-284 0 -314 -402h604q0 188 -77 295q-78 107 -213 107zM434 70q169 0 266 99t97 277v107l-187 -8q-218 -10 -312 -71t-95 -176q0 -115 61 -172q62 -56 170 -56zM1243 -20q-295 0 -397 256q-68 -134 -168 -195t-253 -61q-154 0 -241 82q-86 84 -86 232t126 238
t376 97l201 6v72q0 153 -61 234q-62 79 -204 79t-300 -84l-37 86q172 84 346 84q261 0 325 -211q111 213 347 213q183 0 289 -134t106 -364v-80h-715q0 -460 348 -460q85 0 150 12t174 57v-90q-95 -41 -168 -55t-158 -14z" />
    <glyph glyph-name="ccedilla" unicode="&#xe7;" horiz-adv-x="973" 
d="M723 -291q0 -99 -67 -151q-70 -50 -163 -50t-120 11v88q29 -10 100 -10q71 1 111 29t41 79q0 94 -193 121l86 161q-164 25 -267 140q-132 147 -132 413q1 266 137 417t375 151q142 0 270 -49l-27 -88q-143 47 -245 47q-200 0 -303 -123t-103 -349t103 -352
q104 -124 288 -124q146 0 275 53v-92q-103 -51 -273 -51h-6l-55 -97q168 -37 168 -174z" />
    <glyph glyph-name="egrave" unicode="&#xe8;" horiz-adv-x="1124" 
d="M585 1020q-151 0 -245 -103t-111 -299h672q0 189 -82 296q-83 106 -234 106zM963 49q-157 -69 -342 -69q-237 0 -369 146t-133 406q-1 262 127 419t333 157t316 -134t111 -364v-80h-783q1 -224 104 -342t294 -118q97 0 167 14t175 55v-90zM685 1241h-69q-96 79 -189 171
q-92 94 -125 140v17h142q25 -46 97 -140t144 -172v-16z" />
    <glyph glyph-name="eacute" unicode="&#xe9;" horiz-adv-x="1124" 
d="M585 1020q-151 0 -245 -103t-111 -299h672q0 189 -82 296q-83 106 -234 106zM963 49q-157 -69 -342 -69q-237 0 -369 146t-133 406q-1 262 127 419t333 157t316 -134t111 -364v-80h-783q1 -224 104 -342t294 -118q97 0 167 14t175 55v-90zM452 1241v16q70 76 144 172
t98 140h141v-17q-76 -111 -313 -311h-70z" />
    <glyph glyph-name="ecircumflex" unicode="&#xea;" horiz-adv-x="1124" 
d="M585 1020q-151 0 -245 -103t-111 -299h672q0 189 -82 296q-83 106 -234 106zM963 49q-157 -69 -342 -69q-237 0 -369 146t-133 406q-1 262 127 419t333 157t316 -134t111 -364v-80h-783q1 -224 104 -342t294 -118q97 0 167 14t175 55v-90zM872 1241h-70
q-124 102 -221 207q-106 -112 -221 -207h-70v16q156 168 242 312h98q67 -119 242 -312v-16z" />
    <glyph glyph-name="edieresis" unicode="&#xeb;" horiz-adv-x="1124" 
d="M585 1020q-151 0 -245 -103t-111 -299h672q0 189 -82 296q-83 106 -234 106zM963 49q-157 -69 -342 -69q-237 0 -369 146t-133 406q-1 262 127 419t333 157t316 -134t111 -364v-80h-783q1 -224 104 -342t294 -118q97 0 167 14t175 55v-90zM712 1389q0 86 64 86t63 -86
q1 -86 -63 -86t-64 86zM331 1389q-1 86 63 86t64 -86t-64 -86t-63 86z" />
    <glyph glyph-name="igrave" unicode="&#xec;" horiz-adv-x="463" 
d="M349 1241h-69q-100 83 -190 173t-124 138v17h142q24 -45 98 -141t143 -171v-16zM281 0h-99v1087h99v-1087z" />
    <glyph glyph-name="iacute" unicode="&#xed;" horiz-adv-x="463" 
d="M107 1241v16q71 76 145 172t97 140h141v-17q-76 -111 -313 -311h-70zM281 0h-99v1087h99v-1087z" />
    <glyph glyph-name="icircumflex" unicode="&#xee;" horiz-adv-x="463" 
d="M281 0h-99v1087h99v-1087zM524 1241h-70q-124 102 -221 207q-106 -112 -221 -207h-70v16q156 168 242 312h98q67 -119 242 -312v-16z" />
    <glyph glyph-name="idieresis" unicode="&#xef;" horiz-adv-x="463" 
d="M360 1389q0 86 64 86t63 -86q1 -86 -63 -86t-64 86zM-21 1389q-1 86 63 86t64 -86t-64 -86t-63 86zM281 0h-99v1087h99v-1087z" />
    <glyph glyph-name="eth" unicode="&#xf0;" horiz-adv-x="1174" 
d="M578 868q-357 0 -357 -398q0 -196 95 -296q92 -104 270 -104t270 122q94 122 94 365q0 145 -97 229q-99 82 -275 82zM748 1343q307 -301 307 -807q0 -254 -124 -406q-123 -150 -343 -150t-346 130q-125 130 -125 360q1 230 127 359t331 129t347 -129l4 2
q-65 271 -269 459l-270 -157l-49 77l244 146q-85 61 -199 119l45 81q150 -70 248 -145l225 137l49 -84z" />
    <glyph glyph-name="ntilde" unicode="&#xf1;" horiz-adv-x="1208" 
d="M940 0v705q0 165 -69 239t-214 74q-195 0 -285 -98t-91 -320v-600h-99v1087h84l19 -149h6q107 170 377 170q370 0 370 -397v-711h-98zM470 1399q-84 0 -115 -156h-73q10 110 63 174t137 64q69 -1 164 -79q32 -26 68 -52t65 -25q93 0 125 156h76q-16 -115 -68 -177
t-133 -61q-69 1 -163 79q-50 42 -78 59q-30 18 -68 18z" />
    <glyph glyph-name="ograve" unicode="&#xf2;" horiz-adv-x="1200" 
d="M223 545q1 -225 99 -350t278 -125t279 125q98 125 98 349t-99 350q-100 124 -280 124t-277 -124q-98 -124 -98 -349zM1081 542q0 -264 -129 -413t-356 -149q-142 0 -251 68t-167 198q-58 129 -59 299q0 265 129 415q130 148 354 148t352 -150q127 -152 127 -416z
M718 1241h-69q-96 79 -189 171q-92 94 -125 140v17h142q25 -46 97 -140t144 -172v-16z" />
    <glyph glyph-name="oacute" unicode="&#xf3;" horiz-adv-x="1200" 
d="M223 545q1 -225 99 -350t278 -125t279 125q98 125 98 349t-99 350q-100 124 -280 124t-277 -124q-98 -124 -98 -349zM1081 542q0 -264 -129 -413t-356 -149q-142 0 -251 68t-167 198q-58 129 -59 299q0 265 129 415q130 148 354 148t352 -150q127 -152 127 -416z
M499 1241v16q71 76 145 172t97 140h141v-17q-76 -111 -313 -311h-70z" />
    <glyph glyph-name="ocircumflex" unicode="&#xf4;" horiz-adv-x="1200" 
d="M223 545q1 -225 99 -350t278 -125t279 125q98 125 98 349t-99 350q-100 124 -280 124t-277 -124q-98 -124 -98 -349zM1081 542q0 -264 -129 -413t-356 -149q-142 0 -251 68t-167 198q-58 129 -59 299q0 265 129 415q130 148 354 148t352 -150q127 -152 127 -416z
M891 1241h-70q-124 102 -221 207q-106 -112 -221 -207h-70v16q154 168 242 312h98q67 -119 242 -312v-16z" />
    <glyph glyph-name="otilde" unicode="&#xf5;" horiz-adv-x="1200" 
d="M223 545q1 -225 99 -350t278 -125t279 125q98 125 98 349t-99 350q-100 124 -280 124t-277 -124q-98 -124 -98 -349zM1081 542q0 -264 -129 -413t-356 -149q-142 0 -251 68t-167 198q-58 129 -59 299q0 265 129 415q130 148 354 148t352 -150q127 -152 127 -416z
M452 1399q-84 0 -115 -156h-73q10 110 63 174t137 64q69 -1 164 -79q32 -26 68 -52t65 -25q93 0 125 156h76q-16 -115 -68 -177t-133 -61q-69 1 -163 79q-50 42 -78 59q-30 18 -68 18z" />
    <glyph glyph-name="odieresis" unicode="&#xf6;" horiz-adv-x="1200" 
d="M223 545q1 -225 99 -350t278 -125t279 125q98 125 98 349t-99 350q-100 124 -280 124t-277 -124q-98 -124 -98 -349zM1081 542q0 -264 -129 -413t-356 -149q-142 0 -251 68t-167 198q-58 129 -59 299q0 265 129 415q130 148 354 148t352 -150q127 -152 127 -416z
M727 1389q-1 86 63 86t64 -86t-64 -86t-63 86zM346 1389q0 86 64 86t63 -86q1 -86 -63 -86t-64 86z" />
    <glyph glyph-name="divide" unicode="&#xf7;" 
d="M504 371q0 98 81 98t81 -98q0 -53 -24 -76t-58 -23t-57 23t-23 76zM504 1075q0 99 81 99t81 -99q0 -53 -24 -75t-58 -23q-34 0 -57 23t-23 75zM111 682v82h948v-82h-948z" />
    <glyph glyph-name="oslash" unicode="&#xf8;" horiz-adv-x="1200" 
d="M600 70q181 0 279 125t98 333t-72 326l-543 -702q94 -82 238 -82zM582 1018q-164 0 -261 -124q-98 -124 -98 -337t78 -334l543 705q-98 90 -262 90zM1081 534q0 -256 -129 -405t-356 -149q-172 0 -291 98l-86 -113l-72 58l93 120q-121 151 -121 409t129 408
q130 148 354 148q179 0 301 -104l96 124l74 -55l-104 -137q112 -146 112 -402z" />
    <glyph glyph-name="ugrave" unicode="&#xf9;" horiz-adv-x="1208" 
d="M268 1087v-704q0 -165 69 -239t214 -74q195 0 286 97t91 320v600h98v-1087h-84l-18 150h-6q-107 -170 -377 -170q-371 0 -371 397v710h98zM687 1241h-69q-96 79 -189 171q-92 94 -125 140v17h142q25 -46 97 -140t144 -172v-16z" />
    <glyph glyph-name="uacute" unicode="&#xfa;" horiz-adv-x="1208" 
d="M268 1087v-704q0 -165 69 -239t214 -74q195 0 286 97t91 320v600h98v-1087h-84l-18 150h-6q-107 -170 -377 -170q-371 0 -371 397v710h98zM495 1241v16q71 76 145 172t97 140h141v-17q-76 -111 -313 -311h-70z" />
    <glyph glyph-name="ucircumflex" unicode="&#xfb;" horiz-adv-x="1208" 
d="M268 1087v-704q0 -165 69 -239t214 -74q195 0 286 97t91 320v600h98v-1087h-84l-18 150h-6q-107 -170 -377 -170q-371 0 -371 397v710h98zM895 1241h-70q-124 102 -221 207q-106 -112 -221 -207h-70v16q154 168 242 312h98q67 -119 242 -312v-16z" />
    <glyph glyph-name="udieresis" unicode="&#xfc;" horiz-adv-x="1208" 
d="M268 1087v-704q0 -165 69 -239t214 -74q195 0 286 97t91 320v600h98v-1087h-84l-18 150h-6q-107 -170 -377 -170q-371 0 -371 397v710h98zM731 1389q-1 86 63 86t64 -86t-64 -86t-63 86zM350 1389q0 86 64 86t63 -86q1 -86 -63 -86t-64 86z" />
    <glyph glyph-name="yacute" unicode="&#xfd;" horiz-adv-x="940" 
d="M141 -492q-67 0 -137 21v86q56 -16 116 -16q60 -1 98 23t72 78t71 153t55 147l-416 1087h102l230 -610q101 -271 133 -379h6q37 113 137 385l230 604h102l-487 -1263q-58 -153 -99 -208q-82 -108 -213 -108zM361 1241v16q71 76 145 172t97 140h141v-17
q-76 -111 -313 -311h-70z" />
    <glyph glyph-name="thorn" unicode="&#xfe;" horiz-adv-x="1219" 
d="M632 68q179 0 272 124q91 126 91 347q0 479 -348 479q-193 0 -279 -105t-87 -354v-18q0 -253 85 -364q87 -109 266 -109zM649 1108q221 0 336 -144t115 -417t-121 -420t-332 -147q-250 0 -366 188h-7l3 -84q4 -65 4 -162v-414h-99v2048h99v-391l-7 -247h7
q114 190 368 190z" />
    <glyph glyph-name="ydieresis" unicode="&#xff;" horiz-adv-x="940" 
d="M141 -492q-67 0 -137 21v86q56 -16 116 -16q60 -1 98 23t72 78t71 153t55 147l-416 1087h102l230 -610q101 -271 133 -379h6q37 113 137 385l230 604h102l-487 -1263q-58 -153 -99 -208q-82 -108 -213 -108zM595 1389q-1 86 63 86t64 -86t-64 -86t-63 86zM214 1389
q0 86 64 86t63 -86q1 -86 -63 -86t-64 86z" />
  </font>
</defs>
</svg>
